<svg xmlns="http://www.w3.org/2000/svg" xmlns:xlink="http://www.w3.org/1999/xlink" width="302.628" height="302.628" version="1.1" viewBox="0 0 226.971 226.971"><g id="surface1"><path style="fill:none;stroke-width:.19925;stroke-linecap:butt;stroke-linejoin:miter;stroke:gray;stroke-opacity:1;stroke-miterlimit:10" d="M -56.694344 -56.693094 L 170.079094 -56.693094 M -56.694344 -28.345438 L 170.079094 -28.345438 M -56.694344 -0.0016875 L 170.079094 -0.0016875 M -56.694344 28.345969 L 170.079094 28.345969 M -56.694344 56.693625 L 170.079094 56.693625 M -56.694344 85.041281 L 170.079094 85.041281 M -56.694344 113.388937 L 170.079094 113.388937 M -56.694344 141.732687 L 170.079094 141.732687 M -56.694344 170.072531 L 170.079094 170.072531 M -56.694344 -56.693094 L -56.694344 170.080344 M -28.346688 -56.693094 L -28.346688 170.080344 M 0.00096875 -56.693094 L 0.00096875 170.080344 M 28.348625 -56.693094 L 28.348625 170.080344 M 56.692375 -56.693094 L 56.692375 170.080344 M 85.040031 -56.693094 L 85.040031 170.080344 M 113.387687 -56.693094 L 113.387687 170.080344 M 141.735344 -56.693094 L 141.735344 170.080344 M 170.071281 -56.693094 L 170.071281 170.080344" transform="matrix(1,0,0,-1,56.792,170.178)"/><path style="stroke:none;fill-rule:nonzero;fill:#99f;fill-opacity:1" d="M 56.792969 170.179688 L 56.792969 56.789062 L 170.179688 56.789062 L 170.179688 170.179688 Z M 56.792969 170.179688"/></g></svg>