<svg xmlns="http://www.w3.org/2000/svg" xmlns:xlink="http://www.w3.org/1999/xlink" width="295.068" height="295.068" version="1.1" viewBox="0 0 221.301 221.301"><defs><clipPath id="clip1"><path d="M 0 0 L 221.300781 0 L 221.300781 221.300781 L 0 221.300781 Z M 0 0"/></clipPath></defs><g id="surface1"><g clip-path="url(#clip1)" clip-rule="nonzero"><path style="fill:none;stroke-width:.19925;stroke-linecap:butt;stroke-linejoin:miter;stroke:gray;stroke-opacity:1;stroke-miterlimit:10" d="M -53.860344 -28.348406 L 167.245125 -28.348406 M -53.860344 -0.00075 L 167.245125 -0.00075 M -53.860344 28.346906 L 167.245125 28.346906 M -53.860344 56.694563 L 167.245125 56.694563 M -53.860344 85.042219 L 167.245125 85.042219 M -53.860344 113.385969 L 167.245125 113.385969 M -53.860344 141.733625 L 167.245125 141.733625 M -28.348625 -53.860125 L -28.348625 167.245344 M -0.00096875 -53.860125 L -0.00096875 167.245344 M 28.346688 -53.860125 L 28.346688 167.245344 M 56.694344 -53.860125 L 56.694344 167.245344 M 85.042 -53.860125 L 85.042 167.245344 M 113.38575 -53.860125 L 113.38575 167.245344 M 141.733406 -53.860125 L 141.733406 167.245344" transform="matrix(1,0,0,-1,53.958,167.343)"/></g></g></svg>