<svg xmlns="http://www.w3.org/2000/svg" xmlns:svg="http://www.w3.org/2000/svg" id="svg10" width="74.176" height="67.393" version="1.1" viewBox="0 0 74.176 67.393" xml:space="preserve"><metadata id="metadata16"/><g id="g18" transform="matrix(1.3333333,0,0,-1.3333333,-11.654733,79.047505)"><g id="g20" transform="translate(8.741,8.741)"><g id="g22"><g id="g24" transform="translate(8.741,8.741)"><g id="g26"><g id="g28"><g id="g30"><g id="g32"><path style="fill:#d9d9d9;fill-opacity:1;fill-rule:nonzero;stroke:none" id="path34" d="m 8.74095,0 c 0,4.82755 -3.9134,8.74095 -8.74095,8.74095 -4.82755,0 -8.74095,-3.9134 -8.74095,-8.74095 0,-4.82755 3.9134,-8.74095 8.74095,-8.74095 4.82755,0 8.74095,3.9134 8.74095,8.74095 z"/></g><g id="g36" transform="matrix(0.9,0,0,0.9,-3.363,-3.064)"><g id="g38"><g id="g40" transform="translate(-14.119,-14.418)"><text style="font-variant:normal;font-weight:400;font-size:9.9626px;font-family:CMR10;-inkscape-font-specification:CMR10;writing-mode:lr-tb;fill:#000;fill-opacity:1;fill-rule:nonzero;stroke:none" id="text44" transform="matrix(1,0,0,-1,14.119,14.418)"><tspan id="tspan42" x="0" y="0">A</tspan></text></g></g></g></g><g id="g50"><g id="g52"><path style="fill:#d9d9d9;fill-opacity:1;fill-rule:nonzero;stroke:none" id="path54" d="m 46.89087,0 c 0,4.76237 -3.86057,8.62296 -8.62296,8.62296 -4.76237,0 -8.62295,-3.86059 -8.62295,-8.62296 0,-4.76237 3.86058,-8.62296 8.62295,-8.62296 4.76239,0 8.62296,3.86059 8.62296,8.62296 z"/></g><g id="g56" transform="matrix(0.9,0,0,0.9,35.092,-3.064)"><g id="g58"><g id="g60" transform="translate(-52.574,-14.418)"><text style="font-variant:normal;font-weight:400;font-size:9.9626px;font-family:CMR10;-inkscape-font-specification:CMR10;writing-mode:lr-tb;fill:#000;fill-opacity:1;fill-rule:nonzero;stroke:none" id="text64" transform="matrix(1,0,0,-1,52.574,14.418)"><tspan id="tspan62" x="0" y="0">B</tspan></text></g></g></g></g><g id="g70"><g id="g72"><path style="fill:#d9d9d9;fill-opacity:1;fill-rule:nonzero;stroke:none" id="path74" d="m 27.79652,33.14107 c 0,4.78425 -3.87831,8.66256 -8.66258,8.66256 -4.78425,0 -8.66257,-3.87831 -8.66257,-8.66256 0,-4.78426 3.87832,-8.66258 8.66257,-8.66258 4.78427,0 8.66258,3.87832 8.66258,8.66258 z"/></g><g id="g76" transform="matrix(0.9,0,0,0.9,15.896,30.077)"><g id="g78"><g id="g80" transform="translate(-33.378,-47.559)"><text style="font-variant:normal;font-weight:400;font-size:9.9626px;font-family:CMR10;-inkscape-font-specification:CMR10;writing-mode:lr-tb;fill:#000;fill-opacity:1;fill-rule:nonzero;stroke:none" id="text84" transform="matrix(1,0,0,-1,33.378,47.559)"><tspan id="tspan82" x="0" y="0">C</tspan></text></g></g></g></g><path style="fill:none;stroke:#000;stroke-width:.3985;stroke-linecap:butt;stroke-linejoin:miter;stroke-miterlimit:10;stroke-dasharray:none;stroke-opacity:1" id="path90" d="M 8.92023,0 H 29.00725"/><g id="g92" transform="translate(29.00725)"><g id="g94"><path style="fill:none;stroke:#000;stroke-width:.31879;stroke-linecap:round;stroke-linejoin:round;stroke-miterlimit:10;stroke-dasharray:none;stroke-opacity:1" id="path96" d="M -1.19551,1.59401 C -1.09587,0.99626 0,0.09961 0.29886,0 0,-0.09961 -1.09587,-0.99626 -1.19551,-1.59401"/></g></g><path style="fill:none;stroke:#000;stroke-width:.3985;stroke-linecap:butt;stroke-linejoin:miter;stroke-miterlimit:10;stroke-dasharray:none;stroke-opacity:1" id="path98" d="M 33.86665,7.62283 23.78378,25.0869"/><g id="g100" transform="matrix(-0.49998,0.86601,-0.86601,-0.49998,23.7838,25.08688)"><g id="g102"><path style="fill:none;stroke:#000;stroke-width:.31879;stroke-linecap:round;stroke-linejoin:round;stroke-miterlimit:10;stroke-dasharray:none;stroke-opacity:1" id="path104" d="M -1.19551,1.59401 C -1.09587,0.99626 0,0.09961 0.29886,0 0,-0.09961 -1.09587,-0.99626 -1.19551,-1.59401"/></g></g><path style="fill:none;stroke:#000;stroke-width:.3985;stroke-linecap:butt;stroke-linejoin:miter;stroke-miterlimit:10;stroke-dasharray:none;stroke-opacity:1" id="path106" d="M 14.71307,25.48376 4.68922,8.12187"/><g id="g108" transform="matrix(-0.49998,-0.86601,0.86601,-0.49998,4.68924,8.12189)"><g id="g110"><path style="fill:none;stroke:#000;stroke-width:.31879;stroke-linecap:round;stroke-linejoin:round;stroke-miterlimit:10;stroke-dasharray:none;stroke-opacity:1" id="path112" d="M -1.19551,1.59401 C -1.09587,0.99626 0,0.09961 0.29886,0 0,-0.09961 -1.09587,-0.99626 -1.19551,-1.59401"/></g></g></g></g></g></g></g></g></svg>