<?xml version="1.0" encoding="UTF-8" standalone="no"?>
<svg
   xmlns:dc="http://purl.org/dc/elements/1.1/"
   xmlns:cc="http://creativecommons.org/ns#"
   xmlns:rdf="http://www.w3.org/1999/02/22-rdf-syntax-ns#"
   xmlns:svg="http://www.w3.org/2000/svg"
   xmlns="http://www.w3.org/2000/svg"
   xmlns:sodipodi="http://sodipodi.sourceforge.net/DTD/sodipodi-0.dtd"
   xmlns:inkscape="http://www.inkscape.org/namespaces/inkscape"
   version="1.1"
   id="svg10"
   xml:space="preserve"
   width="74.175758"
   height="67.392769"
   viewBox="0 0 74.175758 67.392769"
   sodipodi:docname="node.svg"
   inkscape:version="1.0.2 (e86c8708, 2021-01-15)"><metadata
     id="metadata16"><rdf:RDF><cc:Work
         rdf:about=""><dc:format>image/svg+xml</dc:format><dc:type
           rdf:resource="http://purl.org/dc/dcmitype/StillImage" /><dc:title></dc:title></cc:Work></rdf:RDF></metadata><defs
     id="defs14" /><sodipodi:namedview
     pagecolor="#ffffff"
     bordercolor="#666666"
     borderopacity="1"
     objecttolerance="10"
     gridtolerance="10"
     guidetolerance="10"
     inkscape:pageopacity="0"
     inkscape:pageshadow="2"
     inkscape:window-width="1440"
     inkscape:window-height="847"
     id="namedview12"
     showgrid="false"
     inkscape:zoom="9.4818378"
     inkscape:cx="25.432601"
     inkscape:cy="45.351504"
     inkscape:window-x="0"
     inkscape:window-y="25"
     inkscape:window-maximized="0"
     inkscape:current-layer="g18" /><g
     id="g18"
     inkscape:groupmode="layer"
     inkscape:label="node"
     transform="matrix(1.3333333,0,0,-1.3333333,-11.654733,79.047505)"><g
       id="g20"
       transform="translate(8.741,8.741)"><g
         id="g22"><g
           id="g24"
           transform="translate(8.741,8.741)"><g
             id="g26"><g
               id="g28"><g
                 id="g30"><g
                   id="g32"><path
                     d="m 8.74095,0 c 0,4.82755 -3.9134,8.74095 -8.74095,8.74095 -4.82755,0 -8.74095,-3.9134 -8.74095,-8.74095 0,-4.82755 3.9134,-8.74095 8.74095,-8.74095 4.82755,0 8.74095,3.9134 8.74095,8.74095 z"
                     style="fill:#d9d9d9;fill-opacity:1;fill-rule:nonzero;stroke:none"
                     id="path34" /></g><g
                   id="g36"
                   transform="matrix(0.9,0,0,0.9,-3.363,-3.064)"><g
                     id="g38"><g
                       id="g40"
                       transform="translate(-14.119,-14.418)"><text
                         transform="matrix(1,0,0,-1,14.119,14.418)"
                         style="font-variant:normal;font-weight:normal;font-size:9.9626px;font-family:CMR10;-inkscape-font-specification:CMR10;writing-mode:lr-tb;fill:#000000;fill-opacity:1;fill-rule:nonzero;stroke:none"
                         id="text44"><tspan
                           x="0"
                           y="0"
                           id="tspan42">A</tspan></text><g
                         id="g46"
                         transform="translate(14.119,14.418)" /></g></g><g
                     id="g48"
                     transform="translate(3.363,3.064)" /></g></g><g
                 id="g50"><g
                   id="g52"><path
                     d="m 46.89087,0 c 0,4.76237 -3.86057,8.62296 -8.62296,8.62296 -4.76237,0 -8.62295,-3.86059 -8.62295,-8.62296 0,-4.76237 3.86058,-8.62296 8.62295,-8.62296 4.76239,0 8.62296,3.86059 8.62296,8.62296 z"
                     style="fill:#d9d9d9;fill-opacity:1;fill-rule:nonzero;stroke:none"
                     id="path54" /></g><g
                   id="g56"
                   transform="matrix(0.9,0,0,0.9,35.092,-3.064)"><g
                     id="g58"><g
                       id="g60"
                       transform="translate(-52.574,-14.418)"><text
                         transform="matrix(1,0,0,-1,52.574,14.418)"
                         style="font-variant:normal;font-weight:normal;font-size:9.9626px;font-family:CMR10;-inkscape-font-specification:CMR10;writing-mode:lr-tb;fill:#000000;fill-opacity:1;fill-rule:nonzero;stroke:none"
                         id="text64"><tspan
                           x="0"
                           y="0"
                           id="tspan62">B</tspan></text><g
                         id="g66"
                         transform="translate(52.574,14.418)" /></g></g><g
                     id="g68"
                     transform="translate(-35.092,3.064)" /></g></g><g
                 id="g70"><g
                   id="g72"><path
                     d="m 27.79652,33.14107 c 0,4.78425 -3.87831,8.66256 -8.66258,8.66256 -4.78425,0 -8.66257,-3.87831 -8.66257,-8.66256 0,-4.78426 3.87832,-8.66258 8.66257,-8.66258 4.78427,0 8.66258,3.87832 8.66258,8.66258 z"
                     style="fill:#d9d9d9;fill-opacity:1;fill-rule:nonzero;stroke:none"
                     id="path74" /></g><g
                   id="g76"
                   transform="matrix(0.9,0,0,0.9,15.896,30.077)"><g
                     id="g78"><g
                       id="g80"
                       transform="translate(-33.378,-47.559)"><text
                         transform="matrix(1,0,0,-1,33.378,47.559)"
                         style="font-variant:normal;font-weight:normal;font-size:9.9626px;font-family:CMR10;-inkscape-font-specification:CMR10;writing-mode:lr-tb;fill:#000000;fill-opacity:1;fill-rule:nonzero;stroke:none"
                         id="text84"><tspan
                           x="0"
                           y="0"
                           id="tspan82">C</tspan></text><g
                         id="g86"
                         transform="translate(33.378,47.559)" /></g></g><g
                     id="g88"
                     transform="translate(-15.896,-30.077)" /></g></g><path
                 d="M 8.92023,0 H 29.00725"
                 style="fill:none;stroke:#000000;stroke-width:0.3985;stroke-linecap:butt;stroke-linejoin:miter;stroke-miterlimit:10;stroke-dasharray:none;stroke-opacity:1"
                 id="path90" /><g
                 id="g92"
                 transform="translate(29.00725)"><g
                   id="g94"><path
                     d="M -1.19551,1.59401 C -1.09587,0.99626 0,0.09961 0.29886,0 0,-0.09961 -1.09587,-0.99626 -1.19551,-1.59401"
                     style="fill:none;stroke:#000000;stroke-width:0.31879;stroke-linecap:round;stroke-linejoin:round;stroke-miterlimit:10;stroke-dasharray:none;stroke-opacity:1"
                     id="path96" /></g></g><path
                 d="M 33.86665,7.62283 23.78378,25.0869"
                 style="fill:none;stroke:#000000;stroke-width:0.3985;stroke-linecap:butt;stroke-linejoin:miter;stroke-miterlimit:10;stroke-dasharray:none;stroke-opacity:1"
                 id="path98" /><g
                 id="g100"
                 transform="matrix(-0.49998,0.86601,-0.86601,-0.49998,23.7838,25.08688)"><g
                   id="g102"><path
                     d="M -1.19551,1.59401 C -1.09587,0.99626 0,0.09961 0.29886,0 0,-0.09961 -1.09587,-0.99626 -1.19551,-1.59401"
                     style="fill:none;stroke:#000000;stroke-width:0.31879;stroke-linecap:round;stroke-linejoin:round;stroke-miterlimit:10;stroke-dasharray:none;stroke-opacity:1"
                     id="path104" /></g></g><path
                 d="M 14.71307,25.48376 4.68922,8.12187"
                 style="fill:none;stroke:#000000;stroke-width:0.3985;stroke-linecap:butt;stroke-linejoin:miter;stroke-miterlimit:10;stroke-dasharray:none;stroke-opacity:1"
                 id="path106" /><g
                 id="g108"
                 transform="matrix(-0.49998,-0.86601,0.86601,-0.49998,4.68924,8.12189)"><g
                   id="g110"><path
                     d="M -1.19551,1.59401 C -1.09587,0.99626 0,0.09961 0.29886,0 0,-0.09961 -1.09587,-0.99626 -1.19551,-1.59401"
                     style="fill:none;stroke:#000000;stroke-width:0.31879;stroke-linecap:round;stroke-linejoin:round;stroke-miterlimit:10;stroke-dasharray:none;stroke-opacity:1"
                     id="path112" /></g></g></g></g><g
             id="g114"
             transform="translate(46.89,-8.741)" /></g><g
           id="g116"
           transform="translate(-55.631)" /></g></g></g></svg>
