<?xml version="1.0" encoding="UTF-8" standalone="no"?>
<!-- Created with Inkscape (http://www.inkscape.org/) -->

<svg
   width="68.354675mm"
   height="83.989838mm"
   viewBox="0 0 68.354675 83.989836"
   version="1.1"
   id="svg5"
   inkscape:version="1.1.1 (3bf5ae0d25, 2021-09-20)"
   sodipodi:docname="impurity_cases.svg"
   xmlns:inkscape="http://www.inkscape.org/namespaces/inkscape"
   xmlns:sodipodi="http://sodipodi.sourceforge.net/DTD/sodipodi-0.dtd"
   xmlns="http://www.w3.org/2000/svg"
   xmlns:svg="http://www.w3.org/2000/svg">
  <sodipodi:namedview
     id="namedview7"
     pagecolor="#ffffff"
     bordercolor="#999999"
     borderopacity="1"
     inkscape:pageshadow="0"
     inkscape:pageopacity="0"
     inkscape:pagecheckerboard="0"
     inkscape:document-units="mm"
     showgrid="false"
     inkscape:zoom="1.0850589"
     inkscape:cx="270.49222"
     inkscape:cy="235.93189"
     inkscape:window-width="1440"
     inkscape:window-height="837"
     inkscape:window-x="-8"
     inkscape:window-y="-8"
     inkscape:window-maximized="1"
     inkscape:current-layer="g9858"
     inkscape:snap-global="false" />
  <defs
     id="defs2">
    <marker
       style="overflow:visible"
       id="Arrow1Mend"
       refX="0"
       refY="0"
       orient="auto"
       inkscape:stockid="Arrow1Mend"
       inkscape:isstock="true">
      <path
         transform="matrix(-0.4,0,0,-0.4,-4,0)"
         style="fill:context-stroke;fill-rule:evenodd;stroke:context-stroke;stroke-width:1pt"
         d="M 0,0 5,-5 -12.5,0 5,5 Z"
         id="path1229" />
    </marker>
    <marker
       style="overflow:visible"
       id="Arrow2Lend"
       refX="0"
       refY="0"
       orient="auto"
       inkscape:stockid="Arrow2Lend"
       inkscape:isstock="true">
      <path
         transform="matrix(-1.1,0,0,-1.1,-1.1,0)"
         d="M 8.7185878,4.0337352 -2.2072895,0.01601326 8.7185884,-4.0017078 c -1.7454984,2.3720609 -1.7354408,5.6174519 -6e-7,8.035443 z"
         style="fill:context-stroke;fill-rule:evenodd;stroke:context-stroke;stroke-width:0.625;stroke-linejoin:round"
         id="path1241" />
    </marker>
    <marker
       style="overflow:visible"
       id="Arrow1Lstart"
       refX="0"
       refY="0"
       orient="auto"
       inkscape:stockid="Arrow1Lstart"
       inkscape:isstock="true">
      <path
         transform="matrix(0.8,0,0,0.8,10,0)"
         style="fill:context-stroke;fill-rule:evenodd;stroke:context-stroke;stroke-width:1pt"
         d="M 0,0 5,-5 -12.5,0 5,5 Z"
         id="path1220" />
    </marker>
    <marker
       style="overflow:visible"
       id="Arrow2Lend-0"
       refX="0"
       refY="0"
       orient="auto"
       inkscape:stockid="Arrow2Lend"
       inkscape:isstock="true">
      <path
         transform="matrix(-1.1,0,0,-1.1,-1.1,0)"
         d="M 8.7185878,4.0337352 -2.2072895,0.01601326 8.7185884,-4.0017078 c -1.7454984,2.3720609 -1.7354408,5.6174519 -6e-7,8.035443 z"
         style="fill:context-stroke;fill-rule:evenodd;stroke:context-stroke;stroke-width:0.625;stroke-linejoin:round"
         id="path1241-3" />
    </marker>
    <marker
       style="overflow:visible"
       id="marker1691"
       refX="0"
       refY="0"
       orient="auto"
       inkscape:stockid="Arrow2Lend"
       inkscape:isstock="true">
      <path
         transform="matrix(-1.1,0,0,-1.1,-1.1,0)"
         d="M 8.7185878,4.0337352 -2.2072895,0.01601326 8.7185884,-4.0017078 c -1.7454984,2.3720609 -1.7354408,5.6174519 -6e-7,8.035443 z"
         style="fill:context-stroke;fill-rule:evenodd;stroke:context-stroke;stroke-width:0.625;stroke-linejoin:round"
         id="path1689" />
    </marker>
    <marker
       style="overflow:visible"
       id="Arrow2Lend-0-6"
       refX="0"
       refY="0"
       orient="auto"
       inkscape:stockid="Arrow2Lend"
       inkscape:isstock="true">
      <path
         transform="matrix(-1.1,0,0,-1.1,-1.1,0)"
         d="M 8.7185878,4.0337352 -2.2072895,0.01601326 8.7185884,-4.0017078 c -1.7454984,2.3720609 -1.7354408,5.6174519 -6e-7,8.035443 z"
         style="fill:context-stroke;fill-rule:evenodd;stroke:context-stroke;stroke-width:0.625;stroke-linejoin:round"
         id="path1241-3-9" />
    </marker>
    <marker
       style="overflow:visible"
       id="marker1768"
       refX="0"
       refY="0"
       orient="auto"
       inkscape:stockid="Arrow2Lend"
       inkscape:isstock="true">
      <path
         transform="matrix(-1.1,0,0,-1.1,-1.1,0)"
         d="M 8.7185878,4.0337352 -2.2072895,0.01601326 8.7185884,-4.0017078 c -1.7454984,2.3720609 -1.7354408,5.6174519 -6e-7,8.035443 z"
         style="fill:context-stroke;fill-rule:evenodd;stroke:context-stroke;stroke-width:0.625;stroke-linejoin:round"
         id="path1766" />
    </marker>
  </defs>
  <g
     inkscape:label="图层 1"
     inkscape:groupmode="layer"
     id="layer1"
     transform="translate(-3.1871629,-71.987574)">
    <g
       id="g1539"
       transform="translate(-64.141203,-11.035046)">
      <ellipse
         style="fill:none;fill-opacity:0.4;stroke:#00ff00;stroke-width:0.405067;stroke-miterlimit:4;stroke-dasharray:none"
         id="path33"
         cx="86.286911"
         cy="112.39403"
         rx="10.892717"
         ry="7.8773241" />
      <ellipse
         style="fill:none;fill-opacity:0.4;stroke:#00ff00;stroke-width:0.405067;stroke-miterlimit:4;stroke-dasharray:none"
         id="path33-2"
         cx="111.56706"
         cy="112.39403"
         rx="10.892717"
         ry="7.8773241" />
      <ellipse
         style="fill:none;fill-opacity:0.4;stroke:#00ff00;stroke-width:0.405067;stroke-miterlimit:4;stroke-dasharray:none"
         id="path33-2-6"
         cx="98.808411"
         cy="91.102478"
         rx="10.892717"
         ry="7.8773241" />
      <path
         style="fill:none;fill-rule:evenodd;stroke:#000000;stroke-width:0.107174px;stroke-linecap:butt;stroke-linejoin:miter;stroke-opacity:1;marker-end:url(#Arrow2Lend)"
         d="m 94.545368,98.351352 -3.995415,6.793798"
         id="path1136"
         inkscape:connector-type="polyline"
         inkscape:connector-curvature="0"
         inkscape:connection-start="#path33-2-6"
         inkscape:connection-end="#path33" />
      <path
         style="fill:none;fill-rule:evenodd;stroke:#000000;stroke-width:0.107174px;stroke-linecap:butt;stroke-linejoin:miter;stroke-opacity:1;marker-end:url(#Arrow2Lend)"
         d="m 103.13952,98.330195 4.09644,6.836115"
         id="path1138"
         inkscape:connector-type="polyline"
         inkscape:connector-curvature="0"
         inkscape:connection-start="#path33-2-6"
         inkscape:connection-end="#path33-2" />
    </g>
    <text
       xml:space="preserve"
       style="font-size:6.35px;line-height:1.25;font-family:sans-serif;stroke-width:0.264583"
       x="17.845737"
       y="102.85007"
       id="text2585"><tspan
         sodipodi:role="line"
         id="tspan2583"
         style="font-style:normal;font-variant:normal;font-weight:normal;font-stretch:normal;font-family:'Times New Roman';-inkscape-font-specification:'Times New Roman, ';stroke-width:0.264583"
         x="17.845737"
         y="102.85007">0, 1</tspan></text>
    <text
       xml:space="preserve"
       style="font-size:6.35px;line-height:1.25;font-family:sans-serif;stroke-width:0.264583"
       x="43.012775"
       y="102.85007"
       id="text2585-7"><tspan
         sodipodi:role="line"
         id="tspan2583-1"
         style="font-style:normal;font-variant:normal;font-weight:normal;font-stretch:normal;font-family:'Times New Roman';-inkscape-font-specification:'Times New Roman, ';stroke-width:0.264583"
         x="43.012775"
         y="102.85007">0, 1</tspan></text>
    <text
       xml:space="preserve"
       style="font-size:6.35px;line-height:1.25;font-family:sans-serif;stroke-width:0.264583"
       x="23.730259"
       y="91.40258"
       id="text7393"><tspan
         sodipodi:role="line"
         id="tspan7391"
         style="font-style:normal;font-variant:normal;font-weight:normal;font-stretch:normal;font-family:Times;-inkscape-font-specification:Times;stroke-width:0.264583"
         x="23.730259"
         y="91.40258">T</tspan></text>
    <text
       xml:space="preserve"
       style="font-size:6.35px;line-height:1.25;font-family:sans-serif;stroke-width:0.264583"
       x="42.500393"
       y="91.40258"
       id="text7393-8"><tspan
         sodipodi:role="line"
         id="tspan7391-6"
         style="font-style:normal;font-variant:normal;font-weight:normal;font-stretch:normal;font-family:Times;-inkscape-font-specification:Times;stroke-width:0.264583"
         x="42.500393"
         y="91.40258">F</tspan></text>
    <g
       id="g9858"
       inkscape:groupmode="layer"
       inkscape:label="inkscape-clipboard-import"
       transform="matrix(0.35277777,0,0,-0.35277777,18.116176,130.15643)">
      <text
         xml:space="preserve"
         style="font-size:18px;line-height:1.25;font-family:sans-serif;stroke-width:0.75"
         x="19.259541"
         y="-39.314129"
         id="text10840"
         transform="scale(1,-1)"><tspan
           sodipodi:role="line"
           id="tspan10838"
           style="font-style:normal;font-variant:normal;font-weight:normal;font-stretch:normal;font-family:Times;-inkscape-font-specification:Times;stroke-width:0.75"
           x="19.259541"
           y="-39.314129">Gini: 0.5</tspan></text>
      <g
         id="g17056"
         inkscape:groupmode="layer"
         inkscape:label="inkscape-clipboard-import"
         transform="translate(159.66875,1.3824079)">
        <g
           id="g17058"
           transform="matrix(0.144,0,0,0.144,-164.62393,-2.3518118)">
          <path
             d="m 21.2031,131.578 c 0,2.375 0,2.578 -2.2812,2.578 -6.1563,-6.359 -14.90627,-6.359 -18.07815,-6.359 v -3.078 c 1.98438,0 7.84375,0 13.01565,2.578 V 75.8438 c 0,-3.5782 -0.2969,-4.7657 -9.25002,-4.7657 H 1.4375 V 68 c 3.46875,0.2969 12.125,0.2969 16.0938,0.2969 3.9687,0 12.6093,0 16.0937,-0.2969 v 3.0781 h -3.1875 c -8.9375,0 -9.2344,1.0938 -9.2344,4.7657 v 55.7342"
             style="fill:#000000;fill-opacity:1;fill-rule:nonzero;stroke:none"
             id="path17060" />
          <path
             d="m 129.469,90.8438 c 1.687,0 3.469,0 3.469,1.9843 0,2 -1.782,2 -3.469,2 H 75.7188 c -1.6875,0 -3.4688,0 -3.4688,-2 0,-1.9843 1.7813,-1.9843 3.4688,-1.9843 h 53.7502"
             style="fill:#000000;fill-opacity:1;fill-rule:nonzero;stroke:none"
             id="path17062" />
          <path
             d="m 195.875,44.1563 c 0,0.2968 0,0.5 -1.687,2.1875 -12.407,12.5156 -15.594,31.2968 -15.594,46.4843 0,17.2969 3.781,34.5779 16,46.9999 1.281,1.188 1.281,1.391 1.281,1.688 0,0.687 -0.391,0.984 -0.984,0.984 -1,0 -9.938,-6.75 -15.797,-19.375 -5.063,-10.922 -6.266,-21.953 -6.266,-30.2969 0,-7.7343 1.094,-19.7656 6.563,-30.9843 5.953,-12.2188 14.5,-18.6719 15.5,-18.6719 0.593,0 0.984,0.2969 0.984,0.9844"
             style="fill:#000000;fill-opacity:1;fill-rule:nonzero;stroke:none"
             id="path17064" />
          <path
             d="m 243.203,198.578 c 0,2.375 0,2.578 -2.281,2.578 -6.156,-6.359 -14.906,-6.359 -18.078,-6.359 v -3.078 c 1.984,0 7.844,0 13.015,2.578 v -51.453 c 0,-3.578 -0.296,-4.766 -9.25,-4.766 h -3.171 V 135 c 3.468,0.297 12.125,0.297 16.093,0.297 3.969,0 12.61,0 16.094,-0.297 v 3.078 h -3.187 c -8.938,0 -9.235,1.094 -9.235,4.766 v 55.734"
             style="fill:#000000;fill-opacity:1;fill-rule:nonzero;stroke:none"
             id="path17066" />
          <g
             id="g17068"
             transform="matrix(50.4,0,0,-4.8,213.48,95.6801)">
            <rect
               x="0"
               y="0"
               width="1"
               height="1"
               transform="matrix(1,0,0,-1,0,1)"
               style="fill:#000000;fill-opacity:1;fill-rule:nonzero"
               id="rect17070" />
          </g>
          <path
             d="M 226.609,7.65625 237.141,17.875 c 15.5,13.7188 21.468,19.0781 21.468,29.0156 0,11.3282 -8.953,19.2657 -21.062,19.2657 -11.234,0 -18.578,-9.1407 -18.578,-17.9844 0,-5.5625 4.969,-5.5625 5.265,-5.5625 1.688,0 5.157,1.2031 5.157,5.2656 0,2.5938 -1.782,5.1719 -5.266,5.1719 -0.781,0 -0.984,0 -1.281,-0.0938 2.281,6.4532 7.64,10.125 13.406,10.125 9.047,0 13.313,-8.0468 13.313,-16.1875 0,-7.9531 -4.969,-15.7968 -10.438,-21.9531 L 220.063,3.67188 C 218.969,2.57813 218.969,2.39063 218.969,0 h 36.859 l 2.781,17.2813 h -2.484 c -0.5,-2.9844 -1.203,-7.3438 -2.187,-8.8438 -0.704,-0.78125 -7.25,-0.78125 -9.438,-0.78125 h -17.891"
             style="fill:#000000;fill-opacity:1;fill-rule:nonzero;stroke:none"
             id="path17072" />
          <path
             d="m 304.703,92.8281 c 0,7.7499 -1.094,19.7809 -6.547,30.9999 -5.968,12.219 -14.5,18.672 -15.5,18.672 -0.593,0 -1,-0.391 -1,-0.984 0,-0.297 0,-0.5 1.891,-2.297 9.734,-9.828 15.406,-25.625 15.406,-46.3909 0,-16.9843 -3.687,-34.4687 -16,-46.9843 -1.297,-1.1875 -1.297,-1.3907 -1.297,-1.6875 0,-0.5938 0.407,-0.9844 1,-0.9844 1,0 9.938,6.75 15.797,19.3594 5.063,10.9375 6.25,21.9531 6.25,30.2968"
             style="fill:#000000;fill-opacity:1;fill-rule:nonzero;stroke:none"
             id="path17074" />
          <path
             d="m 349.5,121.797 h -2.391 c -0.203,-1.547 -0.906,-5.703 -1.828,-6.406 -0.562,-0.422 -5.968,-0.422 -6.953,-0.422 h -12.937 c 7.375,6.547 9.843,8.515 14.062,11.812 5.203,4.157 10.047,8.516 10.047,15.188 0,8.515 -7.453,13.703 -16.453,13.703 -8.719,0 -14.625,-6.109 -14.625,-12.578 0,-3.578 3.031,-3.938 3.734,-3.938 1.688,0 3.719,1.203 3.719,3.735 0,1.265 -0.484,3.718 -4.141,3.718 2.172,5 6.954,6.547 10.266,6.547 7.031,0 10.688,-5.484 10.688,-11.187 0,-6.11 -4.36,-10.969 -6.61,-13.5 l -16.953,-16.735 c -0.703,-0.625 -0.703,-0.765 -0.703,-2.734 h 28.969 l 2.109,12.797"
             style="fill:#000000;fill-opacity:1;fill-rule:nonzero;stroke:none"
             id="path17076" />
          <path
             d="m 447.469,90.8438 c 1.687,0 3.469,0 3.469,1.9843 0,2 -1.782,2 -3.469,2 h -53.75 c -1.688,0 -3.469,0 -3.469,-2 0,-1.9843 1.781,-1.9843 3.469,-1.9843 h 53.75"
             style="fill:#000000;fill-opacity:1;fill-rule:nonzero;stroke:none"
             id="path17078" />
          <path
             d="m 513.875,44.1563 c 0,0.2968 0,0.5 -1.687,2.1875 -12.407,12.5156 -15.594,31.2968 -15.594,46.4843 0,17.2969 3.781,34.5779 16,46.9999 1.281,1.188 1.281,1.391 1.281,1.688 0,0.687 -0.391,0.984 -0.984,0.984 -1,0 -9.938,-6.75 -15.797,-19.375 -5.063,-10.922 -6.266,-21.953 -6.266,-30.2969 0,-7.7343 1.094,-19.7656 6.563,-30.9843 5.953,-12.2188 14.5,-18.6719 15.5,-18.6719 0.593,0 0.984,0.2969 0.984,0.9844"
             style="fill:#000000;fill-opacity:1;fill-rule:nonzero;stroke:none"
             id="path17080" />
          <path
             d="m 561.203,198.578 c 0,2.375 0,2.578 -2.281,2.578 -6.156,-6.359 -14.906,-6.359 -18.078,-6.359 v -3.078 c 1.984,0 7.844,0 13.015,2.578 v -51.453 c 0,-3.578 -0.296,-4.766 -9.25,-4.766 h -3.171 V 135 c 3.468,0.297 12.125,0.297 16.093,0.297 3.969,0 12.61,0 16.094,-0.297 v 3.078 h -3.187 c -8.938,0 -9.235,1.094 -9.235,4.766 v 55.734"
             style="fill:#000000;fill-opacity:1;fill-rule:nonzero;stroke:none"
             id="path17082" />
          <g
             id="g17084"
             transform="matrix(50.4,0,0,-4.8,531.48,95.6801)">
            <rect
               x="0"
               y="0"
               width="1"
               height="1"
               transform="matrix(1,0,0,-1,0,1)"
               style="fill:#000000;fill-opacity:1;fill-rule:nonzero"
               id="rect17086" />
          </g>
          <path
             d="M 544.609,7.65625 555.141,17.875 c 15.5,13.7188 21.468,19.0781 21.468,29.0156 0,11.3282 -8.953,19.2657 -21.062,19.2657 -11.234,0 -18.578,-9.1407 -18.578,-17.9844 0,-5.5625 4.969,-5.5625 5.265,-5.5625 1.688,0 5.157,1.2031 5.157,5.2656 0,2.5938 -1.782,5.1719 -5.266,5.1719 -0.781,0 -0.984,0 -1.281,-0.0938 2.281,6.4532 7.64,10.125 13.406,10.125 9.047,0 13.313,-8.0468 13.313,-16.1875 0,-7.9531 -4.969,-15.7968 -10.438,-21.9531 L 538.063,3.67188 C 536.969,2.57813 536.969,2.39063 536.969,0 h 36.859 l 2.781,17.2813 h -2.484 c -0.5,-2.9844 -1.203,-7.3438 -2.187,-8.8438 -0.704,-0.78125 -7.25,-0.78125 -9.438,-0.78125 h -17.891"
             style="fill:#000000;fill-opacity:1;fill-rule:nonzero;stroke:none"
             id="path17088" />
          <path
             d="m 621.703,92.8281 c 0,7.7499 -1.094,19.7809 -6.547,30.9999 -5.968,12.219 -14.5,18.672 -15.5,18.672 -0.593,0 -1,-0.391 -1,-0.984 0,-0.297 0,-0.5 1.891,-2.297 9.734,-9.828 15.406,-25.625 15.406,-46.3909 0,-16.9843 -3.687,-34.4687 -16,-46.9843 -1.297,-1.1875 -1.297,-1.3907 -1.297,-1.6875 0,-0.5938 0.407,-0.9844 1,-0.9844 1,0 9.938,6.75 15.797,19.3594 5.063,10.9375 6.25,21.9531 6.25,30.2968"
             style="fill:#000000;fill-opacity:1;fill-rule:nonzero;stroke:none"
             id="path17090" />
          <path
             d="m 666.5,121.797 h -2.391 c -0.203,-1.547 -0.906,-5.703 -1.828,-6.406 -0.562,-0.422 -5.968,-0.422 -6.953,-0.422 h -12.937 c 7.375,6.547 9.843,8.515 14.062,11.812 5.203,4.157 10.047,8.516 10.047,15.188 0,8.515 -7.453,13.703 -16.453,13.703 -8.719,0 -14.625,-6.109 -14.625,-12.578 0,-3.578 3.031,-3.938 3.734,-3.938 1.688,0 3.719,1.203 3.719,3.735 0,1.265 -0.484,3.718 -4.141,3.718 2.172,5 6.954,6.547 10.266,6.547 7.031,0 10.688,-5.484 10.688,-11.187 0,-6.11 -4.36,-10.969 -6.61,-13.5 l -16.953,-16.735 c -0.703,-0.625 -0.703,-0.765 -0.703,-2.734 h 28.969 l 2.109,12.797"
             style="fill:#000000;fill-opacity:1;fill-rule:nonzero;stroke:none"
             id="path17092" />
          <path
             d="m 772.25,100.484 c 1.484,0 3.375,0 3.375,1.985 0,1.984 -1.891,1.984 -3.281,1.984 h -59.5 c -1.391,0 -3.281,0 -3.281,-1.984 0,-1.985 1.89,-1.985 3.375,-1.985 z m 0.094,-19.2652 c 1.39,0 3.281,0 3.281,1.9843 0,1.9844 -1.891,1.9844 -3.375,1.9844 h -59.312 c -1.485,0 -3.375,0 -3.375,-1.9844 0,-1.9843 1.89,-1.9843 3.281,-1.9843 h 59.5"
             style="fill:#000000;fill-opacity:1;fill-rule:nonzero;stroke:none"
             id="path17094" />
          <path
             d="m 855.688,99.7813 c 0,7.9527 -0.485,15.9067 -3.969,23.2497 -4.563,9.532 -12.719,11.125 -16.891,11.125 -5.953,0 -13.203,-2.578 -17.281,-11.812 -3.172,-6.86 -3.672,-14.61 -3.672,-22.5627 0,-7.4375 0.391,-16.3907 4.469,-23.9375 4.265,-8.0469 11.531,-10.0313 16.39,-10.0313 5.36,0 12.922,2.0938 17.282,11.5313 3.187,6.8437 3.672,14.5937 3.672,22.4375 z M 834.734,68 c -3.875,0 -9.734,2.4844 -11.515,12.0156 -1.094,5.9688 -1.094,15.1094 -1.094,20.9684 0,6.36 0,12.907 0.781,18.282 1.891,11.812 9.344,12.703 11.828,12.703 3.282,0 9.829,-1.781 11.719,-11.625 1,-5.563 1,-13.11 1,-19.36 0,-7.4527 0,-14.2027 -1.094,-20.5621 C 844.875,70.9844 839.203,68 834.734,68"
             style="fill:#000000;fill-opacity:1;fill-rule:nonzero;stroke:none"
             id="path17096" />
          <path
             d="m 879.078,73.2656 c 0,2.875 -2.39,5.2657 -5.265,5.2657 -2.891,0 -5.266,-2.3907 -5.266,-5.2657 0,-2.875 2.375,-5.2656 5.266,-5.2656 2.875,0 5.265,2.3906 5.265,5.2656"
             style="fill:#000000;fill-opacity:1;fill-rule:nonzero;stroke:none"
             id="path17098" />
          <path
             d="m 932.609,87.9688 c 0,11.8125 -8.156,21.7502 -18.875,21.7502 -4.781,0 -9.046,-1.594 -12.625,-5.063 v 19.375 c 1.985,-0.593 5.266,-1.297 8.454,-1.297 12.218,0 19.171,9.047 19.171,10.329 0,0.593 -0.296,1.093 -1,1.093 -0.093,0 -0.296,0 -0.796,-0.297 -1.985,-0.89 -6.86,-2.875 -13.5,-2.875 -3.985,0 -8.547,0.688 -13.219,2.782 -0.797,0.297 -1,0.297 -1.188,0.297 -1,0 -1,-0.797 -1,-2.391 v -29.406 c 0,-1.782 0,-2.5785 1.391,-2.5785 0.703,0 0.891,0.2969 1.297,0.8905 1.094,1.594 4.765,6.953 12.812,6.953 5.157,0 7.641,-4.562 8.438,-6.359 1.594,-3.672 1.797,-7.547 1.797,-12.5157 0,-3.4688 0,-9.4375 -2.391,-13.6094 -2.375,-3.875 -6.062,-6.4531 -10.625,-6.4531 -7.25,0 -12.922,5.2656 -14.609,11.125 0.297,-0.0938 0.593,-0.2032 1.687,-0.2032 3.281,0 4.969,2.4844 4.969,4.875 0,2.3907 -1.688,4.875 -4.969,4.875 -1.39,0 -4.859,-0.7031 -4.859,-5.2656 0,-8.5469 6.859,-18.1875 17.984,-18.1875 11.516,0 21.656,9.5313 21.656,22.1563"
             style="fill:#000000;fill-opacity:1;fill-rule:nonzero;stroke:none"
             id="path17100" />
        </g>
        <text
           xml:space="preserve"
           style="font-size:18px;line-height:1.25;font-family:sans-serif;stroke-width:0.75"
           x="-183.84479"
           y="-7.2929778"
           id="text17554"
           transform="scale(1,-1)"><tspan
             sodipodi:role="line"
             id="tspan17552"
             style="font-style:normal;font-variant:normal;font-weight:normal;font-stretch:normal;font-family:Times;-inkscape-font-specification:Times;stroke-width:0.75"
             x="-183.84479"
             y="-7.2929778">T:</tspan></text>
        <text
           xml:space="preserve"
           style="font-size:18px;line-height:1.25;font-family:sans-serif;stroke-width:0.75"
           x="-184.01231"
           y="31.720886"
           id="text17554-5"
           transform="scale(1,-1)"><tspan
             sodipodi:role="line"
             id="tspan17552-5"
             style="font-style:normal;font-variant:normal;font-weight:normal;font-stretch:normal;font-family:Times;-inkscape-font-specification:Times;stroke-width:0.75"
             x="-184.01231"
             y="31.720886">F:</tspan></text>
        <text
           xml:space="preserve"
           style="font-size:18px;line-height:1.25;font-family:sans-serif;stroke-width:0.75"
           x="-202.53214"
           y="66.619667"
           id="text17554-5-9"
           transform="scale(1,-1)"><tspan
             sodipodi:role="line"
             id="tspan17552-5-6"
             style="font-style:normal;font-variant:normal;font-weight:normal;font-stretch:normal;font-family:Times;-inkscape-font-specification:Times;stroke-width:0.75"
             x="-202.53214"
             y="66.619667">Total:</tspan></text>
        <g
           id="g19304"
           inkscape:groupmode="layer"
           inkscape:label="inkscape-clipboard-import"
           transform="matrix(1.44,0,0,1.44,-195.11112,-101.19437)">
          <g
             id="g19306"
             transform="matrix(0.1,0,0,0.1,27.820388,18.48515)">
            <path
               d="m 42.6875,99.7813 c 0,7.9527 -0.4844,15.9067 -3.9687,23.2497 C 34.1563,132.563 26,134.156 21.8281,134.156 15.875,134.156 8.625,131.578 4.54688,122.344 1.375,115.484 0.875,107.734 0.875,99.7813 0.875,92.3438 1.26563,83.3906 5.34375,75.8438 9.60938,67.7969 16.875,65.8125 21.7344,65.8125 c 5.3594,0 12.9219,2.0938 17.2812,11.5313 3.1875,6.8437 3.6719,14.5937 3.6719,22.4375 z M 21.7344,68 C 17.8594,68 12,70.4844 10.2188,80.0156 9.125,85.9844 9.125,95.125 9.125,100.984 c 0,6.36 0,12.907 0.78125,18.282 1.89065,11.812 9.34375,12.703 11.82815,12.703 3.2812,0 9.8281,-1.781 11.7187,-11.625 1,-5.563 1,-13.11 1,-19.36 0,-7.4527 0,-14.2027 -1.0937,-20.5621 C 31.875,70.9844 26.2031,68 21.7344,68"
               style="fill:#000000;fill-opacity:1;fill-rule:nonzero;stroke:none"
               id="path19308" />
            <path
               d="m 66.0781,73.2656 c 0,2.875 -2.3906,5.2657 -5.2656,5.2657 -2.8906,0 -5.2656,-2.3907 -5.2656,-5.2657 0,-2.875 2.375,-5.2656 5.2656,-5.2656 2.875,0 5.2656,2.3906 5.2656,5.2656"
               style="fill:#000000;fill-opacity:1;fill-rule:nonzero;stroke:none"
               id="path19310" />
            <path
               d="m 119.609,87.9688 c 0,11.8125 -8.156,21.7502 -18.875,21.7502 -4.7809,0 -9.0465,-1.594 -12.6246,-5.063 v 19.375 c 1.9844,-0.593 5.2656,-1.297 8.4531,-1.297 12.2185,0 19.1715,9.047 19.1715,10.329 0,0.593 -0.296,1.093 -1,1.093 -0.093,0 -0.296,0 -0.796,-0.297 -1.985,-0.89 -6.86,-2.875 -13.5,-2.875 -3.9849,0 -8.5474,0.688 -13.2192,2.782 -0.7969,0.297 -1,0.297 -1.1875,0.297 -1,0 -1,-0.797 -1,-2.391 v -29.406 c 0,-1.782 0,-2.5785 1.3906,-2.5785 0.7031,0 0.8906,0.2969 1.2969,0.8905 1.0937,1.594 4.7656,6.953 12.8122,6.953 5.157,0 7.641,-4.562 8.438,-6.359 1.594,-3.672 1.797,-7.547 1.797,-12.5157 0,-3.4688 0,-9.4375 -2.391,-13.6094 -2.375,-3.875 -6.062,-6.4531 -10.625,-6.4531 -7.25,0 -12.9219,5.2656 -14.6094,11.125 0.2969,-0.0938 0.5938,-0.2032 1.6875,-0.2032 3.2813,0 4.9688,2.4844 4.9688,4.875 0,2.3907 -1.6875,4.875 -4.9688,4.875 -1.3906,0 -4.8593,-0.7031 -4.8593,-5.2656 0,-8.5469 6.8593,-18.1875 17.9843,-18.1875 11.5159,0 21.6559,9.5313 21.6559,22.1563"
               style="fill:#000000;fill-opacity:1;fill-rule:nonzero;stroke:none"
               id="path19312" />
            <path
               d="m 184.641,95.6094 -19.86,19.7816 c -1.203,1.187 -1.39,1.39 -2.187,1.39 -1,0 -1.985,-0.906 -1.985,-2 0,-0.687 0.188,-0.89 1.282,-1.984 L 181.766,92.8281 161.891,72.875 c -1.094,-1.0937 -1.282,-1.2969 -1.282,-2 0,-1.0937 0.985,-1.9844 1.985,-1.9844 0.797,0 0.984,0.2032 2.187,1.3907 l 19.766,19.7656 20.562,-20.5625 c 0.188,-0.0938 0.891,-0.5938 1.485,-0.5938 1.187,0 1.984,0.8907 1.984,1.9844 0,0.2031 0,0.6094 -0.297,1.0938 -0.093,0.2031 -15.89,15.7968 -20.859,20.8593 l 18.187,18.1879 c 0.485,0.593 1.985,1.89 2.469,2.484 0.11,0.188 0.5,0.594 0.5,1.281 0,1.094 -0.797,2 -1.984,2 -0.797,0 -1.188,-0.406 -2.281,-1.5 L 184.641,95.6094"
               style="fill:#000000;fill-opacity:1;fill-rule:nonzero;stroke:none"
               id="path19314" />
            <path
               d="m 269.609,142.656 10.532,10.219 c 15.5,13.719 21.468,19.078 21.468,29.016 0,11.328 -8.953,19.265 -21.062,19.265 -11.234,0 -18.578,-9.14 -18.578,-17.984 0,-5.563 4.969,-5.563 5.265,-5.563 1.688,0 5.157,1.204 5.157,5.266 0,2.594 -1.782,5.172 -5.266,5.172 -0.781,0 -0.984,0 -1.281,-0.094 2.281,6.453 7.64,10.125 13.406,10.125 9.047,0 13.313,-8.047 13.313,-16.187 0,-7.953 -4.969,-15.797 -10.438,-21.953 l -19.062,-21.266 c -1.094,-1.094 -1.094,-1.281 -1.094,-3.672 h 36.859 l 2.781,17.281 h -2.484 c -0.5,-2.984 -1.203,-7.343 -2.187,-8.843 -0.704,-0.782 -7.25,-0.782 -9.438,-0.782 h -17.891"
               style="fill:#000000;fill-opacity:1;fill-rule:nonzero;stroke:none"
               id="path19316" />
            <g
               id="g19318"
               transform="matrix(50.4,0,0,-4.8,257.08,95.6801)">
              <rect
                 x="0"
                 y="0"
                 width="1"
                 height="1"
                 transform="matrix(1,0,0,-1,0,1)"
                 style="fill:#000000;fill-opacity:1;fill-rule:nonzero"
                 id="rect19320" />
            </g>
            <path
               d="M 286.203,16.3906 V 7.75 c 0,-3.57812 -0.203,-4.67187 -7.547,-4.67187 h -2.093 V 0 c 4.078,0.296875 9.25,0.296875 13.421,0.296875 4.172,0 9.438,0 13.5,-0.296875 v 3.07813 h -2.078 c -7.359,0 -7.547,1.09375 -7.547,4.67187 v 8.6406 h 9.922 v 3.0782 h -9.922 v 45.2031 c 0,1.9844 0,2.5781 -1.593,2.5781 -0.891,0 -1.188,0 -1.985,-1.1875 l -30.5,-46.5937 v -3.0782 z m 0.594,3.0782 h -24.234 l 24.234,37.0468 z"
               style="fill:#000000;fill-opacity:1;fill-rule:nonzero;stroke:none"
               id="path19322" />
            <path
               d="m 381.625,90.8438 h 27.719 c 1.39,0 3.281,0 3.281,1.9843 0,2 -1.891,2 -3.281,2 h -27.719 v 27.8129 c 0,1.39 0,3.265 -1.984,3.265 -1.985,0 -1.985,-1.875 -1.985,-3.265 V 94.8281 h -27.812 c -1.391,0 -3.281,0 -3.281,-2 0,-1.9843 1.89,-1.9843 3.281,-1.9843 h 27.812 V 63.0313 c 0,-1.3907 0,-3.2813 1.985,-3.2813 1.984,0 1.984,1.8906 1.984,3.2813 v 27.8125"
               style="fill:#000000;fill-opacity:1;fill-rule:nonzero;stroke:none"
               id="path19324" />
            <path
               d="m 486.688,99.7813 c 0,7.9527 -0.485,15.9067 -3.969,23.2497 -4.563,9.532 -12.719,11.125 -16.891,11.125 -5.953,0 -13.203,-2.578 -17.281,-11.812 -3.172,-6.86 -3.672,-14.61 -3.672,-22.5627 0,-7.4375 0.391,-16.3907 4.469,-23.9375 4.265,-8.0469 11.531,-10.0313 16.39,-10.0313 5.36,0 12.922,2.0938 17.282,11.5313 3.187,6.8437 3.672,14.5937 3.672,22.4375 z M 465.734,68 c -3.875,0 -9.734,2.4844 -11.515,12.0156 -1.094,5.9688 -1.094,15.1094 -1.094,20.9684 0,6.36 0,12.907 0.781,18.282 1.891,11.812 9.344,12.703 11.828,12.703 3.282,0 9.829,-1.781 11.719,-11.625 1,-5.563 1,-13.11 1,-19.36 0,-7.4527 0,-14.2027 -1.094,-20.5621 C 475.875,70.9844 470.203,68 465.734,68"
               style="fill:#000000;fill-opacity:1;fill-rule:nonzero;stroke:none"
               id="path19326" />
            <path
               d="m 510.078,73.2656 c 0,2.875 -2.39,5.2657 -5.265,5.2657 -2.891,0 -5.266,-2.3907 -5.266,-5.2657 0,-2.875 2.375,-5.2656 5.266,-5.2656 2.875,0 5.265,2.3906 5.265,5.2656"
               style="fill:#000000;fill-opacity:1;fill-rule:nonzero;stroke:none"
               id="path19328" />
            <path
               d="m 563.609,87.9688 c 0,11.8125 -8.156,21.7502 -18.875,21.7502 -4.781,0 -9.046,-1.594 -12.625,-5.063 v 19.375 c 1.985,-0.593 5.266,-1.297 8.454,-1.297 12.218,0 19.171,9.047 19.171,10.329 0,0.593 -0.296,1.093 -1,1.093 -0.093,0 -0.296,0 -0.796,-0.297 -1.985,-0.89 -6.86,-2.875 -13.5,-2.875 -3.985,0 -8.547,0.688 -13.219,2.782 -0.797,0.297 -1,0.297 -1.188,0.297 -1,0 -1,-0.797 -1,-2.391 v -29.406 c 0,-1.782 0,-2.5785 1.391,-2.5785 0.703,0 0.891,0.2969 1.297,0.8905 1.094,1.594 4.765,6.953 12.812,6.953 5.157,0 7.641,-4.562 8.438,-6.359 1.594,-3.672 1.797,-7.547 1.797,-12.5157 0,-3.4688 0,-9.4375 -2.391,-13.6094 -2.375,-3.875 -6.062,-6.4531 -10.625,-6.4531 -7.25,0 -12.922,5.2656 -14.609,11.125 0.297,-0.0938 0.593,-0.2032 1.687,-0.2032 3.281,0 4.969,2.4844 4.969,4.875 0,2.3907 -1.688,4.875 -4.969,4.875 -1.39,0 -4.859,-0.7031 -4.859,-5.2656 0,-8.5469 6.859,-18.1875 17.984,-18.1875 11.516,0 21.656,9.5313 21.656,22.1563"
               style="fill:#000000;fill-opacity:1;fill-rule:nonzero;stroke:none"
               id="path19330" />
            <path
               d="m 629.641,95.6094 -19.86,19.7816 c -1.203,1.187 -1.39,1.39 -2.187,1.39 -1,0 -1.985,-0.906 -1.985,-2 0,-0.687 0.188,-0.89 1.282,-1.984 L 626.766,92.8281 606.891,72.875 c -1.094,-1.0937 -1.282,-1.2969 -1.282,-2 0,-1.0937 0.985,-1.9844 1.985,-1.9844 0.797,0 0.984,0.2032 2.187,1.3907 l 19.766,19.7656 20.562,-20.5625 c 0.188,-0.0938 0.891,-0.5938 1.485,-0.5938 1.187,0 1.984,0.8907 1.984,1.9844 0,0.2031 0,0.6094 -0.297,1.0938 -0.093,0.2031 -15.89,15.7968 -20.859,20.8593 l 18.187,18.1879 c 0.485,0.593 1.985,1.89 2.469,2.484 0.11,0.188 0.5,0.594 0.5,1.281 0,1.094 -0.797,2 -1.984,2 -0.797,0 -1.188,-0.406 -2.281,-1.5 L 629.641,95.6094"
               style="fill:#000000;fill-opacity:1;fill-rule:nonzero;stroke:none"
               id="path19332" />
            <path
               d="m 714.609,142.656 10.532,10.219 c 15.5,13.719 21.468,19.078 21.468,29.016 0,11.328 -8.953,19.265 -21.062,19.265 -11.234,0 -18.578,-9.14 -18.578,-17.984 0,-5.563 4.969,-5.563 5.265,-5.563 1.688,0 5.157,1.204 5.157,5.266 0,2.594 -1.782,5.172 -5.266,5.172 -0.781,0 -0.984,0 -1.281,-0.094 2.281,6.453 7.64,10.125 13.406,10.125 9.047,0 13.313,-8.047 13.313,-16.187 0,-7.953 -4.969,-15.797 -10.438,-21.953 l -19.062,-21.266 c -1.094,-1.094 -1.094,-1.281 -1.094,-3.672 h 36.859 l 2.781,17.281 h -2.484 c -0.5,-2.984 -1.203,-7.343 -2.187,-8.843 -0.704,-0.782 -7.25,-0.782 -9.438,-0.782 h -17.891"
               style="fill:#000000;fill-opacity:1;fill-rule:nonzero;stroke:none"
               id="path19334" />
            <g
               id="g19336"
               transform="matrix(50.4,0,0,-4.8,702.28,95.6801)">
              <rect
                 x="0"
                 y="0"
                 width="1"
                 height="1"
                 transform="matrix(1,0,0,-1,0,1)"
                 style="fill:#000000;fill-opacity:1;fill-rule:nonzero"
                 id="rect19338" />
            </g>
            <path
               d="M 731.203,16.3906 V 7.75 c 0,-3.57812 -0.203,-4.67187 -7.547,-4.67187 h -2.093 V 0 c 4.078,0.296875 9.25,0.296875 13.421,0.296875 4.172,0 9.438,0 13.5,-0.296875 v 3.07813 h -2.078 c -7.359,0 -7.547,1.09375 -7.547,4.67187 v 8.6406 h 9.922 v 3.0782 h -9.922 v 45.2031 c 0,1.9844 0,2.5781 -1.593,2.5781 -0.891,0 -1.188,0 -1.985,-1.1875 l -30.5,-46.5937 v -3.0782 z m 0.594,3.0782 h -24.234 l 24.234,37.0468 z"
               style="fill:#000000;fill-opacity:1;fill-rule:nonzero;stroke:none"
               id="path19340" />
            <path
               d="m 859.25,100.484 c 1.484,0 3.375,0 3.375,1.985 0,1.984 -1.891,1.984 -3.281,1.984 h -59.5 c -1.391,0 -3.281,0 -3.281,-1.984 0,-1.985 1.89,-1.985 3.375,-1.985 z m 0.094,-19.2652 c 1.39,0 3.281,0 3.281,1.9843 0,1.9844 -1.891,1.9844 -3.375,1.9844 h -59.312 c -1.485,0 -3.375,0 -3.375,-1.9844 0,-1.9843 1.89,-1.9843 3.281,-1.9843 h 59.5"
               style="fill:#000000;fill-opacity:1;fill-rule:nonzero;stroke:none"
               id="path19342" />
            <path
               d="m 942.688,99.7813 c 0,7.9527 -0.485,15.9067 -3.969,23.2497 -4.563,9.532 -12.719,11.125 -16.891,11.125 -5.953,0 -13.203,-2.578 -17.281,-11.812 -3.172,-6.86 -3.672,-14.61 -3.672,-22.5627 0,-7.4375 0.391,-16.3907 4.469,-23.9375 4.265,-8.0469 11.531,-10.0313 16.39,-10.0313 5.36,0 12.922,2.0938 17.282,11.5313 3.187,6.8437 3.672,14.5937 3.672,22.4375 z M 921.734,68 c -3.875,0 -9.734,2.4844 -11.515,12.0156 -1.094,5.9688 -1.094,15.1094 -1.094,20.9684 0,6.36 0,12.907 0.781,18.282 1.891,11.812 9.344,12.703 11.828,12.703 3.282,0 9.829,-1.781 11.719,-11.625 1,-5.563 1,-13.11 1,-19.36 0,-7.4527 0,-14.2027 -1.094,-20.5621 C 931.875,70.9844 926.203,68 921.734,68"
               style="fill:#000000;fill-opacity:1;fill-rule:nonzero;stroke:none"
               id="path19344" />
            <path
               d="m 966.078,73.2656 c 0,2.875 -2.39,5.2657 -5.265,5.2657 -2.891,0 -5.266,-2.3907 -5.266,-5.2657 0,-2.875 2.375,-5.2656 5.266,-5.2656 2.875,0 5.265,2.3906 5.265,5.2656"
               style="fill:#000000;fill-opacity:1;fill-rule:nonzero;stroke:none"
               id="path19346" />
            <path
               d="m 1019.61,87.9688 c 0,11.8125 -8.16,21.7502 -18.88,21.7502 -4.777,0 -9.042,-1.594 -12.621,-5.063 v 19.375 c 1.985,-0.593 5.266,-1.297 8.454,-1.297 12.217,0 19.167,9.047 19.167,10.329 0,0.593 -0.29,1.093 -1,1.093 -0.09,0 -0.29,0 -0.79,-0.297 -1.99,-0.89 -6.86,-2.875 -13.5,-2.875 -3.987,0 -8.549,0.688 -13.221,2.782 -0.797,0.297 -1,0.297 -1.188,0.297 -1,0 -1,-0.797 -1,-2.391 v -29.406 c 0,-1.782 0,-2.5785 1.391,-2.5785 0.703,0 0.891,0.2969 1.297,0.8905 1.094,1.594 4.765,6.953 12.811,6.953 5.16,0 7.64,-4.562 8.44,-6.359 1.59,-3.672 1.8,-7.547 1.8,-12.5157 0,-3.4688 0,-9.4375 -2.39,-13.6094 -2.38,-3.875 -6.07,-6.4531 -10.63,-6.4531 -7.25,0 -12.922,5.2656 -14.609,11.125 0.297,-0.0938 0.593,-0.2032 1.687,-0.2032 3.281,0 4.969,2.4844 4.969,4.875 0,2.3907 -1.688,4.875 -4.969,4.875 -1.39,0 -4.859,-0.7031 -4.859,-5.2656 0,-8.5469 6.859,-18.1875 17.984,-18.1875 11.517,0 21.657,9.5313 21.657,22.1563"
               style="fill:#000000;fill-opacity:1;fill-rule:nonzero;stroke:none"
               id="path19348" />
          </g>
        </g>
      </g>
      <g
         id="g17131"
         inkscape:groupmode="layer"
         inkscape:label="inkscape-clipboard-import"
         transform="translate(21.773017,-43.546029)">
        <g
           id="g17133"
           transform="matrix(0.144,0,0,0.144,-26.728195,5.942669)">
          <path
             d="m 21.2031,131.578 c 0,2.375 0,2.578 -2.2812,2.578 -6.1563,-6.359 -14.90627,-6.359 -18.07815,-6.359 v -3.078 c 1.98438,0 7.84375,0 13.01565,2.578 V 75.8438 c 0,-3.5782 -0.2969,-4.7657 -9.25002,-4.7657 H 1.4375 V 68 c 3.46875,0.2969 12.125,0.2969 16.0938,0.2969 3.9687,0 12.6093,0 16.0937,-0.2969 v 3.0781 h -3.1875 c -8.9375,0 -9.2344,1.0938 -9.2344,4.7657 v 55.7342"
             style="fill:#000000;fill-opacity:1;fill-rule:nonzero;stroke:none"
             id="path17135" />
          <path
             d="m 129.469,90.8438 c 1.687,0 3.469,0 3.469,1.9843 0,2 -1.782,2 -3.469,2 H 75.7188 c -1.6875,0 -3.4688,0 -3.4688,-2 0,-1.9843 1.7813,-1.9843 3.4688,-1.9843 h 53.7502"
             style="fill:#000000;fill-opacity:1;fill-rule:nonzero;stroke:none"
             id="path17137" />
          <path
             d="m 195.875,44.1563 c 0,0.2968 0,0.5 -1.687,2.1875 -12.407,12.5156 -15.594,31.2968 -15.594,46.4843 0,17.2969 3.781,34.5779 16,46.9999 1.281,1.188 1.281,1.391 1.281,1.688 0,0.687 -0.391,0.984 -0.984,0.984 -1,0 -9.938,-6.75 -15.797,-19.375 -5.063,-10.922 -6.266,-21.953 -6.266,-30.2969 0,-7.7343 1.094,-19.7656 6.563,-30.9843 5.953,-12.2188 14.5,-18.6719 15.5,-18.6719 0.593,0 0.984,0.2969 0.984,0.9844"
             style="fill:#000000;fill-opacity:1;fill-rule:nonzero;stroke:none"
             id="path17139" />
          <path
             d="m 243.203,198.578 c 0,2.375 0,2.578 -2.281,2.578 -6.156,-6.359 -14.906,-6.359 -18.078,-6.359 v -3.078 c 1.984,0 7.844,0 13.015,2.578 v -51.453 c 0,-3.578 -0.296,-4.766 -9.25,-4.766 h -3.171 V 135 c 3.468,0.297 12.125,0.297 16.093,0.297 3.969,0 12.61,0 16.094,-0.297 v 3.078 h -3.187 c -8.938,0 -9.235,1.094 -9.235,4.766 v 55.734"
             style="fill:#000000;fill-opacity:1;fill-rule:nonzero;stroke:none"
             id="path17141" />
          <g
             id="g17143"
             transform="matrix(50.4,0,0,-4.8,213.48,95.6801)">
            <rect
               x="0"
               y="0"
               width="1"
               height="1"
               transform="matrix(1,0,0,-1,0,1)"
               style="fill:#000000;fill-opacity:1;fill-rule:nonzero"
               id="rect17145" />
          </g>
          <path
             d="M 226.609,7.65625 237.141,17.875 c 15.5,13.7188 21.468,19.0781 21.468,29.0156 0,11.3282 -8.953,19.2657 -21.062,19.2657 -11.234,0 -18.578,-9.1407 -18.578,-17.9844 0,-5.5625 4.969,-5.5625 5.265,-5.5625 1.688,0 5.157,1.2031 5.157,5.2656 0,2.5938 -1.782,5.1719 -5.266,5.1719 -0.781,0 -0.984,0 -1.281,-0.0938 2.281,6.4532 7.64,10.125 13.406,10.125 9.047,0 13.313,-8.0468 13.313,-16.1875 0,-7.9531 -4.969,-15.7968 -10.438,-21.9531 L 220.063,3.67188 C 218.969,2.57813 218.969,2.39063 218.969,0 h 36.859 l 2.781,17.2813 h -2.484 c -0.5,-2.9844 -1.203,-7.3438 -2.187,-8.8438 -0.704,-0.78125 -7.25,-0.78125 -9.438,-0.78125 h -17.891"
             style="fill:#000000;fill-opacity:1;fill-rule:nonzero;stroke:none"
             id="path17147" />
          <path
             d="m 304.703,92.8281 c 0,7.7499 -1.094,19.7809 -6.547,30.9999 -5.968,12.219 -14.5,18.672 -15.5,18.672 -0.593,0 -1,-0.391 -1,-0.984 0,-0.297 0,-0.5 1.891,-2.297 9.734,-9.828 15.406,-25.625 15.406,-46.3909 0,-16.9843 -3.687,-34.4687 -16,-46.9843 -1.297,-1.1875 -1.297,-1.3907 -1.297,-1.6875 0,-0.5938 0.407,-0.9844 1,-0.9844 1,0 9.938,6.75 15.797,19.3594 5.063,10.9375 6.25,21.9531 6.25,30.2968"
             style="fill:#000000;fill-opacity:1;fill-rule:nonzero;stroke:none"
             id="path17149" />
          <path
             d="m 349.5,121.797 h -2.391 c -0.203,-1.547 -0.906,-5.703 -1.828,-6.406 -0.562,-0.422 -5.968,-0.422 -6.953,-0.422 h -12.937 c 7.375,6.547 9.843,8.515 14.062,11.812 5.203,4.157 10.047,8.516 10.047,15.188 0,8.515 -7.453,13.703 -16.453,13.703 -8.719,0 -14.625,-6.109 -14.625,-12.578 0,-3.578 3.031,-3.938 3.734,-3.938 1.688,0 3.719,1.203 3.719,3.735 0,1.265 -0.484,3.718 -4.141,3.718 2.172,5 6.954,6.547 10.266,6.547 7.031,0 10.688,-5.484 10.688,-11.187 0,-6.11 -4.36,-10.969 -6.61,-13.5 l -16.953,-16.735 c -0.703,-0.625 -0.703,-0.765 -0.703,-2.734 h 28.969 l 2.109,12.797"
             style="fill:#000000;fill-opacity:1;fill-rule:nonzero;stroke:none"
             id="path17151" />
          <path
             d="m 447.469,90.8438 c 1.687,0 3.469,0 3.469,1.9843 0,2 -1.782,2 -3.469,2 h -53.75 c -1.688,0 -3.469,0 -3.469,-2 0,-1.9843 1.781,-1.9843 3.469,-1.9843 h 53.75"
             style="fill:#000000;fill-opacity:1;fill-rule:nonzero;stroke:none"
             id="path17153" />
          <path
             d="m 513.875,44.1563 c 0,0.2968 0,0.5 -1.687,2.1875 -12.407,12.5156 -15.594,31.2968 -15.594,46.4843 0,17.2969 3.781,34.5779 16,46.9999 1.281,1.188 1.281,1.391 1.281,1.688 0,0.687 -0.391,0.984 -0.984,0.984 -1,0 -9.938,-6.75 -15.797,-19.375 -5.063,-10.922 -6.266,-21.953 -6.266,-30.2969 0,-7.7343 1.094,-19.7656 6.563,-30.9843 5.953,-12.2188 14.5,-18.6719 15.5,-18.6719 0.593,0 0.984,0.2969 0.984,0.9844"
             style="fill:#000000;fill-opacity:1;fill-rule:nonzero;stroke:none"
             id="path17155" />
          <path
             d="m 561.203,198.578 c 0,2.375 0,2.578 -2.281,2.578 -6.156,-6.359 -14.906,-6.359 -18.078,-6.359 v -3.078 c 1.984,0 7.844,0 13.015,2.578 v -51.453 c 0,-3.578 -0.296,-4.766 -9.25,-4.766 h -3.171 V 135 c 3.468,0.297 12.125,0.297 16.093,0.297 3.969,0 12.61,0 16.094,-0.297 v 3.078 h -3.187 c -8.938,0 -9.235,1.094 -9.235,4.766 v 55.734"
             style="fill:#000000;fill-opacity:1;fill-rule:nonzero;stroke:none"
             id="path17157" />
          <g
             id="g17159"
             transform="matrix(50.4,0,0,-4.8,531.48,95.6801)">
            <rect
               x="0"
               y="0"
               width="1"
               height="1"
               transform="matrix(1,0,0,-1,0,1)"
               style="fill:#000000;fill-opacity:1;fill-rule:nonzero"
               id="rect17161" />
          </g>
          <path
             d="M 544.609,7.65625 555.141,17.875 c 15.5,13.7188 21.468,19.0781 21.468,29.0156 0,11.3282 -8.953,19.2657 -21.062,19.2657 -11.234,0 -18.578,-9.1407 -18.578,-17.9844 0,-5.5625 4.969,-5.5625 5.265,-5.5625 1.688,0 5.157,1.2031 5.157,5.2656 0,2.5938 -1.782,5.1719 -5.266,5.1719 -0.781,0 -0.984,0 -1.281,-0.0938 2.281,6.4532 7.64,10.125 13.406,10.125 9.047,0 13.313,-8.0468 13.313,-16.1875 0,-7.9531 -4.969,-15.7968 -10.438,-21.9531 L 538.063,3.67188 C 536.969,2.57813 536.969,2.39063 536.969,0 h 36.859 l 2.781,17.2813 h -2.484 c -0.5,-2.9844 -1.203,-7.3438 -2.187,-8.8438 -0.704,-0.78125 -7.25,-0.78125 -9.438,-0.78125 h -17.891"
             style="fill:#000000;fill-opacity:1;fill-rule:nonzero;stroke:none"
             id="path17163" />
          <path
             d="m 621.703,92.8281 c 0,7.7499 -1.094,19.7809 -6.547,30.9999 -5.968,12.219 -14.5,18.672 -15.5,18.672 -0.593,0 -1,-0.391 -1,-0.984 0,-0.297 0,-0.5 1.891,-2.297 9.734,-9.828 15.406,-25.625 15.406,-46.3909 0,-16.9843 -3.687,-34.4687 -16,-46.9843 -1.297,-1.1875 -1.297,-1.3907 -1.297,-1.6875 0,-0.5938 0.407,-0.9844 1,-0.9844 1,0 9.938,6.75 15.797,19.3594 5.063,10.9375 6.25,21.9531 6.25,30.2968"
             style="fill:#000000;fill-opacity:1;fill-rule:nonzero;stroke:none"
             id="path17165" />
          <path
             d="m 666.5,121.797 h -2.391 c -0.203,-1.547 -0.906,-5.703 -1.828,-6.406 -0.562,-0.422 -5.968,-0.422 -6.953,-0.422 h -12.937 c 7.375,6.547 9.843,8.515 14.062,11.812 5.203,4.157 10.047,8.516 10.047,15.188 0,8.515 -7.453,13.703 -16.453,13.703 -8.719,0 -14.625,-6.109 -14.625,-12.578 0,-3.578 3.031,-3.938 3.734,-3.938 1.688,0 3.719,1.203 3.719,3.735 0,1.265 -0.484,3.718 -4.141,3.718 2.172,5 6.954,6.547 10.266,6.547 7.031,0 10.688,-5.484 10.688,-11.187 0,-6.11 -4.36,-10.969 -6.61,-13.5 l -16.953,-16.735 c -0.703,-0.625 -0.703,-0.765 -0.703,-2.734 h 28.969 l 2.109,12.797"
             style="fill:#000000;fill-opacity:1;fill-rule:nonzero;stroke:none"
             id="path17167" />
          <path
             d="m 772.25,100.484 c 1.484,0 3.375,0 3.375,1.985 0,1.984 -1.891,1.984 -3.281,1.984 h -59.5 c -1.391,0 -3.281,0 -3.281,-1.984 0,-1.985 1.89,-1.985 3.375,-1.985 z m 0.094,-19.2652 c 1.39,0 3.281,0 3.281,1.9843 0,1.9844 -1.891,1.9844 -3.375,1.9844 h -59.312 c -1.485,0 -3.375,0 -3.375,-1.9844 0,-1.9843 1.89,-1.9843 3.281,-1.9843 h 59.5"
             style="fill:#000000;fill-opacity:1;fill-rule:nonzero;stroke:none"
             id="path17169" />
          <path
             d="m 855.688,99.7813 c 0,7.9527 -0.485,15.9067 -3.969,23.2497 -4.563,9.532 -12.719,11.125 -16.891,11.125 -5.953,0 -13.203,-2.578 -17.281,-11.812 -3.172,-6.86 -3.672,-14.61 -3.672,-22.5627 0,-7.4375 0.391,-16.3907 4.469,-23.9375 4.265,-8.0469 11.531,-10.0313 16.39,-10.0313 5.36,0 12.922,2.0938 17.282,11.5313 3.187,6.8437 3.672,14.5937 3.672,22.4375 z M 834.734,68 c -3.875,0 -9.734,2.4844 -11.515,12.0156 -1.094,5.9688 -1.094,15.1094 -1.094,20.9684 0,6.36 0,12.907 0.781,18.282 1.891,11.812 9.344,12.703 11.828,12.703 3.282,0 9.829,-1.781 11.719,-11.625 1,-5.563 1,-13.11 1,-19.36 0,-7.4527 0,-14.2027 -1.094,-20.5621 C 844.875,70.9844 839.203,68 834.734,68"
             style="fill:#000000;fill-opacity:1;fill-rule:nonzero;stroke:none"
             id="path17171" />
          <path
             d="m 879.078,73.2656 c 0,2.875 -2.39,5.2657 -5.265,5.2657 -2.891,0 -5.266,-2.3907 -5.266,-5.2657 0,-2.875 2.375,-5.2656 5.266,-5.2656 2.875,0 5.265,2.3906 5.265,5.2656"
             style="fill:#000000;fill-opacity:1;fill-rule:nonzero;stroke:none"
             id="path17173" />
          <path
             d="m 932.609,87.9688 c 0,11.8125 -8.156,21.7502 -18.875,21.7502 -4.781,0 -9.046,-1.594 -12.625,-5.063 v 19.375 c 1.985,-0.593 5.266,-1.297 8.454,-1.297 12.218,0 19.171,9.047 19.171,10.329 0,0.593 -0.296,1.093 -1,1.093 -0.093,0 -0.296,0 -0.796,-0.297 -1.985,-0.89 -6.86,-2.875 -13.5,-2.875 -3.985,0 -8.547,0.688 -13.219,2.782 -0.797,0.297 -1,0.297 -1.188,0.297 -1,0 -1,-0.797 -1,-2.391 v -29.406 c 0,-1.782 0,-2.5785 1.391,-2.5785 0.703,0 0.891,0.2969 1.297,0.8905 1.094,1.594 4.765,6.953 12.812,6.953 5.157,0 7.641,-4.562 8.438,-6.359 1.594,-3.672 1.797,-7.547 1.797,-12.5157 0,-3.4688 0,-9.4375 -2.391,-13.6094 -2.375,-3.875 -6.062,-6.4531 -10.625,-6.4531 -7.25,0 -12.922,5.2656 -14.609,11.125 0.297,-0.0938 0.593,-0.2032 1.687,-0.2032 3.281,0 4.969,2.4844 4.969,4.875 0,2.3907 -1.688,4.875 -4.969,4.875 -1.39,0 -4.859,-0.7031 -4.859,-5.2656 0,-8.5469 6.859,-18.1875 17.984,-18.1875 11.516,0 21.656,9.5313 21.656,22.1563"
             style="fill:#000000;fill-opacity:1;fill-rule:nonzero;stroke:none"
             id="path17175" />
        </g>
      </g>
    </g>
  </g>
</svg>
