<svg xmlns="http://www.w3.org/2000/svg" xmlns:svg="http://www.w3.org/2000/svg" id="svg5" width="358.833" height="283.096" version="1.1" viewBox="0 0 94.941 74.903"><defs id="defs2"><marker style="overflow:visible" id="Arrow1Mend" orient="auto" refX="0" refY="0"><path style="fill:context-stroke;fill-rule:evenodd;stroke:context-stroke;stroke-width:1pt" id="path1229" d="M 0,0 5,-5 -12.5,0 5,5 Z" transform="matrix(-0.4,0,0,-0.4,-4,0)"/></marker><marker style="overflow:visible" id="Arrow2Lend" orient="auto" refX="0" refY="0"><path style="fill:context-stroke;fill-rule:evenodd;stroke:context-stroke;stroke-width:.625;stroke-linejoin:round" id="path1241" d="M 8.7185878,4.0337352 -2.2072895,0.01601326 8.7185884,-4.0017078 c -1.7454984,2.3720609 -1.7354408,5.6174519 -6e-7,8.035443 z" transform="matrix(-1.1,0,0,-1.1,-1.1,0)"/></marker><marker style="overflow:visible" id="Arrow1Lstart" orient="auto" refX="0" refY="0"><path style="fill:context-stroke;fill-rule:evenodd;stroke:context-stroke;stroke-width:1pt" id="path1220" d="M 0,0 5,-5 -12.5,0 5,5 Z" transform="matrix(0.8,0,0,0.8,10,0)"/></marker><marker style="overflow:visible" id="Arrow2Lend-0" orient="auto" refX="0" refY="0"><path style="fill:context-stroke;fill-rule:evenodd;stroke:context-stroke;stroke-width:.625;stroke-linejoin:round" id="path1241-3" d="M 8.7185878,4.0337352 -2.2072895,0.01601326 8.7185884,-4.0017078 c -1.7454984,2.3720609 -1.7354408,5.6174519 -6e-7,8.035443 z" transform="matrix(-1.1,0,0,-1.1,-1.1,0)"/></marker><marker style="overflow:visible" id="marker1691" orient="auto" refX="0" refY="0"><path style="fill:context-stroke;fill-rule:evenodd;stroke:context-stroke;stroke-width:.625;stroke-linejoin:round" id="path1689" d="M 8.7185878,4.0337352 -2.2072895,0.01601326 8.7185884,-4.0017078 c -1.7454984,2.3720609 -1.7354408,5.6174519 -6e-7,8.035443 z" transform="matrix(-1.1,0,0,-1.1,-1.1,0)"/></marker><marker style="overflow:visible" id="Arrow2Lend-0-6" orient="auto" refX="0" refY="0"><path style="fill:context-stroke;fill-rule:evenodd;stroke:context-stroke;stroke-width:.625;stroke-linejoin:round" id="path1241-3-9" d="M 8.7185878,4.0337352 -2.2072895,0.01601326 8.7185884,-4.0017078 c -1.7454984,2.3720609 -1.7354408,5.6174519 -6e-7,8.035443 z" transform="matrix(-1.1,0,0,-1.1,-1.1,0)"/></marker><marker style="overflow:visible" id="marker1768" orient="auto" refX="0" refY="0"><path style="fill:context-stroke;fill-rule:evenodd;stroke:context-stroke;stroke-width:.625;stroke-linejoin:round" id="path1766" d="M 8.7185878,4.0337352 -2.2072895,0.01601326 8.7185884,-4.0017078 c -1.7454984,2.3720609 -1.7354408,5.6174519 -6e-7,8.035443 z" transform="matrix(-1.1,0,0,-1.1,-1.1,0)"/></marker></defs><g id="layer1" transform="translate(12.68487,-53.261941)"><g id="g1539" transform="matrix(2,0,0,2,-163.06819,-112.7833)"><ellipse style="fill:none;fill-opacity:.4;stroke:#0f0;stroke-width:.405067;stroke-miterlimit:4;stroke-dasharray:none" id="path33" cx="86.287" cy="112.394" rx="10.893" ry="7.877"/><ellipse style="fill:none;fill-opacity:.4;stroke:#0f0;stroke-width:.405067;stroke-miterlimit:4;stroke-dasharray:none" id="path33-2" cx="111.567" cy="112.394" rx="10.893" ry="7.877"/><ellipse style="fill:none;fill-opacity:.4;stroke:#0f0;stroke-width:.405067;stroke-miterlimit:4;stroke-dasharray:none" id="path33-2-6" cx="98.808" cy="91.102" rx="10.893" ry="7.877"/><path style="fill:none;fill-rule:evenodd;stroke:#000;stroke-width:.107174px;stroke-linecap:butt;stroke-linejoin:miter;stroke-opacity:1;marker-end:url(#Arrow2Lend)" id="path1136" d="m 94.545368,98.351352 -3.995415,6.793798"/><path style="fill:none;fill-rule:evenodd;stroke:#000;stroke-width:.107174px;stroke-linecap:butt;stroke-linejoin:miter;stroke-opacity:1;marker-end:url(#Arrow2Lend)" id="path1138" d="m 103.13952,98.330195 4.09644,6.836115"/></g><text style="font-size:6.35px;line-height:1.25;font-family:sans-serif;stroke-width:.264583" id="text2585" x="-3.856" y="109.678" xml:space="preserve"><tspan id="tspan2583" x="-3.856" y="109.678" style="font-style:normal;font-variant:normal;font-weight:400;font-stretch:normal;font-family:'Times New Roman';-inkscape-font-specification:'Times New Roman, ';stroke-width:.264583">你发烧了</tspan><tspan style="font-style:normal;font-variant:normal;font-weight:400;font-stretch:normal;font-family:'Times New Roman';-inkscape-font-specification:'Times New Roman, ';stroke-width:.264583" id="tspan5031" x="-3.856" y="118.23">需要治疗</tspan></text><text style="font-size:6.35px;line-height:1.25;font-family:sans-serif;stroke-width:.264583" id="text2585-7" x="45.451" y="109.921" xml:space="preserve"><tspan id="tspan2583-1" x="45.451" y="109.921" style="font-style:normal;font-variant:normal;font-weight:400;font-stretch:normal;font-family:'Times New Roman';-inkscape-font-specification:'Times New Roman, ';stroke-width:.264583">体温正常</tspan><tspan style="font-style:normal;font-variant:normal;font-weight:400;font-stretch:normal;font-family:'Times New Roman';-inkscape-font-specification:'Times New Roman, ';stroke-width:.264583" id="tspan5355" x="45.451" y="118.473">不需要治疗</tspan></text><text style="font-size:6.35px;line-height:1.25;font-family:sans-serif;stroke-width:.264583" id="text7393" x="8.49" y="90.549" xml:space="preserve"><tspan id="tspan7391" x="8.49" y="90.549" style="font-style:normal;font-variant:normal;font-weight:400;font-stretch:normal;font-family:Times;-inkscape-font-specification:Times;stroke-width:.264583">True</tspan></text><text style="font-size:6.35px;line-height:1.25;font-family:sans-serif;stroke-width:.264583" id="text7393-8" x="49.084" y="90.754" xml:space="preserve"><tspan id="tspan7391-6" x="49.084" y="90.754" style="font-style:normal;font-variant:normal;font-weight:400;font-stretch:normal;font-family:Times;-inkscape-font-specification:Times;stroke-width:.264583">False</tspan></text><text style="font-size:6.35px;line-height:1.25;font-family:sans-serif;stroke-width:.264583" id="text1621" x="21.963" y="67.598" xml:space="preserve"><tspan id="tspan1619" x="21.963" y="67.598" style="font-style:normal;font-variant:normal;font-weight:400;font-stretch:normal;font-family:'Times New Roman';-inkscape-font-specification:'Times New Roman, ';stroke-width:.264583">体温大于</tspan><tspan style="font-style:normal;font-variant:normal;font-weight:400;font-stretch:normal;font-family:'Times New Roman';-inkscape-font-specification:'Times New Roman, ';stroke-width:.264583" id="tspan3793" x="21.963" y="76.15">38摄氏度</tspan></text></g></svg>