<svg xmlns="http://www.w3.org/2000/svg" xmlns:svg="http://www.w3.org/2000/svg" id="svg5" width="496.299" height="578.995" version="1.1" viewBox="0 0 131.313 153.193"><defs id="defs2"><marker style="overflow:visible" id="Arrow1Mend" orient="auto" refX="0" refY="0"><path style="fill:context-stroke;fill-rule:evenodd;stroke:context-stroke;stroke-width:1pt" id="path1229" d="M 0,0 5,-5 -12.5,0 5,5 Z" transform="matrix(-0.4,0,0,-0.4,-4,0)"/></marker><marker style="overflow:visible" id="Arrow2Lend" orient="auto" refX="0" refY="0"><path style="fill:context-stroke;fill-rule:evenodd;stroke:context-stroke;stroke-width:.625;stroke-linejoin:round" id="path1241" d="M 8.7185878,4.0337352 -2.2072895,0.01601326 8.7185884,-4.0017078 c -1.7454984,2.3720609 -1.7354408,5.6174519 -6e-7,8.035443 z" transform="matrix(-1.1,0,0,-1.1,-1.1,0)"/></marker><marker style="overflow:visible" id="Arrow1Lstart" orient="auto" refX="0" refY="0"><path style="fill:context-stroke;fill-rule:evenodd;stroke:context-stroke;stroke-width:1pt" id="path1220" d="M 0,0 5,-5 -12.5,0 5,5 Z" transform="matrix(0.8,0,0,0.8,10,0)"/></marker><marker style="overflow:visible" id="Arrow2Lend-0" orient="auto" refX="0" refY="0"><path style="fill:context-stroke;fill-rule:evenodd;stroke:context-stroke;stroke-width:.625;stroke-linejoin:round" id="path1241-3" d="M 8.7185878,4.0337352 -2.2072895,0.01601326 8.7185884,-4.0017078 c -1.7454984,2.3720609 -1.7354408,5.6174519 -6e-7,8.035443 z" transform="matrix(-1.1,0,0,-1.1,-1.1,0)"/></marker><marker style="overflow:visible" id="marker1691" orient="auto" refX="0" refY="0"><path style="fill:context-stroke;fill-rule:evenodd;stroke:context-stroke;stroke-width:.625;stroke-linejoin:round" id="path1689" d="M 8.7185878,4.0337352 -2.2072895,0.01601326 8.7185884,-4.0017078 c -1.7454984,2.3720609 -1.7354408,5.6174519 -6e-7,8.035443 z" transform="matrix(-1.1,0,0,-1.1,-1.1,0)"/></marker><marker style="overflow:visible" id="Arrow2Lend-0-6" orient="auto" refX="0" refY="0"><path style="fill:context-stroke;fill-rule:evenodd;stroke:context-stroke;stroke-width:.625;stroke-linejoin:round" id="path1241-3-9" d="M 8.7185878,4.0337352 -2.2072895,0.01601326 8.7185884,-4.0017078 c -1.7454984,2.3720609 -1.7354408,5.6174519 -6e-7,8.035443 z" transform="matrix(-1.1,0,0,-1.1,-1.1,0)"/></marker><marker style="overflow:visible" id="marker1768" orient="auto" refX="0" refY="0"><path style="fill:context-stroke;fill-rule:evenodd;stroke:context-stroke;stroke-width:.625;stroke-linejoin:round" id="path1766" d="M 8.7185878,4.0337352 -2.2072895,0.01601326 8.7185884,-4.0017078 c -1.7454984,2.3720609 -1.7354408,5.6174519 -6e-7,8.035443 z" transform="matrix(-1.1,0,0,-1.1,-1.1,0)"/></marker><marker style="overflow:visible" id="Arrow2Lend-9" orient="auto" refX="0" refY="0"><path style="fill:context-stroke;fill-rule:evenodd;stroke:context-stroke;stroke-width:.625;stroke-linejoin:round" id="path1241-7" d="M 8.7185878,4.0337352 -2.2072895,0.01601326 8.7185884,-4.0017078 c -1.7454984,2.3720609 -1.7354408,5.6174519 -6e-7,8.035443 z" transform="matrix(-1.1,0,0,-1.1,-1.1,0)"/></marker><marker style="overflow:visible" id="marker6020" orient="auto" refX="0" refY="0"><path style="fill:context-stroke;fill-rule:evenodd;stroke:context-stroke;stroke-width:.625;stroke-linejoin:round" id="path6018" d="M 8.7185878,4.0337352 -2.2072895,0.01601326 8.7185884,-4.0017078 c -1.7454984,2.3720609 -1.7354408,5.6174519 -6e-7,8.035443 z" transform="matrix(-1.1,0,0,-1.1,-1.1,0)"/></marker><marker style="overflow:visible" id="Arrow2Lend-9-1" orient="auto" refX="0" refY="0"><path style="fill:context-stroke;fill-rule:evenodd;stroke:context-stroke;stroke-width:.625;stroke-linejoin:round" id="path1241-7-6" d="M 8.7185878,4.0337352 -2.2072895,0.01601326 8.7185884,-4.0017078 c -1.7454984,2.3720609 -1.7354408,5.6174519 -6e-7,8.035443 z" transform="matrix(-1.1,0,0,-1.1,-1.1,0)"/></marker><marker style="overflow:visible" id="marker8975" orient="auto" refX="0" refY="0"><path style="fill:context-stroke;fill-rule:evenodd;stroke:context-stroke;stroke-width:.625;stroke-linejoin:round" id="path8973" d="M 8.7185878,4.0337352 -2.2072895,0.01601326 8.7185884,-4.0017078 c -1.7454984,2.3720609 -1.7354408,5.6174519 -6e-7,8.035443 z" transform="matrix(-1.1,0,0,-1.1,-1.1,0)"/></marker><marker style="overflow:visible" id="Arrow2Lend-9-1-3" orient="auto" refX="0" refY="0"><path style="fill:context-stroke;fill-rule:evenodd;stroke:context-stroke;stroke-width:.625;stroke-linejoin:round" id="path1241-7-6-1" d="M 8.7185878,4.0337352 -2.2072895,0.01601326 8.7185884,-4.0017078 c -1.7454984,2.3720609 -1.7354408,5.6174519 -6e-7,8.035443 z" transform="matrix(-1.1,0,0,-1.1,-1.1,0)"/></marker><marker style="overflow:visible" id="marker9196" orient="auto" refX="0" refY="0"><path style="fill:context-stroke;fill-rule:evenodd;stroke:context-stroke;stroke-width:.625;stroke-linejoin:round" id="path9194" d="M 8.7185878,4.0337352 -2.2072895,0.01601326 8.7185884,-4.0017078 c -1.7454984,2.3720609 -1.7354408,5.6174519 -6e-7,8.035443 z" transform="matrix(-1.1,0,0,-1.1,-1.1,0)"/></marker><marker style="overflow:visible" id="Arrow2Lend-9-1-3-5" orient="auto" refX="0" refY="0"><path style="fill:context-stroke;fill-rule:evenodd;stroke:context-stroke;stroke-width:.625;stroke-linejoin:round" id="path1241-7-6-1-5" d="M 8.7185878,4.0337352 -2.2072895,0.01601326 8.7185884,-4.0017078 c -1.7454984,2.3720609 -1.7354408,5.6174519 -6e-7,8.035443 z" transform="matrix(-1.1,0,0,-1.1,-1.1,0)"/></marker><marker style="overflow:visible" id="marker9311" orient="auto" refX="0" refY="0"><path style="fill:context-stroke;fill-rule:evenodd;stroke:context-stroke;stroke-width:.625;stroke-linejoin:round" id="path9309" d="M 8.7185878,4.0337352 -2.2072895,0.01601326 8.7185884,-4.0017078 c -1.7454984,2.3720609 -1.7354408,5.6174519 -6e-7,8.035443 z" transform="matrix(-1.1,0,0,-1.1,-1.1,0)"/></marker></defs><g id="layer1" transform="translate(10.292291,-14.769186)"><ellipse style="fill:none;fill-opacity:.4;stroke:#0f0;stroke-width:.810134;stroke-miterlimit:4;stroke-dasharray:none" id="path33-7" cx="11.898" cy="109.179" rx="21.785" ry="15.755"/><ellipse style="fill:none;fill-opacity:.4;stroke:#0f0;stroke-width:.810134;stroke-miterlimit:4;stroke-dasharray:none" id="path33-7-5" cx="98.83" cy="66.596" rx="21.785" ry="15.755"/><ellipse style="fill:none;fill-opacity:.4;stroke:#0f0;stroke-width:.810134;stroke-miterlimit:4;stroke-dasharray:none" id="path33-2-8" cx="62.459" cy="109.179" rx="21.785" ry="15.755"/><ellipse style="fill:none;fill-opacity:.4;stroke:#0f0;stroke-width:.810134;stroke-miterlimit:4;stroke-dasharray:none" id="path33-2-6-9" cx="36.941" cy="66.596" rx="21.785" ry="15.755"/><path style="fill:none;fill-rule:evenodd;stroke:#000;stroke-width:.214348px;stroke-linecap:butt;stroke-linejoin:miter;stroke-opacity:1;marker-end:url(#Arrow2Lend-9)" id="path1136-7" d="M 28.415132,81.093756 20.424298,94.68136"/><path style="fill:none;fill-rule:evenodd;stroke:#000;stroke-width:.214348px;stroke-linecap:butt;stroke-linejoin:miter;stroke-opacity:1;marker-end:url(#Arrow2Lend-9)" id="path1138-8" d="m 45.603428,81.051443 8.192886,13.67223"/><text style="font-size:6.35px;line-height:1.25;font-family:sans-serif;stroke-width:.264583" id="text2585-9" x="10.282" y="110.753" xml:space="preserve"><tspan style="font-style:normal;font-variant:normal;font-weight:400;font-stretch:normal;font-family:'Times New Roman';-inkscape-font-specification:'Times New Roman, ';stroke-width:.264583" id="tspan5031-2" x="10.282" y="110.753">1</tspan></text><text style="font-size:6.35px;line-height:1.25;font-family:sans-serif;stroke-width:.264583" id="text2585-7-2" x="58.105" y="120.995" xml:space="preserve"><tspan style="font-style:normal;font-variant:normal;font-weight:400;font-stretch:normal;font-family:'Times New Roman';-inkscape-font-specification:'Times New Roman, ';stroke-width:.264583" id="tspan5355-3" x="58.105" y="120.995">1, 0</tspan></text><text style="font-size:6.35px;line-height:1.25;font-family:sans-serif;stroke-width:.264583" id="text2585-7-2-3" x="29.922" y="78.876" xml:space="preserve"><tspan style="font-style:normal;font-variant:normal;font-weight:400;font-stretch:normal;font-family:'Times New Roman';-inkscape-font-specification:'Times New Roman, ';stroke-width:.264583" id="tspan5355-3-8" x="29.922" y="78.876">1, 0, 1</tspan></text><text style="font-size:6.35px;line-height:1.25;font-family:sans-serif;stroke-width:.264583" id="text7393-5" x="10.883" y="87.723" xml:space="preserve"><tspan id="tspan7391-7" x="10.883" y="87.723" style="font-style:normal;font-variant:normal;font-weight:400;font-stretch:normal;font-family:Times;-inkscape-font-specification:Times;stroke-width:.264583">True</tspan></text><text style="font-size:6.35px;line-height:1.25;font-family:sans-serif;stroke-width:.264583" id="text7393-8-0" x="51.477" y="87.928" xml:space="preserve"><tspan id="tspan7391-6-1" x="51.477" y="87.928" style="font-style:normal;font-variant:normal;font-weight:400;font-stretch:normal;font-family:Times;-inkscape-font-specification:Times;stroke-width:.264583">False</tspan></text><text style="font-size:6.35px;line-height:1.25;font-family:sans-serif;stroke-width:.264583" id="text1621-4" x="26.145" y="61.847" xml:space="preserve"><tspan style="font-style:normal;font-variant:normal;font-weight:400;font-stretch:normal;font-family:'Times New Roman';-inkscape-font-specification:'Times New Roman, ';stroke-width:.264583" id="tspan3793-7" x="26.145" y="61.847">检测2为</tspan><tspan style="font-style:normal;font-variant:normal;font-weight:400;font-stretch:normal;font-family:'Times New Roman';-inkscape-font-specification:'Times New Roman, ';stroke-width:.264583" id="tspan72-3" x="26.145" y="69.941"> True</tspan></text><ellipse style="fill:none;fill-opacity:.4;stroke:#0f0;stroke-width:.810134;stroke-miterlimit:4;stroke-dasharray:none" id="path33-2-6-9-3" cx="67.13" cy="30.929" rx="21.785" ry="15.755"/><text style="font-size:6.35px;line-height:1.25;font-family:sans-serif;stroke-width:.264583" id="text2585-7-2-3-7" x="57.184" y="41.502" xml:space="preserve"><tspan style="font-style:normal;font-variant:normal;font-weight:400;font-stretch:normal;font-family:'Times New Roman';-inkscape-font-specification:'Times New Roman, ';stroke-width:.264583" id="tspan5355-3-8-1" x="57.184" y="41.502">1, 0, 0, 1</tspan></text><text style="font-size:6.35px;line-height:1.25;font-family:sans-serif;stroke-width:.264583" id="text1621-4-9" x="56.334" y="26.18" xml:space="preserve"><tspan style="font-style:normal;font-variant:normal;font-weight:400;font-stretch:normal;font-family:'Times New Roman';-inkscape-font-specification:'Times New Roman, ';stroke-width:.264583" id="tspan3793-7-1" x="56.334" y="26.18">检测1为</tspan><tspan style="font-style:normal;font-variant:normal;font-weight:400;font-stretch:normal;font-family:'Times New Roman';-inkscape-font-specification:'Times New Roman, ';stroke-width:.264583" id="tspan72-3-4" x="56.334" y="34.274"> True</tspan></text><ellipse style="fill:none;fill-opacity:.4;stroke:#0f0;stroke-width:.810134;stroke-miterlimit:4;stroke-dasharray:none" id="path33-7-8" cx="37.545" cy="151.802" rx="21.785" ry="15.755"/><ellipse style="fill:none;fill-opacity:.4;stroke:#0f0;stroke-width:.810134;stroke-miterlimit:4;stroke-dasharray:none" id="path33-2-8-4" cx="88.106" cy="151.802" rx="21.785" ry="15.755"/><path style="fill:none;fill-rule:evenodd;stroke:#000;stroke-width:.214348px;stroke-linecap:butt;stroke-linejoin:miter;stroke-opacity:1;marker-end:url(#Arrow2Lend-9-1)" id="path1136-7-9" d="m 54.062318,123.71667 -7.99083,13.5876"/><path style="fill:none;fill-rule:evenodd;stroke:#000;stroke-width:.214348px;stroke-linecap:butt;stroke-linejoin:miter;stroke-opacity:1;marker-end:url(#Arrow2Lend-9-1)" id="path1138-8-5" d="m 71.250619,123.67436 8.192883,13.67222"/><text style="font-size:6.35px;line-height:1.25;font-family:sans-serif;stroke-width:.264583" id="text2585-9-4" x="36.459" y="153.376" xml:space="preserve"><tspan style="font-style:normal;font-variant:normal;font-weight:400;font-stretch:normal;font-family:'Times New Roman';-inkscape-font-specification:'Times New Roman, ';stroke-width:.264583" id="tspan5031-2-3" x="36.459" y="153.376">1</tspan></text><text style="font-size:6.35px;line-height:1.25;font-family:sans-serif;stroke-width:.264583" id="text2585-7-2-4" x="86.398" y="153.864" xml:space="preserve"><tspan style="font-style:normal;font-variant:normal;font-weight:400;font-stretch:normal;font-family:'Times New Roman';-inkscape-font-specification:'Times New Roman, ';stroke-width:.264583" id="tspan5355-3-9" x="86.398" y="153.864">0</tspan></text><text style="font-size:6.35px;line-height:1.25;font-family:sans-serif;stroke-width:.264583" id="text7393-5-4" x="36.53" y="130.346" xml:space="preserve"><tspan id="tspan7391-7-0" x="36.53" y="130.346" style="font-style:normal;font-variant:normal;font-weight:400;font-stretch:normal;font-family:Times;-inkscape-font-specification:Times;stroke-width:.264583">True</tspan></text><text style="font-size:6.35px;line-height:1.25;font-family:sans-serif;stroke-width:.264583" id="text7393-8-0-3" x="77.124" y="130.551" xml:space="preserve"><tspan id="tspan7391-6-1-2" x="77.124" y="130.551" style="font-style:normal;font-variant:normal;font-weight:400;font-stretch:normal;font-family:Times;-inkscape-font-specification:Times;stroke-width:.264583">False</tspan></text><text style="font-size:6.35px;line-height:1.25;font-family:sans-serif;stroke-width:.264583" id="text1621-4-0-5" x="50.822" y="103.563" xml:space="preserve"><tspan style="font-style:normal;font-variant:normal;font-weight:400;font-stretch:normal;font-family:'Times New Roman';-inkscape-font-specification:'Times New Roman, ';stroke-width:.264583" id="tspan72-3-4-8" x="50.822" y="103.563">年龄小于</tspan><tspan style="font-style:normal;font-variant:normal;font-weight:400;font-stretch:normal;font-family:'Times New Roman';-inkscape-font-specification:'Times New Roman, ';stroke-width:.264583" id="tspan9104-5" x="50.822" y="112.115">等于16</tspan></text><path style="fill:none;fill-rule:evenodd;stroke:#000;stroke-width:.264583px;stroke-linecap:butt;stroke-linejoin:miter;stroke-opacity:1" id="path3698" d="m 55.756945,44.365951 -7.442483,8.793008"/><path style="fill:none;fill-rule:evenodd;stroke:#000;stroke-width:.264583px;stroke-linecap:butt;stroke-linejoin:miter;stroke-opacity:1" id="path3700" d="m 78.908933,44.181904 8.142026,9.161102"/><text style="font-size:6.35px;line-height:1.25;font-family:sans-serif;stroke-width:.264583" id="text4268" x="97.61" y="68.481" xml:space="preserve"><tspan id="tspan4266" x="97.61" y="68.481" style="font-style:normal;font-variant:normal;font-weight:400;font-stretch:normal;font-family:'Times New Roman';-inkscape-font-specification:'Times New Roman, ';stroke-width:.264583">0</tspan></text></g></svg>