<svg xmlns="http://www.w3.org/2000/svg" xmlns:svg="http://www.w3.org/2000/svg" id="svg5" width="412.57" height="100.538" version="1.1" viewBox="0 0 109.159 26.601"><defs id="defs2"><marker id="Arrow1Mend" orient="auto" refX="0" refY="0" style="overflow:visible"><path id="path11289" d="M 0,0 5,-5 -12.5,0 5,5 Z" transform="matrix(-0.4,0,0,-0.4,-4,0)" style="fill:context-stroke;fill-rule:evenodd;stroke:context-stroke;stroke-width:1pt"/></marker><marker id="Arrow1Lstart" orient="auto" refX="0" refY="0" style="overflow:visible"><path id="path11280" d="M 0,0 5,-5 -12.5,0 5,5 Z" transform="matrix(0.8,0,0,0.8,10,0)" style="fill:context-stroke;fill-rule:evenodd;stroke:context-stroke;stroke-width:1pt"/></marker></defs><g id="layer1" transform="translate(-39.232538,-31.056631)"><text id="text3003" x="63.643" y="35.357" xml:space="preserve" style="font-size:6.35px;line-height:1.25;font-family:sans-serif;word-spacing:0;stroke-width:.264583"><tspan style="font-style:normal;font-variant:normal;font-weight:400;font-stretch:normal;font-family:'Times New Roman';-inkscape-font-specification:'Times New Roman, ';stroke-width:.264583" id="tspan3001" x="63.643" y="35.357">MAJOR.MINOR.PATCH</tspan></text><text id="text6205" x="38.909" y="48.162" xml:space="preserve" style="font-size:3.52778px;line-height:1.25;font-family:sans-serif;stroke-width:.264583"><tspan id="tspan14603" x="38.909" y="48.162" style="font-size:3.52778px;stroke-width:.264583">出现向后不兼容的API变动</tspan></text><text id="text6205-7" x="75.226" y="57.177" xml:space="preserve" style="font-size:3.52778px;line-height:1.25;font-family:sans-serif;stroke-width:.264583"><tspan id="tspan14603-6" x="75.226" y="57.177" style="font-size:3.52778px;stroke-width:.264583">先后兼容的情况下添加功能</tspan></text><text id="text22226" x="116.213" y="48.106" xml:space="preserve" style="font-size:3.52778px;line-height:1.25;font-family:sans-serif;stroke-width:.264583"><tspan style="font-size:3.52778px;stroke-width:.264583" id="tspan22224" x="116.213" y="48.106">修复向后兼容的BUG</tspan></text><path id="path10463" d="m 76.728054,36.208745 c -0.862113,0.172421 -12.58685,7.586593 -12.58685,7.586593" style="fill:none;stroke:#000;stroke-width:.264583px;stroke-linecap:butt;stroke-linejoin:miter;stroke-opacity:1;marker-end:url(#Arrow1Mend)"/><path id="path11636" d="M 97.418765,37.243281 C 96.556652,37.415702 97.07392,52.58889 97.07392,52.58889" style="fill:none;stroke:#000;stroke-width:.264583px;stroke-linecap:butt;stroke-linejoin:miter;stroke-opacity:1;marker-end:url(#Arrow1Mend)"/><path id="path11638" d="m 120.69581,36.55359 c -0.86211,0.172421 13.62139,8.103861 13.62139,8.103861" style="fill:none;stroke:#000;stroke-width:.264583px;stroke-linecap:butt;stroke-linejoin:miter;stroke-opacity:1;marker-end:url(#Arrow1Mend)"/></g></svg>