<svg xmlns="http://www.w3.org/2000/svg" xmlns:xlink="http://www.w3.org/1999/xlink" width="295.068" height="295.068" version="1.1" viewBox="0 0 221.301 221.301"><defs><clipPath id="clip1"><path d="M 0 0 L 221.300781 0 L 221.300781 221.300781 L 0 221.300781 Z M 0 0"/></clipPath></defs><g id="surface1"><g clip-path="url(#clip1)" clip-rule="nonzero"><path style="fill:none;stroke-width:.19925;stroke-linecap:butt;stroke-linejoin:miter;stroke:gray;stroke-opacity:1;stroke-miterlimit:10" d="M -53.860344 -28.348406 L 167.245125 -28.348406 M -53.860344 -0.00075 L 167.245125 -0.00075 M -53.860344 28.346906 L 167.245125 28.346906 M -53.860344 56.694563 L 167.245125 56.694563 M -53.860344 85.042219 L 167.245125 85.042219 M -53.860344 113.385969 L 167.245125 113.385969 M -53.860344 141.733625 L 167.245125 141.733625 M -28.348625 -53.860125 L -28.348625 167.245344 M -0.00096875 -53.860125 L -0.00096875 167.245344 M 28.346688 -53.860125 L 28.346688 167.245344 M 56.694344 -53.860125 L 56.694344 167.245344 M 85.042 -53.860125 L 85.042 167.245344 M 113.38575 -53.860125 L 113.38575 167.245344 M 141.733406 -53.860125 L 141.733406 167.245344" transform="matrix(1,0,0,-1,53.958,167.343)"/></g><path style="fill:none;stroke-width:.79701;stroke-linecap:butt;stroke-linejoin:miter;stroke:#000;stroke-opacity:1;stroke-miterlimit:10" d="M -0.00096875 -0.00075 L 126.8545 -0.00075" transform="matrix(1,0,0,-1,53.958,167.343)"/><path style="fill:none;stroke-width:.6376;stroke-linecap:round;stroke-linejoin:round;stroke:#000;stroke-opacity:1;stroke-miterlimit:10" d="M -1.553457 2.073469 C -1.424551 1.296125 0.00123 0.128156 0.387949 -0.00075 C 0.00123 -0.129656 -1.424551 -1.293719 -1.553457 -2.071062" transform="matrix(1,0,0,-1,180.81127,167.343)"/><path style="fill:none;stroke-width:.79701;stroke-linecap:butt;stroke-linejoin:miter;stroke:#000;stroke-opacity:1;stroke-miterlimit:10" d="M -0.00096875 -0.00075 L -0.00096875 126.854719" transform="matrix(1,0,0,-1,53.958,167.343)"/><path style="fill:none;stroke-width:.6376;stroke-linecap:round;stroke-linejoin:round;stroke:#000;stroke-opacity:1;stroke-miterlimit:10" d="M -1.553239 2.071281 C -1.424332 1.293937 0.00144875 0.129875 0.388168 0.00096875 C 0.00144875 -0.127938 -1.424332 -1.295906 -1.553239 -2.07325" transform="matrix(0,-1,-1,0,53.958,40.48973)"/></g></svg>