<svg xmlns="http://www.w3.org/2000/svg" xmlns:xlink="http://www.w3.org/1999/xlink" width="231.535" height="335.173" version="1.1" viewBox="0 0 173.651 251.38"><defs><clipPath id="clip1"><path d="M 170 237 L 173.652344 237 L 173.652344 241 L 170 241 Z M 170 237"/></clipPath><clipPath id="clip2"><path d="M 164 231 L 173.652344 231 L 173.652344 247 L 164 247 Z M 164 231"/></clipPath><clipPath id="clip3"><path d="M 0 147 L 173.652344 147 L 173.652344 251.378906 L 0 251.378906 Z M 0 147"/></clipPath><clipPath id="clip4"><rect width="174" height="105" x="0" y="0"/></clipPath><g id="surface5" clip-path="url(#clip4)"><path style="fill:none;stroke-width:.797;stroke-linecap:butt;stroke-linejoin:miter;stroke:#000;stroke-opacity:1;stroke-miterlimit:10" d="M 37.87025 62.645312 L 18.823375 62.645312 C 17.506969 62.645312 16.440562 59.98125 16.440562 56.692187 C 16.440562 53.407031 17.506969 50.739062 18.823375 50.739062 L 37.87025 50.739062" transform="matrix(1,0,0,-1,1.786,92.075)"/><path style="fill:none;stroke-width:.797;stroke-linecap:butt;stroke-linejoin:miter;stroke:#000;stroke-opacity:1;stroke-miterlimit:10" d="M 40.253062 56.692187 C 40.253062 53.407031 39.186656 50.739062 37.87025 50.739062 C 36.55775 50.739062 35.491344 53.407031 35.491344 56.692187 C 35.491344 59.98125 36.55775 62.645312 37.87025 62.645312 C 39.186656 62.645312 40.253062 59.98125 40.253062 56.692187 Z M 40.253062 56.692187" transform="matrix(1,0,0,-1,1.786,92.075)"/></g><clipPath id="clip5"><path d="M 170 180 L 173.652344 180 L 173.652344 184 L 170 184 Z M 170 180"/></clipPath><clipPath id="clip6"><path d="M 164 175 L 173.652344 175 L 173.652344 190 L 164 190 Z M 164 175"/></clipPath><clipPath id="clip7"><path d="M 170 124 L 173.652344 124 L 173.652344 128 L 170 128 Z M 170 124"/></clipPath><clipPath id="clip8"><path d="M 164 118 L 173.652344 118 L 173.652344 133 L 164 133 Z M 164 118"/></clipPath><clipPath id="clip9"><path d="M 170 67 L 173.652344 67 L 173.652344 71 L 170 71 Z M 170 67"/></clipPath><clipPath id="clip10"><path d="M 164 61 L 173.652344 61 L 173.652344 77 L 164 77 Z M 164 61"/></clipPath><clipPath id="clip11"><path d="M 170 10 L 173.652344 10 L 173.652344 14 L 170 14 Z M 170 10"/></clipPath><clipPath id="clip12"><path d="M 164 5 L 173.652344 5 L 173.652344 20 L 164 20 Z M 164 5"/></clipPath></defs><g id="surface1"><path style="fill:none;stroke-width:.3985;stroke-linecap:butt;stroke-linejoin:miter;stroke:#000;stroke-opacity:1;stroke-miterlimit:10" d="M -0.00084375 0.00178125 L 12.471813 0.00178125 M 44.221812 0.00178125 L 56.694469 0.00178125 M 113.385875 0.00178125 L 125.858531 0.00178125 M 157.608531 0.00178125 L 170.081187 0.00178125 M -0.00084375 56.693188 L 16.440562 56.693188 M 40.253062 56.693188 L 56.694469 56.693188 M 113.385875 56.693188 L 134.788219 56.693188 M 148.678844 56.693188 L 170.081187 56.693188 M -0.00084375 113.3885 L 16.440562 113.3885 M 40.253062 113.3885 L 56.694469 113.3885 M 113.385875 113.3885 L 129.827281 113.3885 M 153.639781 113.3885 L 170.081187 113.3885 M -0.00084375 170.079906 L 20.409312 170.079906 M 36.284312 170.079906 L 56.694469 170.079906 M 113.385875 170.079906 L 133.796031 170.079906 M 149.671031 170.079906 L 170.081187 170.079906 M -0.00084375 226.775219 L 12.471813 226.775219 M 44.221812 226.775219 L 56.694469 226.775219 M 113.385875 226.775219 L 129.827281 226.775219 M 153.639781 226.775219 L 170.081187 226.775219" transform="matrix(1,0,0,-1,1.786,239.076)"/><path style="fill:none;stroke-width:.797;stroke-linecap:butt;stroke-linejoin:bevel;stroke:#000;stroke-opacity:1;stroke-miterlimit:10" d="M 12.073375 0.00178125 L 15.1515 5.951 L 20.510875 -5.951344 L 25.866344 5.951 L 31.225719 -5.951344 L 36.581187 5.951 L 41.940562 -5.951344 L 44.62025 0.00178125" transform="matrix(1,0,0,-1,1.786,239.076)"/><path style="fill-rule:nonzero;fill:#fff;fill-opacity:1;stroke-width:.3985;stroke-linecap:butt;stroke-linejoin:miter;stroke:#000;stroke-opacity:1;stroke-miterlimit:10" d="M 1.589 0.00178125 C 1.589 0.876781 0.878062 1.587719 -0.00084375 1.587719 C -0.875844 1.587719 -1.586781 0.876781 -1.586781 0.00178125 C -1.586781 -0.877125 -0.875844 -1.588062 -0.00084375 -1.588062 C 0.878062 -1.588062 1.589 -0.877125 1.589 0.00178125 Z M 1.589 0.00178125" transform="matrix(1,0,0,-1,1.786,239.076)"/><path style="fill-rule:nonzero;fill:#fff;fill-opacity:1;stroke-width:.3985;stroke-linecap:butt;stroke-linejoin:miter;stroke:#000;stroke-opacity:1;stroke-miterlimit:10" d="M 58.280406 0.00178125 C 58.280406 0.876781 57.569469 1.587719 56.694469 1.587719 C 55.815562 1.587719 55.104625 0.876781 55.104625 0.00178125 C 55.104625 -0.877125 55.815562 -1.588062 56.694469 -1.588062 C 57.569469 -1.588062 58.280406 -0.877125 58.280406 0.00178125 Z M 58.280406 0.00178125" transform="matrix(1,0,0,-1,1.786,239.076)"/><path style="fill:none;stroke-width:.797;stroke-linecap:butt;stroke-linejoin:bevel;stroke:#000;stroke-opacity:1;stroke-miterlimit:10" d="M 125.460094 0.00178125 L 128.538219 5.951 L 133.897594 -5.951344 L 139.253062 5.951 L 144.612437 -5.951344 L 149.971812 5.951 L 155.327281 -5.951344 L 158.006969 0.00178125" transform="matrix(1,0,0,-1,1.786,239.076)"/><path style="fill:none;stroke-width:.797;stroke-linecap:butt;stroke-linejoin:bevel;stroke:#000;stroke-opacity:1;stroke-miterlimit:10" d="M 148.241344 11.904125 L 136.717906 -9.177906" transform="matrix(1,0,0,-1,1.786,239.076)"/><path style="stroke:none;fill-rule:nonzero;fill:#000;fill-opacity:1" d="M 137.011719 250.980469 C 137.859375 249.96875 139.433594 248.171875 141.199219 247.367188 C 139.328125 247.820312 138.421875 247.324219 137.792969 245.503906 C 138.070312 247.425781 137.40625 249.722656 137.011719 250.980469 Z M 137.011719 250.980469"/><path style="fill-rule:nonzero;fill:#fff;fill-opacity:1;stroke-width:.3985;stroke-linecap:butt;stroke-linejoin:miter;stroke:#000;stroke-opacity:1;stroke-miterlimit:10" d="M 114.975719 0.00178125 C 114.975719 0.876781 114.264781 1.587719 113.385875 1.587719 C 112.510875 1.587719 111.799937 0.876781 111.799937 0.00178125 C 111.799937 -0.877125 112.510875 -1.588062 113.385875 -1.588062 C 114.264781 -1.588062 114.975719 -0.877125 114.975719 0.00178125 Z M 114.975719 0.00178125" transform="matrix(1,0,0,-1,1.786,239.076)"/><g clip-path="url(#clip1)" clip-rule="nonzero"><path style="stroke:none;fill-rule:nonzero;fill:#fff;fill-opacity:1" d="M 173.453125 239.074219 C 173.453125 238.199219 172.742188 237.488281 171.867188 237.488281 C 170.992188 237.488281 170.28125 238.199219 170.28125 239.074219 C 170.28125 239.953125 170.992188 240.664062 171.867188 240.664062 C 172.742188 240.664062 173.453125 239.953125 173.453125 239.074219 Z M 173.453125 239.074219"/></g><g clip-path="url(#clip2)" clip-rule="nonzero"><path style="fill:none;stroke-width:.3985;stroke-linecap:butt;stroke-linejoin:miter;stroke:#000;stroke-opacity:1;stroke-miterlimit:10" d="M 171.667125 0.00178125 C 171.667125 0.876781 170.956187 1.587719 170.081187 1.587719 C 169.206187 1.587719 168.49525 0.876781 168.49525 0.00178125 C 168.49525 -0.877125 169.206187 -1.588062 170.081187 -1.588062 C 170.956187 -1.588062 171.667125 -0.877125 171.667125 0.00178125 Z M 171.667125 0.00178125" transform="matrix(1,0,0,-1,1.786,239.076)"/></g><g clip-path="url(#clip3)" clip-rule="nonzero"><use transform="matrix(1,0,0,1,0,147)" xlink:href="#surface5"/></g><path style="fill:none;stroke-width:.3985;stroke-linecap:butt;stroke-linejoin:miter;stroke:#000;stroke-opacity:1;stroke-miterlimit:10" d="M 37.87025 56.693188 L 40.253062 56.693188" transform="matrix(1,0,0,-1,1.786,239.076)"/><path style="fill-rule:nonzero;fill:#fff;fill-opacity:1;stroke-width:.3985;stroke-linecap:butt;stroke-linejoin:miter;stroke:#000;stroke-opacity:1;stroke-miterlimit:10" d="M 1.589 56.693188 C 1.589 57.572094 0.878062 58.279125 -0.00084375 58.279125 C -0.875844 58.279125 -1.586781 57.572094 -1.586781 56.693188 C -1.586781 55.818188 -0.875844 55.10725 -0.00084375 55.10725 C 0.878062 55.10725 1.589 55.818188 1.589 56.693188 Z M 1.589 56.693188" transform="matrix(1,0,0,-1,1.786,239.076)"/><path style="fill-rule:nonzero;fill:#fff;fill-opacity:1;stroke-width:.3985;stroke-linecap:butt;stroke-linejoin:miter;stroke:#000;stroke-opacity:1;stroke-miterlimit:10" d="M 58.280406 56.693188 C 58.280406 57.572094 57.569469 58.279125 56.694469 58.279125 C 55.815562 58.279125 55.104625 57.572094 55.104625 56.693188 C 55.104625 55.818188 55.815562 55.10725 56.694469 55.10725 C 57.569469 55.10725 58.280406 55.818188 58.280406 56.693188 Z M 58.280406 56.693188" transform="matrix(1,0,0,-1,1.786,239.076)"/><path style="fill:none;stroke-width:.797;stroke-linecap:butt;stroke-linejoin:miter;stroke:#000;stroke-opacity:1;stroke-miterlimit:10" d="M 134.788219 56.693188 L 145.9015 63.6385" transform="matrix(1,0,0,-1,1.786,239.076)"/><path style="fill:none;stroke-width:.797;stroke-linecap:butt;stroke-linejoin:bevel;stroke:#000;stroke-opacity:1;stroke-miterlimit:10" d="M 134.788219 65.029125 C 137.764781 65.029125 140.518687 63.439281 142.006969 60.861156 C 142.710094 59.6385 143.085094 58.275219 143.12025 56.896313" transform="matrix(1,0,0,-1,1.786,239.076)"/><path style="stroke:none;fill-rule:nonzero;fill:#000;fill-opacity:1" d="M 144.40625 185.234375 C 144.714844 183.949219 145.320312 181.640625 146.542969 180.128906 C 145.070312 181.371094 144.035156 181.332031 142.660156 179.984375 C 143.765625 181.578125 144.195312 183.929688 144.40625 185.234375 Z M 144.40625 185.234375"/><path style="fill-rule:nonzero;fill:#fff;fill-opacity:1;stroke-width:.3985;stroke-linecap:butt;stroke-linejoin:miter;stroke:#000;stroke-opacity:1;stroke-miterlimit:10" d="M 114.975719 56.693188 C 114.975719 57.572094 114.264781 58.279125 113.385875 58.279125 C 112.510875 58.279125 111.799937 57.572094 111.799937 56.693188 C 111.799937 55.818188 112.510875 55.10725 113.385875 55.10725 C 114.264781 55.10725 114.975719 55.818188 114.975719 56.693188 Z M 114.975719 56.693188" transform="matrix(1,0,0,-1,1.786,239.076)"/><g clip-path="url(#clip5)" clip-rule="nonzero"><path style="stroke:none;fill-rule:nonzero;fill:#fff;fill-opacity:1" d="M 173.453125 182.382812 C 173.453125 181.503906 172.742188 180.796875 171.867188 180.796875 C 170.992188 180.796875 170.28125 181.503906 170.28125 182.382812 C 170.28125 183.257812 170.992188 183.96875 171.867188 183.96875 C 172.742188 183.96875 173.453125 183.257812 173.453125 182.382812 Z M 173.453125 182.382812"/></g><g clip-path="url(#clip6)" clip-rule="nonzero"><path style="fill:none;stroke-width:.3985;stroke-linecap:butt;stroke-linejoin:miter;stroke:#000;stroke-opacity:1;stroke-miterlimit:10" d="M 171.667125 56.693188 C 171.667125 57.572094 170.956187 58.279125 170.081187 58.279125 C 169.206187 58.279125 168.49525 57.572094 168.49525 56.693188 C 168.49525 55.818188 169.206187 55.10725 170.081187 55.10725 C 170.956187 55.10725 171.667125 55.818188 171.667125 56.693188 Z M 171.667125 56.693188" transform="matrix(1,0,0,-1,1.786,239.076)"/></g><path style="fill:none;stroke-width:.797;stroke-linecap:butt;stroke-linejoin:miter;stroke:#000;stroke-opacity:1;stroke-miterlimit:10" d="M 28.346812 125.29475 C 21.772594 125.29475 16.440562 119.962719 16.440562 113.3885 C 16.440562 106.810375 21.772594 101.48225 28.346812 101.48225 C 34.921031 101.48225 40.253062 106.810375 40.253062 113.3885 C 40.253062 119.962719 34.921031 125.29475 28.346812 125.29475 Z M 28.346812 125.29475 L 28.346812 101.48225" transform="matrix(1,0,0,-1,1.786,239.076)"/><path style="fill-rule:nonzero;fill:#fff;fill-opacity:1;stroke-width:.3985;stroke-linecap:butt;stroke-linejoin:miter;stroke:#000;stroke-opacity:1;stroke-miterlimit:10" d="M 1.589 113.3885 C 1.589 114.2635 0.878062 114.974438 -0.00084375 114.974438 C -0.875844 114.974438 -1.586781 114.2635 -1.586781 113.3885 C -1.586781 112.509594 -0.875844 111.798656 -0.00084375 111.798656 C 0.878062 111.798656 1.589 112.509594 1.589 113.3885 Z M 1.589 113.3885" transform="matrix(1,0,0,-1,1.786,239.076)"/><path style="fill-rule:nonzero;fill:#fff;fill-opacity:1;stroke-width:.3985;stroke-linecap:butt;stroke-linejoin:miter;stroke:#000;stroke-opacity:1;stroke-miterlimit:10" d="M 58.280406 113.3885 C 58.280406 114.2635 57.569469 114.974438 56.694469 114.974438 C 55.815562 114.974438 55.104625 114.2635 55.104625 113.3885 C 55.104625 112.509594 55.815562 111.798656 56.694469 111.798656 C 57.569469 111.798656 58.280406 112.509594 58.280406 113.3885 Z M 58.280406 113.3885" transform="matrix(1,0,0,-1,1.786,239.076)"/><path style="fill:none;stroke-width:.797;stroke-linecap:butt;stroke-linejoin:miter;stroke:#000;stroke-opacity:1;stroke-miterlimit:10" d="M 141.733531 125.29475 C 135.159312 125.29475 129.827281 119.962719 129.827281 113.3885 C 129.827281 106.810375 135.159312 101.48225 141.733531 101.48225 C 148.30775 101.48225 153.639781 106.810375 153.639781 113.3885 C 153.639781 119.962719 148.30775 125.29475 141.733531 125.29475 Z M 141.733531 125.29475" transform="matrix(1,0,0,-1,1.786,239.076)"/><path style="fill:none;stroke-width:.797;stroke-linecap:butt;stroke-linejoin:miter;stroke:#000;stroke-opacity:1;stroke-miterlimit:10" d="M 129.827281 113.3885 L 153.639781 113.3885" transform="matrix(1,0,0,-1,1.786,239.076)"/><path style="fill-rule:nonzero;fill:#fff;fill-opacity:1;stroke-width:.3985;stroke-linecap:butt;stroke-linejoin:miter;stroke:#000;stroke-opacity:1;stroke-miterlimit:10" d="M 114.975719 113.3885 C 114.975719 114.2635 114.264781 114.974438 113.385875 114.974438 C 112.510875 114.974438 111.799937 114.2635 111.799937 113.3885 C 111.799937 112.509594 112.510875 111.798656 113.385875 111.798656 C 114.264781 111.798656 114.975719 112.509594 114.975719 113.3885 Z M 114.975719 113.3885" transform="matrix(1,0,0,-1,1.786,239.076)"/><g clip-path="url(#clip7)" clip-rule="nonzero"><path style="stroke:none;fill-rule:nonzero;fill:#fff;fill-opacity:1" d="M 173.453125 125.6875 C 173.453125 124.8125 172.742188 124.101562 171.867188 124.101562 C 170.992188 124.101562 170.28125 124.8125 170.28125 125.6875 C 170.28125 126.566406 170.992188 127.277344 171.867188 127.277344 C 172.742188 127.277344 173.453125 126.566406 173.453125 125.6875 Z M 173.453125 125.6875"/></g><g clip-path="url(#clip8)" clip-rule="nonzero"><path style="fill:none;stroke-width:.3985;stroke-linecap:butt;stroke-linejoin:miter;stroke:#000;stroke-opacity:1;stroke-miterlimit:10" d="M 171.667125 113.3885 C 171.667125 114.2635 170.956187 114.974438 170.081187 114.974438 C 169.206187 114.974438 168.49525 114.2635 168.49525 113.3885 C 168.49525 112.509594 169.206187 111.798656 170.081187 111.798656 C 170.956187 111.798656 171.667125 112.509594 171.667125 113.3885 Z M 171.667125 113.3885" transform="matrix(1,0,0,-1,1.786,239.076)"/></g><path style="fill:none;stroke-width:.797;stroke-linecap:butt;stroke-linejoin:miter;stroke:#000;stroke-opacity:1;stroke-miterlimit:10" d="M 36.284312 170.079906 L 20.409312 180.001781 L 20.409312 160.158031 Z M 36.284312 170.079906" transform="matrix(1,0,0,-1,1.786,239.076)"/><path style="fill:none;stroke-width:.797;stroke-linecap:butt;stroke-linejoin:miter;stroke:#000;stroke-opacity:1;stroke-miterlimit:10" d="M 36.284312 160.158031 L 36.284312 180.001781" transform="matrix(1,0,0,-1,1.786,239.076)"/><path style="fill-rule:nonzero;fill:#fff;fill-opacity:1;stroke-width:.3985;stroke-linecap:butt;stroke-linejoin:miter;stroke:#000;stroke-opacity:1;stroke-miterlimit:10" d="M 1.589 170.079906 C 1.589 170.958813 0.878062 171.66975 -0.00084375 171.66975 C -0.875844 171.66975 -1.586781 170.958813 -1.586781 170.079906 C -1.586781 169.204906 -0.875844 168.493969 -0.00084375 168.493969 C 0.878062 168.493969 1.589 169.204906 1.589 170.079906 Z M 1.589 170.079906" transform="matrix(1,0,0,-1,1.786,239.076)"/><path style="fill-rule:nonzero;fill:#fff;fill-opacity:1;stroke-width:.3985;stroke-linecap:butt;stroke-linejoin:miter;stroke:#000;stroke-opacity:1;stroke-miterlimit:10" d="M 58.280406 170.079906 C 58.280406 170.958813 57.569469 171.66975 56.694469 171.66975 C 55.815562 171.66975 55.104625 170.958813 55.104625 170.079906 C 55.104625 169.204906 55.815562 168.493969 56.694469 168.493969 C 57.569469 168.493969 58.280406 169.204906 58.280406 170.079906 Z M 58.280406 170.079906" transform="matrix(1,0,0,-1,1.786,239.076)"/><path style="fill-rule:nonzero;fill:#000;fill-opacity:1;stroke-width:.797;stroke-linecap:butt;stroke-linejoin:miter;stroke:#000;stroke-opacity:1;stroke-miterlimit:10" d="M 149.671031 170.079906 L 133.796031 180.001781 L 133.796031 160.158031 L 149.671031 170.079906" transform="matrix(1,0,0,-1,1.786,239.076)"/><path style="fill:none;stroke-width:.797;stroke-linecap:butt;stroke-linejoin:miter;stroke:#000;stroke-opacity:1;stroke-miterlimit:10" d="M 149.671031 160.158031 L 149.671031 180.001781" transform="matrix(1,0,0,-1,1.786,239.076)"/><path style="fill:none;stroke-width:.3985;stroke-linecap:butt;stroke-linejoin:miter;stroke:#000;stroke-opacity:1;stroke-miterlimit:10" d="M 138.55775 180.001781 L 145.003062 188.056469" transform="matrix(1,0,0,-1,1.786,239.076)"/><path style="stroke:none;fill-rule:nonzero;fill:#000;fill-opacity:1" d="M 148.28125 49.152344 C 147.503906 49.804688 146.074219 50.957031 144.625 51.332031 C 146.105469 51.238281 146.726562 51.734375 146.960938 53.199219 C 147.007812 51.703125 147.816406 50.054688 148.28125 49.152344 Z M 148.28125 49.152344"/><path style="fill:none;stroke-width:.3985;stroke-linecap:butt;stroke-linejoin:miter;stroke:#000;stroke-opacity:1;stroke-miterlimit:10" d="M 143.319469 178.017406 L 149.764781 186.072094" transform="matrix(1,0,0,-1,1.786,239.076)"/><path style="stroke:none;fill-rule:nonzero;fill:#000;fill-opacity:1" d="M 153.042969 51.136719 C 152.265625 51.789062 150.835938 52.941406 149.386719 53.316406 C 150.867188 53.222656 151.488281 53.71875 151.722656 55.183594 C 151.769531 53.6875 152.578125 52.039062 153.042969 51.136719 Z M 153.042969 51.136719"/><path style="fill-rule:nonzero;fill:#fff;fill-opacity:1;stroke-width:.3985;stroke-linecap:butt;stroke-linejoin:miter;stroke:#000;stroke-opacity:1;stroke-miterlimit:10" d="M 114.975719 170.079906 C 114.975719 170.958813 114.264781 171.66975 113.385875 171.66975 C 112.510875 171.66975 111.799937 170.958813 111.799937 170.079906 C 111.799937 169.204906 112.510875 168.493969 113.385875 168.493969 C 114.264781 168.493969 114.975719 169.204906 114.975719 170.079906 Z M 114.975719 170.079906" transform="matrix(1,0,0,-1,1.786,239.076)"/><g clip-path="url(#clip9)" clip-rule="nonzero"><path style="stroke:none;fill-rule:nonzero;fill:#fff;fill-opacity:1" d="M 173.453125 68.996094 C 173.453125 68.117188 172.742188 67.40625 171.867188 67.40625 C 170.992188 67.40625 170.28125 68.117188 170.28125 68.996094 C 170.28125 69.871094 170.992188 70.582031 171.867188 70.582031 C 172.742188 70.582031 173.453125 69.871094 173.453125 68.996094 Z M 173.453125 68.996094"/></g><g clip-path="url(#clip10)" clip-rule="nonzero"><path style="fill:none;stroke-width:.3985;stroke-linecap:butt;stroke-linejoin:miter;stroke:#000;stroke-opacity:1;stroke-miterlimit:10" d="M 171.667125 170.079906 C 171.667125 170.958813 170.956187 171.66975 170.081187 171.66975 C 169.206187 171.66975 168.49525 170.958813 168.49525 170.079906 C 168.49525 169.204906 169.206187 168.493969 170.081187 168.493969 C 170.956187 168.493969 171.667125 169.204906 171.667125 170.079906 Z M 171.667125 170.079906" transform="matrix(1,0,0,-1,1.786,239.076)"/></g><path style="fill:none;stroke-width:.797;stroke-linecap:butt;stroke-linejoin:miter;stroke:#000;stroke-opacity:1;stroke-miterlimit:10" d="M 12.471813 232.728344 L 44.221812 232.728344 L 44.221812 220.822094 L 12.471813 220.822094 Z M 12.471813 232.728344" transform="matrix(1,0,0,-1,1.786,239.076)"/><path style="fill-rule:nonzero;fill:#fff;fill-opacity:1;stroke-width:.3985;stroke-linecap:butt;stroke-linejoin:miter;stroke:#000;stroke-opacity:1;stroke-miterlimit:10" d="M 1.589 226.775219 C 1.589 227.650219 0.878062 228.361156 -0.00084375 228.361156 C -0.875844 228.361156 -1.586781 227.650219 -1.586781 226.775219 C -1.586781 225.896313 -0.875844 225.185375 -0.00084375 225.185375 C 0.878062 225.185375 1.589 225.896313 1.589 226.775219 Z M 1.589 226.775219" transform="matrix(1,0,0,-1,1.786,239.076)"/><path style="fill-rule:nonzero;fill:#fff;fill-opacity:1;stroke-width:.3985;stroke-linecap:butt;stroke-linejoin:miter;stroke:#000;stroke-opacity:1;stroke-miterlimit:10" d="M 58.280406 226.775219 C 58.280406 227.650219 57.569469 228.361156 56.694469 228.361156 C 55.815562 228.361156 55.104625 227.650219 55.104625 226.775219 C 55.104625 225.896313 55.815562 225.185375 56.694469 225.185375 C 57.569469 225.185375 58.280406 225.896313 58.280406 226.775219 Z M 58.280406 226.775219" transform="matrix(1,0,0,-1,1.786,239.076)"/><path style="fill:none;stroke-width:.797;stroke-linecap:butt;stroke-linejoin:miter;stroke:#000;stroke-opacity:1;stroke-miterlimit:10" d="M 141.733531 238.681469 C 135.159312 238.681469 129.827281 233.349438 129.827281 226.775219 C 129.827281 220.201 135.159312 214.868969 141.733531 214.868969 C 148.30775 214.868969 153.639781 220.201 153.639781 226.775219 C 153.639781 233.349438 148.30775 238.681469 141.733531 238.681469 Z M 141.733531 238.681469" transform="matrix(1,0,0,-1,1.786,239.076)"/><path style="fill:none;stroke-width:.797;stroke-linecap:butt;stroke-linejoin:miter;stroke:#000;stroke-opacity:1;stroke-miterlimit:10" d="M 141.733531 220.822094 C 140.210094 221.790844 138.756969 222.720531 138.756969 223.798656 C 138.756969 224.876781 140.210094 225.802563 141.733531 226.775219 C 143.256969 227.743969 144.710094 228.673656 144.710094 229.751781 C 144.710094 230.829906 143.256969 231.755688 141.733531 232.728344" transform="matrix(1,0,0,-1,1.786,239.076)"/><path style="fill-rule:nonzero;fill:#fff;fill-opacity:1;stroke-width:.3985;stroke-linecap:butt;stroke-linejoin:miter;stroke:#000;stroke-opacity:1;stroke-miterlimit:10" d="M 114.975719 226.775219 C 114.975719 227.650219 114.264781 228.361156 113.385875 228.361156 C 112.510875 228.361156 111.799937 227.650219 111.799937 226.775219 C 111.799937 225.896313 112.510875 225.185375 113.385875 225.185375 C 114.264781 225.185375 114.975719 225.896313 114.975719 226.775219 Z M 114.975719 226.775219" transform="matrix(1,0,0,-1,1.786,239.076)"/><g clip-path="url(#clip11)" clip-rule="nonzero"><path style="stroke:none;fill-rule:nonzero;fill:#fff;fill-opacity:1" d="M 173.453125 12.300781 C 173.453125 11.425781 172.742188 10.714844 171.867188 10.714844 C 170.992188 10.714844 170.28125 11.425781 170.28125 12.300781 C 170.28125 13.179688 170.992188 13.890625 171.867188 13.890625 C 172.742188 13.890625 173.453125 13.179688 173.453125 12.300781 Z M 173.453125 12.300781"/></g><g clip-path="url(#clip12)" clip-rule="nonzero"><path style="fill:none;stroke-width:.3985;stroke-linecap:butt;stroke-linejoin:miter;stroke:#000;stroke-opacity:1;stroke-miterlimit:10" d="M 171.667125 226.775219 C 171.667125 227.650219 170.956187 228.361156 170.081187 228.361156 C 169.206187 228.361156 168.49525 227.650219 168.49525 226.775219 C 168.49525 225.896313 169.206187 225.185375 170.081187 225.185375 C 170.956187 225.185375 171.667125 225.896313 171.667125 226.775219 Z M 171.667125 226.775219" transform="matrix(1,0,0,-1,1.786,239.076)"/></g></g></svg>