<svg xmlns="http://www.w3.org/2000/svg" xmlns:svg="http://www.w3.org/2000/svg" id="svg8" width="813.594" height="697.07" version="1.1" viewBox="0 0 215.263 184.433"><defs id="defs2"><marker style="overflow:visible" id="marker2165" orient="auto" refX="0" refY="0"><path style="fill:#000;fill-opacity:1;fill-rule:evenodd;stroke:#000;stroke-width:.625;stroke-linejoin:round;stroke-opacity:1" id="path2163" d="M 8.7185878,4.0337352 -2.2072895,0.01601326 8.7185884,-4.0017078 c -1.7454984,2.3720609 -1.7354408,5.6174519 -6e-7,8.035443 z" transform="matrix(-1.1,0,0,-1.1,-1.1,0)"/></marker><marker id="marker2063" orient="auto" refX="0" refY="0" style="overflow:visible"><path id="path2061" d="M 8.7185878,4.0337352 -2.2072895,0.01601326 8.7185884,-4.0017078 c -1.7454984,2.3720609 -1.7354408,5.6174519 -6e-7,8.035443 z" transform="matrix(-1.1,0,0,-1.1,-1.1,0)" style="fill:#000;fill-opacity:1;fill-rule:evenodd;stroke:#000;stroke-width:.625;stroke-linejoin:round;stroke-opacity:1"/></marker><marker style="overflow:visible" id="marker1967" orient="auto" refX="0" refY="0"><path style="fill:#000;fill-opacity:1;fill-rule:evenodd;stroke:#000;stroke-width:.625;stroke-linejoin:round;stroke-opacity:1" id="path1965" d="M 8.7185878,4.0337352 -2.2072895,0.01601326 8.7185884,-4.0017078 c -1.7454984,2.3720609 -1.7354408,5.6174519 -6e-7,8.035443 z" transform="matrix(-1.1,0,0,-1.1,-1.1,0)"/></marker><marker id="marker1877" orient="auto" refX="0" refY="0" style="overflow:visible"><path id="path1875" d="M 8.7185878,4.0337352 -2.2072895,0.01601326 8.7185884,-4.0017078 c -1.7454984,2.3720609 -1.7354408,5.6174519 -6e-7,8.035443 z" transform="matrix(-1.1,0,0,-1.1,-1.1,0)" style="fill:#000;fill-opacity:1;fill-rule:evenodd;stroke:#000;stroke-width:.625;stroke-linejoin:round;stroke-opacity:1"/></marker><marker style="overflow:visible" id="marker1787" orient="auto" refX="0" refY="0"><path style="fill:#000;fill-opacity:1;fill-rule:evenodd;stroke:#000;stroke-width:.625;stroke-linejoin:round;stroke-opacity:1" id="path1785" d="M 8.7185878,4.0337352 -2.2072895,0.01601326 8.7185884,-4.0017078 c -1.7454984,2.3720609 -1.7354408,5.6174519 -6e-7,8.035443 z" transform="matrix(-1.1,0,0,-1.1,-1.1,0)"/></marker><marker id="marker1709" orient="auto" refX="0" refY="0" style="overflow:visible"><path id="path1707" d="M 8.7185878,4.0337352 -2.2072895,0.01601326 8.7185884,-4.0017078 c -1.7454984,2.3720609 -1.7354408,5.6174519 -6e-7,8.035443 z" transform="matrix(-1.1,0,0,-1.1,-1.1,0)" style="fill:#000;fill-opacity:1;fill-rule:evenodd;stroke:#000;stroke-width:.625;stroke-linejoin:round;stroke-opacity:1"/></marker><marker style="overflow:visible" id="marker1619" orient="auto" refX="0" refY="0"><path style="fill:#000;fill-opacity:1;fill-rule:evenodd;stroke:#000;stroke-width:.625;stroke-linejoin:round;stroke-opacity:1" id="path1617" d="M 8.7185878,4.0337352 -2.2072895,0.01601326 8.7185884,-4.0017078 c -1.7454984,2.3720609 -1.7354408,5.6174519 -6e-7,8.035443 z" transform="matrix(-1.1,0,0,-1.1,-1.1,0)"/></marker><marker id="marker1553" orient="auto" refX="0" refY="0" style="overflow:visible"><path id="path1551" d="M 8.7185878,4.0337352 -2.2072895,0.01601326 8.7185884,-4.0017078 c -1.7454984,2.3720609 -1.7354408,5.6174519 -6e-7,8.035443 z" transform="matrix(-1.1,0,0,-1.1,-1.1,0)" style="fill:#000;fill-opacity:1;fill-rule:evenodd;stroke:#000;stroke-width:.625;stroke-linejoin:round;stroke-opacity:1"/></marker><marker style="overflow:visible" id="marker1493" orient="auto" refX="0" refY="0"><path style="fill:#000;fill-opacity:1;fill-rule:evenodd;stroke:#000;stroke-width:.625;stroke-linejoin:round;stroke-opacity:1" id="path1491" d="M 8.7185878,4.0337352 -2.2072895,0.01601326 8.7185884,-4.0017078 c -1.7454984,2.3720609 -1.7354408,5.6174519 -6e-7,8.035443 z" transform="matrix(-1.1,0,0,-1.1,-1.1,0)"/></marker><marker id="marker1439" orient="auto" refX="0" refY="0" style="overflow:visible"><path id="path1437" d="M 8.7185878,4.0337352 -2.2072895,0.01601326 8.7185884,-4.0017078 c -1.7454984,2.3720609 -1.7354408,5.6174519 -6e-7,8.035443 z" transform="matrix(-1.1,0,0,-1.1,-1.1,0)" style="fill:#000;fill-opacity:1;fill-rule:evenodd;stroke:#000;stroke-width:.625;stroke-linejoin:round;stroke-opacity:1"/></marker><marker style="overflow:visible" id="Arrow2Lend" orient="auto" refX="0" refY="0"><path style="fill:#000;fill-opacity:1;fill-rule:evenodd;stroke:#000;stroke-width:.625;stroke-linejoin:round;stroke-opacity:1" id="path934" d="M 8.7185878,4.0337352 -2.2072895,0.01601326 8.7185884,-4.0017078 c -1.7454984,2.3720609 -1.7354408,5.6174519 -6e-7,8.035443 z" transform="matrix(-1.1,0,0,-1.1,-1.1,0)"/></marker><marker id="marker1367" orient="auto" refX="0" refY="0" style="overflow:visible"><path id="path1365" d="M 8.7185878,4.0337352 -2.2072895,0.01601326 8.7185884,-4.0017078 c -1.7454984,2.3720609 -1.7354408,5.6174519 -6e-7,8.035443 z" transform="matrix(1.1,0,0,1.1,1.1,0)" style="fill:#000;fill-opacity:1;fill-rule:evenodd;stroke:#000;stroke-width:.625;stroke-linejoin:round;stroke-opacity:1"/></marker><marker style="overflow:visible" id="Arrow2Lstart" orient="auto" refX="0" refY="0"><path style="fill:#000;fill-opacity:1;fill-rule:evenodd;stroke:#000;stroke-width:.625;stroke-linejoin:round;stroke-opacity:1" id="path931" d="M 8.7185878,4.0337352 -2.2072895,0.01601326 8.7185884,-4.0017078 c -1.7454984,2.3720609 -1.7354408,5.6174519 -6e-7,8.035443 z" transform="matrix(1.1,0,0,1.1,1.1,0)"/></marker><marker style="overflow:visible" id="marker1211" orient="auto" refX="0" refY="0"><path style="fill:#000;fill-opacity:1;fill-rule:evenodd;stroke:#000;stroke-width:1pt;stroke-opacity:1" id="path1209" d="M 0,0 5,-5 -12.5,0 5,5 Z" transform="matrix(0.8,0,0,0.8,10,0)"/></marker><marker style="overflow:visible" id="Arrow1Lstart" orient="auto" refX="0" refY="0"><path style="fill:#000;fill-opacity:1;fill-rule:evenodd;stroke:#000;stroke-width:1pt;stroke-opacity:1" id="path913" d="M 0,0 5,-5 -12.5,0 5,5 Z" transform="matrix(0.8,0,0,0.8,10,0)"/></marker></defs><metadata id="metadata5"/><g id="layer1" transform="translate(0.49937874,-19.429262)"><text id="text12" x="-.499" y="113.858" xml:space="preserve" style="font-style:normal;font-weight:400;font-size:10.5833px;line-height:1.25;font-family:sans-serif;fill:#000;fill-opacity:1;stroke:none;stroke-width:.264583"><tspan style="stroke-width:.264583" id="tspan10" x="-.499" y="113.858">bytes</tspan><tspan id="tspan30" x="-.499" y="127.087" style="stroke-width:.264583">b&apos;abc\x99&apos;&apos;</tspan></text><text id="text16" x="96.4" y="27.47" xml:space="preserve" style="font-style:normal;font-weight:400;font-size:10.5833px;line-height:1.25;font-family:sans-serif;fill:#000;fill-opacity:1;stroke:none;stroke-width:.264583"><tspan style="stroke-width:.264583" id="tspan14" x="96.4" y="27.47">binary</tspan><tspan id="tspan32" x="96.4" y="40.699" style="stroke-width:.264583">&apos;0001010&apos;</tspan></text><text id="text20" x="181.65" y="112.755" xml:space="preserve" style="font-style:normal;font-weight:400;font-size:10.5833px;line-height:1.25;font-family:sans-serif;fill:#000;fill-opacity:1;stroke:none;stroke-width:.264583"><tspan style="stroke-width:.264583" id="tspan18" x="181.65" y="112.755">hex</tspan><tspan id="tspan34" x="181.65" y="125.984" style="stroke-width:.264583">0xff93</tspan></text><text id="text24" x="46.582" y="190.473" xml:space="preserve" style="font-style:normal;font-weight:400;font-size:10.5833px;line-height:1.25;font-family:sans-serif;fill:#000;fill-opacity:1;stroke:none;stroke-width:.264583"><tspan style="stroke-width:.264583" id="tspan22" x="46.582" y="190.473">str</tspan><tspan id="tspan38" x="46.582" y="203.702" style="stroke-width:.264583">&apos;abcd&apos;</tspan></text><text id="text28" x="153.151" y="188.523" xml:space="preserve" style="font-style:normal;font-weight:400;font-size:10.5833px;line-height:1.25;font-family:sans-serif;fill:#000;fill-opacity:1;stroke:none;stroke-width:.264583"><tspan style="stroke-width:.264583" id="tspan26" x="153.151" y="188.523">int</tspan><tspan id="tspan36" x="153.151" y="201.752" style="stroke-width:.264583">32</tspan></text><text id="text44" x="-187.657" y="87.761" transform="rotate(-107.36331)" xml:space="preserve" style="font-style:normal;font-weight:400;font-size:4.23333px;line-height:1.25;font-family:sans-serif;fill:#000;fill-opacity:1;stroke:none;stroke-width:.264583"><tspan style="font-size:4.23333px;stroke-width:.264583" id="tspan42" x="-187.657" y="87.761">bin</tspan></text><text id="text52" x="159.803" y="-125.772" transform="rotate(79.587216)" xml:space="preserve" style="font-style:normal;font-weight:400;font-size:4.23333px;line-height:1.25;font-family:sans-serif;fill:#000;fill-opacity:1;stroke:none;stroke-width:.264583"><tspan style="font-size:4.23333px;stroke-width:.264583" id="tspan50" x="159.803" y="-125.772">int(x, base=2)</tspan></text><text id="text56" x="148.793" y="65.01" transform="rotate(64.735484)" xml:space="preserve" style="font-style:normal;font-weight:400;font-size:4.23333px;line-height:1.25;font-family:sans-serif;fill:#000;fill-opacity:1;stroke:none;stroke-width:.264583"><tspan style="font-size:4.23333px;stroke-width:.264583" id="tspan54" x="148.793" y="65.01">decode</tspan></text><text id="text60" x="150.28" y="34.174" transform="rotate(67.348214)" xml:space="preserve" style="font-style:normal;font-weight:400;font-size:4.23333px;line-height:1.25;font-family:sans-serif;fill:#000;fill-opacity:1;stroke:none;stroke-width:.264583"><tspan style="font-size:4.23333px;stroke-width:.264583" id="tspan58" x="150.28" y="34.174">encode</tspan></text><text id="text64" x="109.459" y="187.359" xml:space="preserve" style="font-style:normal;font-weight:400;font-size:4.23333px;line-height:1.25;font-family:sans-serif;fill:#000;fill-opacity:1;stroke:none;stroke-width:.264583"><tspan style="font-size:4.23333px;stroke-width:.264583" id="tspan62" x="109.459" y="187.359">chr</tspan></text><text id="text68" x="108.656" y="202.194" xml:space="preserve" style="font-style:normal;font-weight:400;font-size:4.23333px;line-height:1.25;font-family:sans-serif;fill:#000;fill-opacity:1;stroke:none;stroke-width:.264583"><tspan style="font-size:4.23333px;stroke-width:.264583" id="tspan66" x="108.656" y="202.194">ord</tspan></text><text id="text72" x="-18.678" y="239.576" transform="rotate(-53.247574)" xml:space="preserve" style="font-style:normal;font-weight:400;font-size:4.23333px;line-height:1.25;font-family:sans-serif;fill:#000;fill-opacity:1;stroke:none;stroke-width:.264583"><tspan style="font-size:4.23333px;stroke-width:.264583" id="tspan70" x="-18.678" y="239.576">hex</tspan></text><text id="text76" x="-43.92" y="263.101" transform="rotate(-54.893483)" xml:space="preserve" style="font-style:normal;font-weight:400;font-size:4.23333px;line-height:1.25;font-family:sans-serif;fill:#000;fill-opacity:1;stroke:none;stroke-width:.264583"><tspan style="font-size:4.23333px;stroke-width:.264583" id="tspan74" x="-43.92" y="263.101">int(x, base=16)</tspan></text><text id="text80" x="60.269" y="111.969" xml:space="preserve" style="font-style:normal;font-weight:400;font-size:4.23333px;line-height:1.25;font-family:sans-serif;fill:#000;fill-opacity:1;stroke:none;stroke-width:.264583"><tspan style="font-size:4.23333px;stroke-width:.264583" id="tspan78" x="60.269" y="111.969">binascii.hexify</tspan></text><text id="text84" x="58.555" y="127.394" xml:space="preserve" style="font-style:normal;font-weight:400;font-size:4.23333px;line-height:1.25;font-family:sans-serif;fill:#000;fill-opacity:1;stroke:none;stroke-width:.264583"><tspan style="font-size:4.23333px;stroke-width:.264583" id="tspan82" x="58.555" y="127.394">binascii.unhexify</tspan></text><path id="path1189" d="M 77.693075,191.66196 147.9596,190.51942" style="fill:#000;fill-opacity:1;stroke:#000;stroke-width:.452;stroke-linecap:round;stroke-miterlimit:4;stroke-dasharray:none;stroke-opacity:1;marker-start:url(#Arrow2Lstart)"/><path id="path1323" d="M 79.756626,197.12424 147.243,195.92389" style="fill:#000;fill-opacity:1;stroke:#000;stroke-width:.452001;stroke-linecap:round;stroke-miterlimit:4;stroke-dasharray:none;stroke-opacity:1;marker-end:url(#Arrow2Lend)"/><text id="text1429" x="-24.976" y="79.995" transform="rotate(-35.065287)" xml:space="preserve" style="font-style:normal;font-weight:400;font-size:4.23333px;line-height:1.25;font-family:sans-serif;fill:#000;fill-opacity:1;stroke:none;stroke-width:.264583"><tspan style="font-size:4.23333px;stroke-width:.264583" id="tspan1427" x="-24.976" y="79.995">[&quot;{:08b}&quot;.format(x) for x in b]</tspan></text><text id="text1433" x="-30.883" y="107.503" transform="rotate(-36.511007)" xml:space="preserve" style="font-style:normal;font-weight:400;font-size:4.23333px;line-height:1.25;font-family:sans-serif;fill:#000;fill-opacity:1;stroke:none;stroke-width:.264583"><tspan style="font-size:4.23333px;stroke-width:.264583" id="tspan1431" x="-30.883" y="107.503">bytes(int(s[i:i+8], 2) for i in range(0, len(s), 8))</tspan></text><path id="path1435" d="m 17.931446,102.11806 c 0,0 37.078582,-51.059028 76.588549,-62.912017" style="fill:none;fill-opacity:1;stroke:#000;stroke-width:.452;stroke-linecap:round;stroke-miterlimit:4;stroke-dasharray:none;stroke-opacity:1;marker-end:url(#marker1439)"/><path id="path1489" d="m 98.254362,47.995485 c 0,0 -43.681618,20.596982 -66.096271,55.985095" style="fill:none;fill-opacity:1;stroke:#000;stroke-width:.452001;stroke-linecap:round;stroke-miterlimit:4;stroke-dasharray:none;stroke-opacity:1;marker-end:url(#marker1493)"/><path id="path1549" d="m 48.323727,185.69684 c 0,0 -27.656976,-14.28437 -31.607972,-51.36296" style="fill:none;fill-opacity:1;stroke:#000;stroke-width:.452001;stroke-linecap:round;stroke-miterlimit:4;stroke-dasharray:none;stroke-opacity:1;marker-end:url(#marker1553)"/><path id="path1615" d="m 8.8137615,133.11819 c 0,0 -7.5980702,43.76489 31.3040505,59.26495" style="fill:none;fill-opacity:1;stroke:#000;stroke-width:.452001;stroke-linecap:round;stroke-miterlimit:4;stroke-dasharray:none;stroke-opacity:1;marker-end:url(#marker1619)"/><path id="path1705" d="m 169.02491,178.29093 c 0,0 24.28336,-21.40769 27.79806,-44.09346" style="fill:none;fill-opacity:1;stroke:#000;stroke-width:.452001;stroke-linecap:round;stroke-miterlimit:4;stroke-dasharray:none;stroke-opacity:1;marker-end:url(#marker1709)"/><path id="path1783" d="m 204.17187,133.23892 c 0,0 2.87566,32.91034 -30.35419,57.51321" style="fill:none;fill-opacity:1;stroke:#000;stroke-width:.452001;stroke-linecap:round;stroke-miterlimit:4;stroke-dasharray:none;stroke-opacity:1;marker-end:url(#marker1787)"/><path id="path1873" d="m 60.16113,115.88933 118.1058,-2.21646" style="fill:none;fill-opacity:1;stroke:#000;stroke-width:.452001;stroke-linecap:round;stroke-miterlimit:4;stroke-dasharray:none;stroke-opacity:1;marker-end:url(#marker1877)"/><path id="path1963" d="M 177.00038,120.6389 60.477767,122.53872" style="fill:none;fill-opacity:1;stroke:#000;stroke-width:.452001;stroke-linecap:round;stroke-miterlimit:4;stroke-dasharray:none;stroke-opacity:1;marker-end:url(#marker1967)"/><path id="path2059" d="M 130.45466,46.229079 157.05221,175.10055" style="fill:none;fill-opacity:1;stroke:#000;stroke-width:.452001;stroke-linecap:round;stroke-miterlimit:4;stroke-dasharray:none;stroke-opacity:1;marker-end:url(#marker2063)"/><path id="path2161" d="M 149.45291,179.85011 123.80527,46.862354" style="fill:none;fill-opacity:1;stroke:#000;stroke-width:.452001;stroke-linecap:round;stroke-miterlimit:4;stroke-dasharray:none;stroke-opacity:1;marker-end:url(#marker2165)"/></g></svg>