<svg xmlns="http://www.w3.org/2000/svg" xmlns:svg="http://www.w3.org/2000/svg" id="svg8" width="670.528" height="263.961" version="1.1" viewBox="0 0 177.411 69.84"><metadata id="metadata5"/><g id="layer1" transform="translate(-15.646984,-41.262977)"><g id="g3119"><g id="g3072" transform="matrix(1,0,0,-1,9.765625e-7,168.68966)"><path id="path3066" d="M 111.61975,84.655265 V 97.348433" style="fill:none;fill-opacity:1;stroke:red;stroke-width:1.85208;stroke-linecap:round;stroke-miterlimit:4;stroke-dasharray:none;stroke-opacity:1"/><path style="fill:none;fill-opacity:1;stroke:red;stroke-width:1.85208;stroke-linecap:round;stroke-miterlimit:4;stroke-dasharray:none;stroke-opacity:1" id="path3068" d="m 115.80451,97.348433 h -8.36952"/></g><path id="path851" d="M 46.980278,59.134072 A 25.521262,25.521262 0 0 0 21.541198,84.655256 25.521262,25.521262 0 0 0 47.062382,110.1765 25.521262,25.521262 0 0 0 72.583565,84.655256 25.521262,25.521262 0 0 0 47.062382,59.134072 a 25.521262,25.521262 0 0 0 -0.0821,0 z m 0.05386,3.828021 a 21.693073,21.693073 0 0 1 0.02824,0 21.693073,21.693073 0 0 1 21.693157,21.693163 21.693073,21.693073 0 0 1 -21.693157,21.693194 21.693073,21.693073 0 0 1 -21.69316,-21.693194 21.693073,21.693073 0 0 1 21.66492,-21.693163 z" style="fill:#b3b3b3;fill-opacity:1;stroke:red;stroke-width:1.85208;stroke-miterlimit:4;stroke-dasharray:none"/><path id="path870" d="M 17.181239,84.451837 A 29.881835,29.881835 0 0 1 47.062385,54.773403 29.881835,29.881835 0 0 1 76.943524,84.45121" style="fill:none;fill-opacity:1;stroke:red;stroke-width:1.85208;stroke-miterlimit:4;stroke-dasharray:none"/><path style="fill:#b3b3b3;fill-opacity:1;stroke:red;stroke-width:1.85208;stroke-miterlimit:4;stroke-dasharray:none" id="path862" d="m 157.74306,59.125249 a 25.521262,25.521262 0 0 0 -25.43908,25.521184 25.521262,25.521262 0 0 0 25.52118,25.521247 25.521262,25.521262 0 0 0 25.52119,-25.521247 25.521262,25.521262 0 0 0 -25.52119,-25.521184 25.521262,25.521262 0 0 0 -0.0821,0 z m 0.0539,3.828021 a 21.693073,21.693073 0 0 1 0.0282,0 21.693073,21.693073 0 0 1 21.69316,21.693163 A 21.693073,21.693073 0 0 1 157.82516,106.33963 21.693073,21.693073 0 0 1 136.132,84.646433 21.693073,21.693073 0 0 1 157.79692,62.95327 Z"/><path id="path895" d="M 127.94332,84.646415 A 29.881835,29.881835 0 0 1 157.82516,54.76458" style="fill:none;fill-opacity:1;stroke:red;stroke-width:1.79589;stroke-miterlimit:4;stroke-dasharray:none"/><path style="fill:#000;fill-opacity:1;stroke:red;stroke-width:1.05833;stroke-miterlimit:4;stroke-dasharray:none;stroke-opacity:1" id="path962" d="M 47.062381,106.34844 V 62.962089"/><path id="path978" d="M 36.215794,103.44211 57.908968,65.868424" style="fill:#000;fill-opacity:1;stroke:red;stroke-width:1.05833;stroke-miterlimit:4;stroke-dasharray:none;stroke-opacity:1"/><path style="fill:#000;fill-opacity:1;stroke:red;stroke-width:1.05833;stroke-miterlimit:4;stroke-dasharray:none;stroke-opacity:1" id="path980" d="M 28.275542,95.501862 65.849221,73.808677"/><path id="path982" d="m 25.369204,84.655274 43.386356,-9e-6" style="fill:#000;fill-opacity:1;stroke:red;stroke-width:1.05833;stroke-miterlimit:4;stroke-dasharray:none"/><path style="fill:#000;fill-opacity:1;stroke:red;stroke-width:1.05833;stroke-miterlimit:4;stroke-dasharray:none;stroke-opacity:1" id="path986" d="M 28.275535,73.808684 65.849228,95.501852"/><path id="path988" d="M 36.215786,65.868427 57.908977,103.44211" style="fill:#000;fill-opacity:1;stroke:red;stroke-width:1.05833;stroke-miterlimit:4;stroke-dasharray:none;stroke-opacity:1"/><path id="path2920" d="M 157.82516,106.33962 V 62.953264" style="fill:#000;fill-opacity:1;stroke:red;stroke-width:1.05833;stroke-miterlimit:4;stroke-dasharray:none;stroke-opacity:1"/><path style="fill:#000;fill-opacity:1;stroke:red;stroke-width:1.05833;stroke-miterlimit:4;stroke-dasharray:none;stroke-opacity:1" id="path2922" d="M 146.97857,103.43329 168.67175,65.859599"/><path id="path2924" d="M 139.03832,95.493037 176.612,73.799852" style="fill:#000;fill-opacity:1;stroke:red;stroke-width:1.05833;stroke-miterlimit:4;stroke-dasharray:none;stroke-opacity:1"/><path style="fill:#000;fill-opacity:1;stroke:red;stroke-width:1.05833;stroke-miterlimit:4;stroke-dasharray:none" id="path2926" d="m 136.13198,84.646449 43.38636,-9e-6"/><path id="path2928" d="m 139.03831,73.799859 37.5737,21.693168" style="fill:#000;fill-opacity:1;stroke:red;stroke-width:1.05833;stroke-miterlimit:4;stroke-dasharray:none;stroke-opacity:1"/><path style="fill:#000;fill-opacity:1;stroke:red;stroke-width:1.05833;stroke-miterlimit:4;stroke-dasharray:none;stroke-opacity:1" id="path2930" d="m 146.97856,65.859602 21.6932,37.573688"/><path id="rect2938" d="m 477.01842,219.73613 -55.1485,100.22078 H 177.87357 l 76.99939,-139.93017 v 0 h 174.78926" transform="scale(0.26458333)" style="fill:none;fill-opacity:1;stroke:red;stroke-width:6.99999;stroke-miterlimit:4;stroke-dasharray:none;stroke-opacity:1"/><path style="fill:none;fill-opacity:1;stroke:red;stroke-width:1.85208;stroke-miterlimit:4;stroke-dasharray:none;stroke-opacity:1" id="path2942" d="M 60.992263,42.189024 111.62778,84.646446"/><path id="path2999" d="m 107.18964,42.189024 50.63552,42.457422" style="fill:none;fill-opacity:1;stroke:red;stroke-width:1.85208;stroke-miterlimit:4;stroke-dasharray:none;stroke-opacity:1"/><path style="fill:none;stroke:red;stroke-width:1.85209;stroke-linecap:round;stroke-linejoin:miter;stroke-miterlimit:4;stroke-dasharray:none;stroke-opacity:1" id="path3006" d="M 56.692045,42.189022 H 69.930652"/><path style="fill:none;fill-opacity:1;stroke:red;stroke-width:1.85208;stroke-linecap:round;stroke-miterlimit:4;stroke-dasharray:none;stroke-opacity:1" id="path3060" d="m 107.18964,42.189024 h 17.02287 c 5.2449,1.016116 5.14575,6.793451 0,7.828364"/><circle id="circle2936" cx="157.825" cy="84.646" r="3.967" style="fill:#fff;fill-opacity:1;stroke:red;stroke-width:1.85209;stroke-miterlimit:4;stroke-dasharray:none;stroke-opacity:1"/><circle style="fill:#fff;fill-opacity:1;stroke:red;stroke-width:1.85209;stroke-miterlimit:4;stroke-dasharray:none;stroke-opacity:1" id="path2932" cx="47.062" cy="84.655" r="3.967"/><circle id="circle3062" cx="111.62" cy="84.655" r="6.967" style="fill:#b3b3b3;fill-opacity:1;stroke:red;stroke-width:1.85209;stroke-miterlimit:4;stroke-dasharray:none;stroke-opacity:1"/><g id="g3078"><path style="fill:none;fill-opacity:1;stroke:red;stroke-width:1.85208;stroke-linecap:round;stroke-miterlimit:4;stroke-dasharray:none;stroke-opacity:1" id="path3074" d="M 111.61975,84.655265 V 97.348433"/><path id="path3076" d="m 115.80451,97.348433 h -8.36952" style="fill:none;fill-opacity:1;stroke:red;stroke-width:1.85208;stroke-linecap:round;stroke-miterlimit:4;stroke-dasharray:none;stroke-opacity:1"/></g><path style="fill:none;fill-opacity:1;stroke:red;stroke-width:1.85208;stroke-linecap:round;stroke-miterlimit:4;stroke-dasharray:none;stroke-opacity:1" id="path3080" d="M 16.573024,110.1765 H 79.010927"/><path id="path3082" d="m 129.69355,110.1765 h 62.4379" style="fill:none;fill-opacity:1;stroke:red;stroke-width:1.85208;stroke-linecap:round;stroke-miterlimit:4;stroke-dasharray:none;stroke-opacity:1"/><path style="fill:none;fill-opacity:1;stroke:red;stroke-width:1.85208;stroke-linecap:round;stroke-miterlimit:4;stroke-dasharray:none;stroke-opacity:1" id="path3084" d="m 116.49055,110.1765 h 8.15409"/></g></g></svg>