<svg xmlns="http://www.w3.org/2000/svg" xmlns:svg="http://www.w3.org/2000/svg" id="svg8" width="2162.742" height="763.222" version="1.1" viewBox="0 0 572.226 201.936"><defs id="defs2"><rect id="rect153" width="108.962" height="147.292" x="350.111" y="414.143"/></defs><metadata id="metadata5"/><g id="layer2" transform="translate(0.28975659,1.4762069)" style="display:inline"><path style="fill:teal;stroke:none;stroke-width:2.85714" id="path248" d="m 0,0 c 664.78402,0 1507.2619,5.3358387 2161.647,0 v 755.90552 c -578.4571,0 -1488.39149,-6e-5 -2161.647,0 C -2.4640718,495.83765 0,308.28638 0,0 Z" transform="scale(0.26458333)"/></g><g id="layer1" transform="translate(86.693816,-57.881049)" style="display:inline"><text style="font-style:normal;font-weight:400;font-size:50.8px;line-height:1.25;font-family:sans-serif;fill:#000;fill-opacity:1;stroke:none;stroke-width:.264583" id="text12" x="120.877" y="175.23" xml:space="preserve"><tspan id="tspan10" x="120.877" y="175.23" style="font-style:normal;font-variant:normal;font-weight:400;font-stretch:normal;font-size:50.8px;font-family:'Sans Serif';-inkscape-font-specification:'Sans Serif';stroke-width:.264583">fdisk &amp; mount</tspan></text><g id="g8365" stroke="#000" stroke-width="1" transform="matrix(0.26458333,0,0,0.26458333,-78.9326,21.530338)"><path id="path6483" fill="#737678" fill-rule="evenodd" d="m 424.37,144.63 -390.12,138.92 -11.414,9.51 -7.612,13.32 v 11.42 l 247.39,567.1 7.62,13.32 h 26.64 L 717.434,721.24 V 677.47 L 424.374,144.63 Z"/><path id="path6546" fill="#08060e" fill-rule="evenodd" d="M 119.76,364.75 C 70.127,408.77 73.421,301.51 103.6,283.6 c 58.2,-18.08 114.87,-44.66 174.97,-58.17 104.37,-11.97 225.85,31.19 265.98,135.97 17.89,25.67 13.06,132.59 3.87,55.42 -8.98,-114.12 -128.13,-190.48 -236.34,-183.3 -81.5,2.93 -163.3,53.19 -192.32,131.23 z"/><path id="path6485" fill="#e0e4e3" fill-rule="evenodd" d="m 22.619,293.48 c 5.442,9.12 7.723,40.67 19.6,44.68 7.892,-4.62 21.366,-12.41 19.95,-26.14 -3.449,-14.11 -12.036,-27.39 -27.911,-28.13 -2.259,2.11 -9.005,7.93 -11.639,9.59 z"/><path id="path6487" fill="#e3e6ea" fill-rule="evenodd" d="m 423.27,143.93 c 6.32,11.36 13.37,22.34 18.81,34.18 4.52,8.35 -19.09,19.32 -24.09,10.54 -6.45,-8.2 -12,-21.85 -16.56,-30.37 -5.66,-9 17.62,-7.97 21.84,-14.35 z"/><path id="path6489" fill="#d5d2d2" d="M 283.55,235.97 C 389.56,221.42 515.26,274.86 543.34,385.85 571.17,493.24 489.14,612.13 378.08,622.46 260.9,644.3 125.76,565.24 112.63,441.42 98.205,355.79 160.88,274.2 241.45,250.49 c 13.91,-5.18 28.04,-9.74 42.1,-14.52 z"/><path id="path6491" fill="#94a4b3" fill-rule="evenodd" d="m 353.96,350.15 c 39.93,4.07 65.48,54.98 44.77,89.41 -14.66,23.37 -44.21,32.29 -70.55,30.24 -15.49,-1.57 -31.86,-4.33 -44.85,-13.37 -20.01,-15.47 -31.56,-44.75 -20.41,-68.7 8.86,-20.81 28.9,-35.46 51.02,-39.13 13.23,-2.47 27.01,-1.85 40.02,1.55 z"/><path id="path6495" fill="#9e999d" fill-rule="evenodd" d="m 406.38,430.68 c -4.91,15.58 -12.57,31.67 -27.03,40.47 -13.6,10.82 -31.89,11.13 -48.45,10.62 -8.37,-0.68 -16.84,0.5 -25.14,-0.91 -12.88,-2.41 -24,-10.43 -32.63,-19.99 -6.97,-3.8 -8.44,-12.83 -14.49,-17.57 -5.84,-0.32 0.08,8.86 1.05,11.87 5.59,10.08 14.3,17.95 22.52,25.83 16.93,14.37 39.98,20.92 61.95,18.08 16.57,0.22 30.61,-10.32 42.22,-21.04 13.5,-11.5 22.54,-29.35 20,-47.36 z"/><path id="path6533" fill="#4e576a" fill-rule="evenodd" d="m 127.83,306.21 c -9.19,-3.66 -15.71,5.95 -20.72,10.38 -10.055,-4.28 1.31,-19.15 9.27,-19.96 7.99,-1.48 28.28,-5.57 26.17,7.7 -4.12,6.87 -7.9,18.82 -17.6,18.32 -3.83,-4.33 1.83,-11.74 2.88,-16.44 z"/><path id="path6553" fill="#c3c5d2" fill-rule="evenodd" d="m 577.32,422.82 c -4.33,3.03 -11.58,5.89 -11.45,11.95 0.67,4.81 0.87,10.7 5.58,13.46 4.37,2.78 9.53,5.84 14.87,3.9 7.4,-1.19 3.62,-8.74 0.4,-12.38 -3,-5.71 -6.25,-11.29 -9.4,-16.93 z"/><path id="path6555" fill="#c3c5d2" fill-rule="evenodd" d="m 179.83,576.61 c 12.82,3.6 10.78,24.82 -1.7,27.47 -11.62,3.37 -22.72,-13.16 -14.11,-22.21 4.22,-4.13 10.66,-3.26 15.81,-5.26 z"/><path id="path6557" fill="#b0b0bc" fill-rule="evenodd" d="m 437.69,445.3 c 11.18,-1.68 16.68,9.48 12.45,18.63 l -1.98,35.61 c 9.56,8.84 3.82,23.48 3.66,34.3 -6.43,3.31 -15.02,3.86 -13.99,13.62 0.91,10.5 8.25,19.62 5.24,30.68 0.26,15.67 -3.32,31.13 -2.03,46.79 0.42,17.2 0.98,34.39 1.41,51.59 -8.23,5.99 -13.79,-14.88 -20.72,-1.72 -5.52,10.79 -13.33,22.14 -26.9,21.88 -11.17,-1.13 -24.69,10.15 -33.29,-0.65 -4.31,-12.01 -22.79,2.1 -22.17,-12.87 -0.17,-11.26 2.41,-21.98 11.86,-29.02 5.75,-8.8 6.89,-19.73 10.28,-29.56 -2.82,-12.37 7.17,-22.4 10.61,-33.56 21.86,-48.57 43.71,-97.14 65.57,-145.72 z"/><path id="path6559" fill="#e2e3e6" fill-rule="evenodd" d="m 439.59,480.51 c -5.66,-3.71 -15.54,0.25 -14.14,7.82 1.01,7.96 12.81,11.99 17.94,5.36 3.64,-4.54 -1.95,-9.26 -3.8,-13.18 z"/><path id="path6561" fill="#e7e8eb" fill-rule="evenodd" d="m 425.32,509.05 c 4.71,-0.02 11.16,2.74 9.34,8.48 -1.03,5.98 -10.28,6.24 -13.41,1.89 -3.7,-3.58 -3.25,-11.67 3.37,-10.26 z"/><path id="path6563" fill="#e5e7ea" fill-rule="evenodd" d="m 416.76,537.6 c -7.31,0.57 -10.77,11.08 -4.21,15.21 4.43,3.66 12.4,2.48 14.18,-3.43 1.97,-6.38 -5.83,-9.08 -9.97,-11.78 z"/><path id="path6565" fill="#e2e3e6" fill-rule="evenodd" d="m 414.86,561.39 c 6.24,2.58 9.9,9.69 7.92,16.22 -1.13,8.12 -2.15,16.32 -4.17,24.25 -3.44,6.61 -12.86,4.4 -17.28,0.14 -6.38,-6.15 -3.37,-15.67 -1.43,-23.09 1.47,-6.24 0.29,-15.56 8.77,-16.96 2.04,-0.62 4.16,0.13 6.19,-0.56 z"/><path id="path6567" fill="#08060e" fill-rule="evenodd" d="m 415.81,613.72 11.41,0.95 0.96,11.42 -11.42,-1.9 z"/><path id="path6569" fill="#08060e" fill-rule="evenodd" d="m 433.89,631.8 h -4.76 l -0.95,15.22 h 6.66 z"/><path id="path6571" fill="#726d74" fill-rule="evenodd" d="m 384.41,627.99 c -20.68,1 -29.66,28.35 -17.92,43.76 10,15.26 34.29,19.06 46.83,4.75 11.89,-12.34 7,-33.5 -7.18,-41.82 -6.4,-4.14 -13.78,-8.48 -21.73,-6.69 z"/><path id="path6573" fill="#bdbac3" fill-rule="evenodd" d="m 393.92,647.02 c -7.68,-3.26 -15.83,9.06 -7.99,13.7 6.22,6.56 18.15,-2.88 10.4,-9.51 -0.88,-1.35 -1.78,-2.7 -2.41,-4.19 z"/><path id="path6579" fill="#aba8b1" fill-rule="evenodd" d="m 319.7,644.17 c -0.91,27.81 18.69,50.96 39.74,66.68 24.7,11.39 52.48,6.63 78.55,6.08 14.19,3.47 28.79,-4.05 40.51,1.92 14.43,-9.61 23.76,14.78 36.15,19.41 10.27,15.82 -15.72,34.48 -26.15,29.28 3.25,-26.23 -20.72,0.21 -31.25,4.21 -16.33,10.85 -36.17,15.61 -55.68,14.1 -15.48,-1.93 -30.31,-0.55 -29.79,18.49 -12.71,16.79 -23.51,-9.89 -18.7,-21.94 -15.1,-6.35 -32.96,-10.67 -44.7,-24.28 -19.43,-14.96 -35.29,-34.58 -43.16,-58.01 -2.17,-25.52 -28.58,-31.83 -49.72,-31.75 -5.4,-14.65 -3.66,-28.8 12.86,-34.66 -4.76,-16.3 20.89,-16.63 23.82,-6.6 13.46,-1.29 24.19,4.34 35.71,-1.96 13.55,-3.27 18.86,2.73 17.54,16.17 4.76,0.95 9.52,1.91 14.27,2.86 z"/><path id="path6659" fill="#524f58" fill-rule="evenodd" d="m 305.46,697.12 -15.48,11.43 79.39,39.03 1.35,-8.75 z"/><path id="path6661" fill="#54545c" fill-rule="evenodd" d="m 421.18,765.74 c -0.4,-5.45 1.3,-11.51 -1.97,-16.39 -2.25,-3.86 -6.12,-6.43 -9.9,-8.6 -4.63,-1.43 -9.39,0.64 -13.54,2.59 -3.89,2.75 -4.02,9.09 -0.9,12.48 4.32,1.78 9.06,2 13.53,3.24 -3.29,4.58 -8.21,8.04 -13.7,9.35 -4.35,0.42 -7.86,-2.67 -11.53,-4.47 -3.49,-2.2 -5.2,-6.12 -7.39,-9.45 0.04,-5.17 0.06,-10.54 1.96,-15.42 2.13,-4.26 4.78,-8.34 8.4,-11.48 4.17,-1.98 8.95,-2.02 13.45,-1.96 5.05,0.86 10.49,0.48 15.06,3.15 4.25,1.8 8.08,5.26 9.18,9.88 2.81,5.01 4.32,10.84 3.94,16.59 -0.85,3.87 -4.18,6.44 -6.08,9.78 l -0.25,0.35 z"/><path id="path6663" fill="#a6a6ae" fill-rule="evenodd" d="m 332.37,806.79 -8.07,4.7 -4.04,7.41 0.67,8.07 4.71,6.73 6.73,2.69 10.09,-4.04 3.37,-7.4 0.67,-8.75 -5.38,-6.72 z"/><path id="path6665" fill="#d1cfd8" fill-rule="evenodd" d="m 281.91,805.44 24.22,47.1 c 0,0 -22.2,12.11 -22.2,8.74 0,-3.36 -23.55,-49.11 -23.55,-49.11 z"/><path id="path1336" fill="#d87c0f" fill-rule="evenodd" d="m 614.28,602.69 -4.71,6.06 -5.38,8.07 -8.08,9.42 -10.09,4.04 -80.06,32.96 2.01,6.73 14.81,0.68 -0.68,14.8 -13.45,2.69 0.67,43.73 17.49,32.62 20.19,-8.4 115.05,-47.77 -0.67,-9.42 -15.48,-2.01 1.35,-10.1 15.47,0.68 -2.69,-10.1 -11.44,-14.8 2.02,-28.26 v -16.82 l -14.8,-14.8 z"/><path id="path1338" fill="#97a5b7" fill-rule="evenodd" d="m 560.45,598.21 c 4.24,0.9 8.68,2.58 11.33,6.19 1.54,2.12 1.93,4.84 1.81,7.4 -0.29,3.53 -2.06,6.91 -4.74,9.22 -3.55,1.59 -7.63,2.91 -11.5,1.75 -1.45,-0.33 -2.48,-1.46 -3.73,-2.12 -2.72,-1.25 -4.33,-4.1 -4.66,-7 -0.36,-2.93 -0.12,-5.93 0.37,-8.83 0.82,-2.85 3.71,-4.34 6.3,-5.26 1.58,-0.56 3.2,-0.96 4.82,-1.35 z"/><path id="path1340" fill="#ecf3eb" fill-rule="evenodd" d="m 584.49,631.39 20.6,33.56 1.93,3.42 -38.19,17.78 -22.45,-39.66 z"/><path id="path1342" fill="#6f8caa" fill-rule="evenodd" d="m 628.41,609.65 c -5.66,-0.35 -13.1,1.58 -13.73,8.3 -0.5,7.29 4.88,14.08 11.13,17.24 6.23,1.92 13.98,-2.25 15.56,-8.7 2.29,-7.33 -2.4,-16.18 -10.46,-16.74 -0.83,0.01 -1.67,-0.07 -2.5,-0.1 z"/><path id="path1344" fill="#d8deea" fill-rule="evenodd" d="m 694.66,636.25 c -5.34,-1.76 -12.12,1.65 -12.94,7.44 -0.63,6.77 1.88,13.35 5.2,19.13 2.26,4.08 4.81,8.01 6.8,12.24 3.06,3.92 3.85,9.42 7.97,12.52 3.13,2.02 7.44,2.07 10.48,-0.16 2.49,-1.69 4.36,-4.16 5.65,-6.85 -0.16,-5.94 -4.56,-10.41 -7.33,-15.3 -1.31,-2.56 -2.5,-5.17 -3.99,-7.64 -3.94,-7.13 -7.89,-14.25 -11.84,-21.38 z"/><path id="path1346" fill="#4e5567" fill-rule="evenodd" d="m 22.269,292.9 c 82.511,189.86 168.92,377.27 251.74,566.97 6.4,13.51 23.87,3.19 33.7,-0.83 136.58,-58.62 273.15,-117.24 409.72,-175.86 v 37.11 l -419.61,177.93 c -10.04,-2.23 -27.05,6.53 -31.73,-4.18 L 14.269,314.95 c 0.71,-9.83 3.263,-13.9 7.999,-22.05 z"/><g id="g8040" fill-rule="evenodd" transform="translate(-15.224,-3.806)"><path id="path6575" fill="#eee4e3" d="m 533.79,500.49 c 13.51,11.51 28.5,21.38 39.72,35.3 6.08,7.88 20.34,33.34 27.83,14.36 2.08,-15.11 0.77,-30.56 1.54,-45.81 -1.37,-9.61 3.99,-21.5 -3.52,-29.09 -7.37,-13.29 -21.21,2.96 -28.91,-6.78 -4.09,-11.97 -19.35,-15.55 -25.93,-3.63 -3.89,9.86 -5.7,20.6 -9.08,30.83 -0.5,1.62 -1.04,3.23 -1.65,4.82 z"/><path id="path1367" fill="#c4c2c6" d="m 595.39,496.11 c 13.9,-4.02 7.93,-26.24 -5.23,-26.58 -15.97,-2.82 -23.17,21.3 -6.92,25.99 3.88,1.4 8.15,1.46 12.15,0.59 z"/></g><path id="path1382" fill="#0e0e18" fill-rule="evenodd" d="m 382.5,218.85 c -5.26,0.5 -12.19,6.6 -16.02,-0.09 -3.88,-4.88 -2.4,-12.31 2.55,-15.81 6.64,-4.61 15.15,-2.33 22.52,-1.45 8.48,1.6 16.97,3.48 25.16,6.23 8.35,3.71 15.26,10.2 24.14,12.85 6.82,2.36 13.78,4.33 20.52,6.91 5.88,0.52 10.53,4.08 12.89,9.4 3.03,4.77 6.07,9.54 9.1,14.31 -4.63,3.47 -8.77,8.01 -14.52,9.61 -5.76,3.94 -10.35,-3.48 -14.8,-6.1 -7.52,-5.75 -14.75,-12.32 -23.93,-15.29 -15.84,-6.93 -31.7,-13.81 -47.61,-20.57 z"/><path id="path1384" fill="#0e0d13" fill-rule="evenodd" d="m 382.5,163.66 c 3.81,3.17 7.62,6.34 11.42,9.51 -0.63,3.81 -1.27,7.62 -1.9,11.42 h -9.52 c -3.17,-2.54 -6.34,-5.07 -9.51,-7.61 3.17,-4.44 6.34,-8.88 9.51,-13.32 z"/><path id="path1396" fill="#cccbd9" fill-rule="evenodd" d="m 338.74,384.41 c 21.2,6.01 26.34,37 9.33,50.38 -13.1,10.28 -33.92,7.42 -45.87,-3.38 -14.1,-14.85 -7.24,-45.14 14.42,-48.39 7.41,-1.19 14.71,1.44 22.12,1.39 z"/><path id="path1394" fill="#67676f" fill-rule="evenodd" d="M 327.32,401.53 314,405.34 v 9.52 l 9.51,11.41 13.32,-3.8 3.81,-13.32 z"/><path id="path1410" fill="#191d29" fill-rule="evenodd" d="m 309.24,355.86 v 6.66 l 17.13,0.95 0.95,-7.61 z"/><path id="path1412" fill="#02020a" fill-rule="evenodd" d="m 294.01,392.02 0.96,8.56 -16.18,-0.95 0.95,-7.61 z"/><path id="path1414" fill="#12141e" fill-rule="evenodd" d="m 354.91,378.7 11.42,0.95 0.95,6.66 h -13.32 z"/><path id="path1416" fill="#0b0b15" fill-rule="evenodd" d="m 332.07,443.4 h 8.57 l 1.9,8.56 -11.42,-1.9 z"/><path id="path2884" fill="#e0e4e3" fill-rule="evenodd" d="m 359.34,180.92 v 11.63 c -7.83,3.04 -15.54,6.36 -23.25,9.69 -3.88,-1.29 -7.76,-2.58 -11.63,-3.87 -2.59,-2.59 -5.17,-5.17 -7.75,-7.76 v -7.75 c 10.98,-3.87 21.96,-7.75 32.94,-11.63 z"/></g></g></svg>