<svg xmlns="http://www.w3.org/2000/svg" xmlns:svg="http://www.w3.org/2000/svg" id="svg5" width="358.833" height="303.049" version="1.1" viewBox="0 0 94.941 80.182"><defs id="defs2"><marker style="overflow:visible" id="Arrow1Mend" orient="auto" refX="0" refY="0"><path style="fill:context-stroke;fill-rule:evenodd;stroke:context-stroke;stroke-width:1pt" id="path1229" d="M 0,0 5,-5 -12.5,0 5,5 Z" transform="matrix(-0.4,0,0,-0.4,-4,0)"/></marker><marker style="overflow:visible" id="Arrow2Lend" orient="auto" refX="0" refY="0"><path style="fill:context-stroke;fill-rule:evenodd;stroke:context-stroke;stroke-width:.625;stroke-linejoin:round" id="path1241" d="M 8.7185878,4.0337352 -2.2072895,0.01601326 8.7185884,-4.0017078 c -1.7454984,2.3720609 -1.7354408,5.6174519 -6e-7,8.035443 z" transform="matrix(-1.1,0,0,-1.1,-1.1,0)"/></marker><marker style="overflow:visible" id="Arrow1Lstart" orient="auto" refX="0" refY="0"><path style="fill:context-stroke;fill-rule:evenodd;stroke:context-stroke;stroke-width:1pt" id="path1220" d="M 0,0 5,-5 -12.5,0 5,5 Z" transform="matrix(0.8,0,0,0.8,10,0)"/></marker><marker style="overflow:visible" id="Arrow2Lend-0" orient="auto" refX="0" refY="0"><path style="fill:context-stroke;fill-rule:evenodd;stroke:context-stroke;stroke-width:.625;stroke-linejoin:round" id="path1241-3" d="M 8.7185878,4.0337352 -2.2072895,0.01601326 8.7185884,-4.0017078 c -1.7454984,2.3720609 -1.7354408,5.6174519 -6e-7,8.035443 z" transform="matrix(-1.1,0,0,-1.1,-1.1,0)"/></marker><marker style="overflow:visible" id="marker1691" orient="auto" refX="0" refY="0"><path style="fill:context-stroke;fill-rule:evenodd;stroke:context-stroke;stroke-width:.625;stroke-linejoin:round" id="path1689" d="M 8.7185878,4.0337352 -2.2072895,0.01601326 8.7185884,-4.0017078 c -1.7454984,2.3720609 -1.7354408,5.6174519 -6e-7,8.035443 z" transform="matrix(-1.1,0,0,-1.1,-1.1,0)"/></marker><marker style="overflow:visible" id="Arrow2Lend-0-6" orient="auto" refX="0" refY="0"><path style="fill:context-stroke;fill-rule:evenodd;stroke:context-stroke;stroke-width:.625;stroke-linejoin:round" id="path1241-3-9" d="M 8.7185878,4.0337352 -2.2072895,0.01601326 8.7185884,-4.0017078 c -1.7454984,2.3720609 -1.7354408,5.6174519 -6e-7,8.035443 z" transform="matrix(-1.1,0,0,-1.1,-1.1,0)"/></marker><marker style="overflow:visible" id="marker1768" orient="auto" refX="0" refY="0"><path style="fill:context-stroke;fill-rule:evenodd;stroke:context-stroke;stroke-width:.625;stroke-linejoin:round" id="path1766" d="M 8.7185878,4.0337352 -2.2072895,0.01601326 8.7185884,-4.0017078 c -1.7454984,2.3720609 -1.7354408,5.6174519 -6e-7,8.035443 z" transform="matrix(-1.1,0,0,-1.1,-1.1,0)"/></marker><marker style="overflow:visible" id="Arrow2Lend-9" orient="auto" refX="0" refY="0"><path style="fill:context-stroke;fill-rule:evenodd;stroke:context-stroke;stroke-width:.625;stroke-linejoin:round" id="path1241-7" d="M 8.7185878,4.0337352 -2.2072895,0.01601326 8.7185884,-4.0017078 c -1.7454984,2.3720609 -1.7354408,5.6174519 -6e-7,8.035443 z" transform="matrix(-1.1,0,0,-1.1,-1.1,0)"/></marker><marker style="overflow:visible" id="marker6020" orient="auto" refX="0" refY="0"><path style="fill:context-stroke;fill-rule:evenodd;stroke:context-stroke;stroke-width:.625;stroke-linejoin:round" id="path6018" d="M 8.7185878,4.0337352 -2.2072895,0.01601326 8.7185884,-4.0017078 c -1.7454984,2.3720609 -1.7354408,5.6174519 -6e-7,8.035443 z" transform="matrix(-1.1,0,0,-1.1,-1.1,0)"/></marker><marker style="overflow:visible" id="Arrow2Lend-9-1" orient="auto" refX="0" refY="0"><path style="fill:context-stroke;fill-rule:evenodd;stroke:context-stroke;stroke-width:.625;stroke-linejoin:round" id="path1241-7-6" d="M 8.7185878,4.0337352 -2.2072895,0.01601326 8.7185884,-4.0017078 c -1.7454984,2.3720609 -1.7354408,5.6174519 -6e-7,8.035443 z" transform="matrix(-1.1,0,0,-1.1,-1.1,0)"/></marker><marker style="overflow:visible" id="marker8975" orient="auto" refX="0" refY="0"><path style="fill:context-stroke;fill-rule:evenodd;stroke:context-stroke;stroke-width:.625;stroke-linejoin:round" id="path8973" d="M 8.7185878,4.0337352 -2.2072895,0.01601326 8.7185884,-4.0017078 c -1.7454984,2.3720609 -1.7354408,5.6174519 -6e-7,8.035443 z" transform="matrix(-1.1,0,0,-1.1,-1.1,0)"/></marker><marker style="overflow:visible" id="Arrow2Lend-9-1-3" orient="auto" refX="0" refY="0"><path style="fill:context-stroke;fill-rule:evenodd;stroke:context-stroke;stroke-width:.625;stroke-linejoin:round" id="path1241-7-6-1" d="M 8.7185878,4.0337352 -2.2072895,0.01601326 8.7185884,-4.0017078 c -1.7454984,2.3720609 -1.7354408,5.6174519 -6e-7,8.035443 z" transform="matrix(-1.1,0,0,-1.1,-1.1,0)"/></marker><marker style="overflow:visible" id="marker9196" orient="auto" refX="0" refY="0"><path style="fill:context-stroke;fill-rule:evenodd;stroke:context-stroke;stroke-width:.625;stroke-linejoin:round" id="path9194" d="M 8.7185878,4.0337352 -2.2072895,0.01601326 8.7185884,-4.0017078 c -1.7454984,2.3720609 -1.7354408,5.6174519 -6e-7,8.035443 z" transform="matrix(-1.1,0,0,-1.1,-1.1,0)"/></marker><marker style="overflow:visible" id="Arrow2Lend-9-1-3-5" orient="auto" refX="0" refY="0"><path style="fill:context-stroke;fill-rule:evenodd;stroke:context-stroke;stroke-width:.625;stroke-linejoin:round" id="path1241-7-6-1-5" d="M 8.7185878,4.0337352 -2.2072895,0.01601326 8.7185884,-4.0017078 c -1.7454984,2.3720609 -1.7354408,5.6174519 -6e-7,8.035443 z" transform="matrix(-1.1,0,0,-1.1,-1.1,0)"/></marker><marker style="overflow:visible" id="marker9311" orient="auto" refX="0" refY="0"><path style="fill:context-stroke;fill-rule:evenodd;stroke:context-stroke;stroke-width:.625;stroke-linejoin:round" id="path9309" d="M 8.7185878,4.0337352 -2.2072895,0.01601326 8.7185884,-4.0017078 c -1.7454984,2.3720609 -1.7354408,5.6174519 -6e-7,8.035443 z" transform="matrix(-1.1,0,0,-1.1,-1.1,0)"/></marker></defs><g id="layer1" transform="translate(61.130894,-147.41269)"><g id="g13274" transform="translate(-16.093596,17.971473)"><ellipse style="fill:none;fill-opacity:.4;stroke:#0f0;stroke-width:.810134;stroke-miterlimit:4;stroke-dasharray:none" id="path33-7-8" cx="-22.847" cy="188.184" rx="21.785" ry="15.755"/><ellipse style="fill:none;fill-opacity:.4;stroke:#0f0;stroke-width:.810134;stroke-miterlimit:4;stroke-dasharray:none" id="path33-2-8-4" cx="27.714" cy="188.184" rx="21.785" ry="15.755"/><ellipse style="fill:none;fill-opacity:.4;stroke:#0f0;stroke-width:.810134;stroke-miterlimit:4;stroke-dasharray:none" id="path33-2-6-9-1" cx="2.196" cy="145.601" rx="21.785" ry="15.755"/><path style="fill:none;fill-rule:evenodd;stroke:#000;stroke-width:.214348px;stroke-linecap:butt;stroke-linejoin:miter;stroke-opacity:1;marker-end:url(#Arrow2Lend-9-1)" id="path1136-7-9" d="m -6.3298789,160.09868 -7.9908281,13.58759"/><path style="fill:none;fill-rule:evenodd;stroke:#000;stroke-width:.214348px;stroke-linecap:butt;stroke-linejoin:miter;stroke-opacity:1;marker-end:url(#Arrow2Lend-9-1)" id="path1138-8-5" d="m 10.858422,160.05637 8.192881,13.67222"/><text style="font-size:6.35px;line-height:1.25;font-family:sans-serif;stroke-width:.264583" id="text2585-9-4" x="-23.934" y="189.758" xml:space="preserve"><tspan style="font-style:normal;font-variant:normal;font-weight:400;font-stretch:normal;font-family:'Times New Roman';-inkscape-font-specification:'Times New Roman, ';stroke-width:.264583" id="tspan5031-2-3" x="-23.934" y="189.758">1</tspan></text><text style="font-size:6.35px;line-height:1.25;font-family:sans-serif;stroke-width:.264583" id="text2585-7-2-4" x="26.006" y="190.246" xml:space="preserve"><tspan style="font-style:normal;font-variant:normal;font-weight:400;font-stretch:normal;font-family:'Times New Roman';-inkscape-font-specification:'Times New Roman, ';stroke-width:.264583" id="tspan5355-3-9" x="26.006" y="190.246">0</tspan></text><text style="font-size:6.35px;line-height:1.25;font-family:sans-serif;stroke-width:.264583" id="text7393-5-4" x="-23.862" y="166.728" xml:space="preserve"><tspan id="tspan7391-7-0" x="-23.862" y="166.728" style="font-style:normal;font-variant:normal;font-weight:400;font-stretch:normal;font-family:Times;-inkscape-font-specification:Times;stroke-width:.264583">True</tspan></text><text style="font-size:6.35px;line-height:1.25;font-family:sans-serif;stroke-width:.264583" id="text7393-8-0-3" x="16.732" y="166.933" xml:space="preserve"><tspan id="tspan7391-6-1-2" x="16.732" y="166.933" style="font-style:normal;font-variant:normal;font-weight:400;font-stretch:normal;font-family:Times;-inkscape-font-specification:Times;stroke-width:.264583">False</tspan></text><text style="font-size:6.35px;line-height:1.25;font-family:sans-serif;stroke-width:.264583" id="text1621-4-0" x="-9.331" y="143.778" xml:space="preserve"><tspan style="font-style:normal;font-variant:normal;font-weight:400;font-stretch:normal;font-family:'Times New Roman';-inkscape-font-specification:'Times New Roman, ';stroke-width:.264583" id="tspan72-3-4" x="-9.331" y="143.778">年龄小于</tspan><tspan style="font-style:normal;font-variant:normal;font-weight:400;font-stretch:normal;font-family:'Times New Roman';-inkscape-font-specification:'Times New Roman, ';stroke-width:.264583" id="tspan9104" x="-9.331" y="152.33">等于16</tspan></text></g><text style="font-style:normal;font-variant:normal;font-weight:400;font-stretch:normal;font-size:6.35px;line-height:1.25;font-family:'Times New Roman';-inkscape-font-specification:'Times New Roman, ';stroke-width:.264583" id="text13908-1" x="-25.161" y="227.498" xml:space="preserve"><tspan id="tspan13906-6" x="-25.161" y="227.498" style="font-style:normal;font-variant:normal;font-weight:400;font-stretch:normal;font-family:'Times New Roman';-inkscape-font-specification:'Times New Roman, ';stroke-width:.264583">Gini: 0</tspan></text></g></svg>