<svg xmlns="http://www.w3.org/2000/svg" xmlns:svg="http://www.w3.org/2000/svg" id="svg8" width="168.66" height="51.13" version="1.1" viewBox="0 0 44.625 13.528"><defs id="defs2"><filter id="filter902" width="1.208" height="2.32" x="-.104" y="-.66" style="color-interpolation-filters:sRGB"><feGaussianBlur id="feGaussianBlur904" stdDeviation="1.603"/></filter><filter id="filter906" width="1.139" height="1.88" x="-.069" y="-.44" style="color-interpolation-filters:sRGB"><feGaussianBlur id="feGaussianBlur908" stdDeviation="1.069"/></filter><filter id="filter910" width="1.069" height="1.44" x="-.035" y="-.22" style="color-interpolation-filters:sRGB"><feGaussianBlur id="feGaussianBlur912" stdDeviation=".534"/></filter></defs><metadata id="metadata5"/><g id="layer1" transform="translate(-64.825195,-83.561627)"><g style="font-style:normal;font-variant:normal;font-weight:400;font-stretch:normal;font-size:10.5833px;line-height:1.25;font-family:Hack;-inkscape-font-specification:Hack;mix-blend-mode:normal;fill:#00bd00;fill-opacity:1;stroke:#00bd00;stroke-width:.81;stroke-miterlimit:4;stroke-dasharray:none;stroke-opacity:1;filter:url(#filter902)" id="text30" aria-label="MOTTO" transform="translate(-0.69099082,-4.4329424)"><path id="path32" d="m 77.968751,97.37798 q -0.0635,0.179917 -0.402165,0.28575 l -0.338665,-0.211666 -0.328083,-0.370416 -0.105833,-0.243416 -0.03175,-0.201083 -0.04233,-0.105833 q -0.137583,-0.338665 -0.137583,-0.613831 0,-0.0635 0.03175,-0.158749 l 0.02117,-0.02117 0.02117,-0.201083 -0.126999,-0.232832 0.04233,-0.127 -0.02117,-0.169333 0.01058,-0.148166 q -0.03175,-0.126999 -0.03175,-0.222249 v -0.05292 q 0,-0.190499 -0.05292,-0.380998 v -0.296333 l -0.07408,-0.190499 -0.02117,-0.148166 -0.105833,0.05292 -0.338666,0.423332 -0.296332,0.328082 -0.116417,0.211666 -0.328082,0.359833 -0.359832,0.243415 -0.04233,0.201083 -0.211666,0.07408 -0.04233,0.116416 -0.253999,0.116417 -0.08467,0.201082 -0.1905,0.0635 -0.211666,0.338666 -0.126999,0.07408 q -0.01058,0.05292 -0.04233,0.201083 -0.15875,0.08467 -0.338666,0.08467 h -0.0635 l -0.105833,-0.201083 -0.158749,-0.211666 0.02117,-0.116416 -0.105833,-0.148166 0.05292,-0.07408 -0.01058,-0.01058 -0.05292,-0.169332 -0.08467,-0.0635 Q 72.581852,95.462403 72.465436,95.29307 l -0.0635,-0.201082 -0.105833,-0.116417 -0.201083,-0.370415 -0.211666,-0.232833 -0.07408,-0.126999 -0.201083,-0.211666 -0.222249,-0.306916 q -0.02117,-0.08467 -0.105833,-0.169333 -0.03175,0.380999 -0.137583,0.560915 l -0.190499,0.317499 0.05292,0.232833 -0.09525,0.232832 -0.211666,0.656165 -0.08467,0.211666 -0.02117,0.137583 -0.169333,0.349249 -0.148166,0.232832 0.02117,0.211666 q -0.0635,0.169333 -0.179916,0.370416 l 0.0635,0.253999 q -0.306916,0.306916 -0.465665,0.306916 -0.169333,0 -0.253999,-0.15875 -0.07408,-0.08467 -0.09525,-0.190499 v -0.04233 q 0.190499,-0.783165 0.253999,-0.783165 0.01058,0 0.01058,0.01058 V 96.2879 q 0,-0.275166 0.211666,-0.412749 v -0.0635 l 0.0635,-0.211666 -0.01058,-0.07408 q 0,-0.05292 0.09525,-0.296332 l 0.04233,-0.04233 0.01058,-0.285749 0.105833,-0.179916 0.15875,-0.529165 -0.05292,-0.328082 0.137583,-0.116416 v -0.03175 l 0.02117,-0.412749 0.03175,-0.179916 q 0.03175,-0.08467 0.03175,-0.148166 v -0.04233 l -0.179916,-0.338666 0.05292,-0.201083 0.08467,-0.02117 0.07408,-0.105833 -0.01058,-0.08467 0.137583,-0.126999 0.09525,0.04233 0.126999,-0.105833 0.148166,0.02117 0.264583,0.179916 v 0.07408 l 0.09525,0.0635 0.04233,0.243415 0.07408,0.0635 0.0635,0.201083 -0.02117,0.04233 0.09525,0.07408 q 0.0635,-0.03175 0.116416,-0.03175 0.0635,0.03175 0.169333,0.137583 l 0.02117,0.148166 0.09525,0.105833 0.07408,0.22225 0.486832,0.465665 0.08467,0.264582 0.15875,0.105833 0.169333,0.423332 0.328082,0.571499 q 0.01058,0.01058 0.0635,0.07408 l 0.02117,0.03175 h 0.105833 l 0.08467,-0.179916 0.253999,-0.158749 q 0.243416,-0.264583 0.243416,-0.285749 0,-0.01058 -0.02117,-0.01058 h -0.01058 q 0.05292,-0.04233 0.137583,-0.07408 0.02117,-0.03175 0.148166,-0.09525 0.07408,-0.15875 0.253999,-0.243416 l 0.04233,-0.0635 v -0.09525 q 0.254,-0.317499 0.412749,-0.370415 0,-0.169333 0.328082,-0.306916 l 0.1905,-0.264582 0.0635,-0.179916 h 0.116416 q 0.126999,-0.211666 0.179916,-0.317499 l 0.148166,-0.0635 0.07408,0.01058 -0.02117,-0.211666 -0.09525,-0.211666 0.148166,-0.222249 0.08467,-0.264583 q 0.09525,0 0.179916,-0.01058 0.08467,-0.01058 0.07408,-0.01058 0.0635,0 0.296332,0.105833 l 0.02117,0.08467 0.116416,0.09525 0.01058,0.08467 0.105833,0.08467 -0.05292,0.05292 q 0.158749,0.0635 0.158749,0.179916 0,0.04233 -0.02117,0.105833 v 0.169333 q 0.02117,0.03175 0.126999,0.190499 l -0.0635,0.05292 -0.01058,0.05292 0.02117,0.01058 0.03175,0.169332 0.148166,0.116417 -0.116416,0.148166 -0.05292,0.232833 0.07408,0.169332 -0.02117,0.243416 0.09525,0.317499 q 0.0635,0.211666 0.0635,0.338666 0,0.07408 -0.09525,0.201083 0.07408,0.04233 0.07408,0.126999 0,0.07408 -0.0635,0.1905 l 0.04233,0.04233 -0.03175,0.592664 0.116416,0.328083 v 0.349249 q 0.0635,0.09525 0.105833,0.211666 0.02117,0.03175 0.232833,0.253999 0.116416,0.126999 0.126999,0.232832 z" style="font-style:normal;font-variant:normal;font-weight:400;font-stretch:normal;font-size:10.5833px;font-family:'Bradley Hand';-inkscape-font-specification:'Bradley Hand Normal';font-variant-ligatures:normal;font-variant-caps:normal;font-variant-numeric:normal;font-variant-east-asian:normal;fill:#00bd00;fill-opacity:1;stroke:#00bd00;stroke-width:.81;stroke-miterlimit:4;stroke-dasharray:none;stroke-opacity:1"/><path id="path34" d="m 85.725318,94.605156 -0.105833,0.222249 -0.04233,0.349249 -0.105833,0.09525 q -0.0635,0.423332 -0.328082,0.539748 l -0.07408,0.03175 -0.634998,0.444499 -0.190499,0.105833 -0.306916,0.338665 -0.190499,-0.03175 -0.116416,0.08467 -0.211666,0.07408 -0.529165,0.275166 q -0.0635,-0.02117 -0.169333,-0.09525 -0.07408,0.105833 -0.232833,0.137583 h -0.04233 l -0.211666,0.169333 -0.04233,-0.02117 h -0.201083 l -0.09525,0.07408 -0.402166,-0.01058 -0.529165,0.08467 h -0.0635 q -0.07408,0 -0.179916,0.02117 l -0.296332,-0.04233 -0.05292,-0.05292 -0.423332,-0.0635 -0.179916,-0.08467 H 79.512921 V 97.134565 L 79.311838,96.922899 79.047256,96.806482 78.93084,96.4784 l -0.01058,-0.243416 -0.0635,-0.07408 -0.01058,-0.476249 0.137583,-0.423331 -0.02117,-0.254 0.05292,-0.05292 v -0.201083 l 0.148166,-0.148166 v -0.105833 l 0.0635,-0.116416 v -0.105833 l 0.04233,-0.05292 -0.05292,-0.116416 0.169333,-0.116416 0.201082,-0.423332 0.433915,-0.624415 0.105833,-0.05292 q 0.03175,-0.05292 0.09525,-0.137583 l 0.105833,-0.08467 v -0.169333 l 0.15875,-0.03175 q 0.158749,-0.126999 0.349249,-0.190499 l 0.05292,-0.0635 q 0.09525,-0.04233 0.550332,-0.105833 l 0.285749,-0.04233 0.338665,0.04233 0.201083,-0.01058 h 0.285749 l 0.0635,0.01058 0.03175,0.01058 h 0.05292 l 0.0635,-0.02117 0.338666,0.01058 -0.02117,0.0635 0.15875,0.04233 q 0.0635,-0.02117 0.0635,-0.08467 0.05292,0.09525 0.232833,0.09525 l 0.08467,0.08467 h 0.317499 l 0.709081,0.306916 0.08467,0.232832 0.0635,0.09525 0.190499,0.07408 0.285749,0.465665 0.169333,0.211666 q 0.285749,0.666748 0.285749,0.793748 z m -0.793747,0.0635 -0.05292,-0.296333 0.05292,-0.08467 -0.07408,-0.179916 q 0.01058,-0.02117 0.01058,-0.0635 0,-0.03175 -0.02117,-0.05292 l -0.190499,-0.127 -0.0635,-0.169333 -0.08467,-0.03175 -0.03175,-0.148166 -0.264583,-0.243416 -0.158749,-0.126999 -0.0635,0.03175 q -0.243416,-0.222249 -0.899581,-0.370415 -0.08467,0 -0.105833,-0.01058 l -0.05292,0.03175 -0.1905,-0.05292 -0.105832,0.05292 q -0.15875,-0.05292 -0.1905,-0.05292 -0.01058,0 -0.08467,0.02117 -0.0635,0.02117 -0.116417,0.02117 -0.05292,0 -0.08467,-0.01058 -0.07408,0.137583 -0.349249,0.243416 l -0.137583,-0.02117 -0.148166,0.07408 -0.190499,-0.02117 q -0.1905,0.148166 -0.444499,0.306915 l -0.05292,0.07408 -0.05292,0.232832 -0.243416,0.105833 -0.04233,0.05292 q -0.0635,0.126999 -0.169333,0.232832 v 0.179916 l -0.148166,0.0635 -0.03175,0.02117 -0.09525,0.317499 -0.148166,0.08467 q -0.03175,0.539748 -0.179916,0.751414 -0.08467,0.116417 -0.09525,0.317499 l -0.04233,0.116417 0.03175,0.07408 0.03175,0.158749 0.127,0.137583 0.02117,0.137583 0.105833,0.105833 q 0.296333,0.169333 0.529165,0.179916 l 0.444499,-0.116416 0.09525,0.09525 h 0.127 l 0.02117,-0.02117 0.317499,-0.05292 0.338665,0.05292 q 0.08467,-0.08467 0.201083,-0.08467 0.243416,-0.148167 0.412749,-0.148167 l 0.222249,-0.126999 0.169333,-0.01058 0.137583,-0.105833 0.328082,-0.01058 q 0.04233,-0.01058 0.09525,-0.01058 l 0.02117,-0.03175 q 0.07408,-0.105833 0.222249,-0.137583 l 0.127,-0.296332 0.08467,0.05292 0.08467,-0.04233 0.148166,-0.137583 0.05292,0.02117 0.179916,-0.127 0.317499,-0.317499 0.137583,-0.04233 0.0635,-0.15875 0.08467,-0.05292 -0.02117,-0.09525 z" style="font-style:normal;font-variant:normal;font-weight:400;font-stretch:normal;font-size:10.5833px;font-family:'Bradley Hand';-inkscape-font-specification:'Bradley Hand Normal';font-variant-ligatures:normal;font-variant-caps:normal;font-variant-numeric:normal;font-variant-east-asian:normal;fill:#00bd00;fill-opacity:1;stroke:#00bd00;stroke-width:.81;stroke-miterlimit:4;stroke-dasharray:none;stroke-opacity:1"/><path id="path36" d="m 93.458569,92.24508 -0.264583,0.497415 -0.243416,0.03175 h -0.328082 l -0.179916,0.03175 -0.137583,-0.03175 -0.666748,0.05292 -0.190499,-0.04233 -0.04233,0.01058 q -0.105833,0.04233 -0.359832,0.08467 h -0.380999 l -0.08467,-0.03175 h -0.03175 q -0.105833,0 -0.306916,0.05292 -0.158749,0.04233 -0.391582,0.04233 l -0.169332,-0.04233 -0.03175,0.126999 h -0.127 l -0.03175,0.497415 0.05292,0.08467 -0.02117,0.158749 v 0.275166 q 0,0.433915 -0.08467,0.582082 l 0.08467,0.116416 -0.0635,0.306916 0.0635,0.08467 -0.116416,0.169333 v 0.08467 l -0.0635,0.116416 0.04233,0.232833 -0.03175,0.444499 -0.0635,0.201082 q 0.01058,0.01058 0.01058,0.05292 0,-0.02117 -0.03175,0.137583 0,0.01058 0.01058,0.04233 0,0.03175 0,0.05292 0,0.116417 -0.07408,0.22225 l 0.03175,0.148166 q 0,0.07408 -0.01058,0.09525 l -0.01058,0.03175 q -0.02117,0.0635 -0.02117,0.127 0,0.201083 0.04233,0.338666 -0.232833,0.04233 -0.264582,0.04233 -0.09525,0 -0.15875,-0.02117 l -0.02117,-0.01058 q -0.275165,-0.0635 -0.275165,-0.507998 0.01058,-0.05292 0.01058,-0.148167 0,-0.08467 -0.02117,-0.232832 -0.02117,-0.15875 -0.02117,-0.232833 0,-0.105833 0.03175,-0.179916 l 0.04233,-0.433915 q -0.08467,-0.116417 -0.08467,-0.1905 0,-0.02117 0.02117,-0.08467 -0.04233,-0.08467 -0.04233,-0.127 0,-0.08467 0.05292,-0.137582 0,-0.09525 0.08467,-0.264583 -0.02117,-0.08467 -0.02117,-0.179916 0.07408,0 0.07408,-0.07408 0,-0.02117 -0.02117,-0.0635 -0.02117,-0.05292 -0.02117,-0.105833 l 0.03175,0.04233 -0.04233,-0.09525 q 0,-0.201083 0.05292,-0.349249 v -0.306916 l -0.05292,-0.222249 0.05292,-0.412749 -0.05292,-0.306916 0.02117,-0.105833 -0.158749,0.01058 -0.116416,0.0635 -0.08467,-0.01058 v 0.04233 q -0.222249,0 -0.433915,-0.03175 l -0.03175,0.08467 -0.412749,-0.137583 -0.550331,-0.01058 -0.349249,0.09525 q -0.423332,-0.359832 -0.423332,-0.518581 0,-0.09525 0.03175,-0.1905 v 0.03175 l 0.232832,-0.201083 0.201083,0.01058 0.709081,0.126999 0.179916,-0.05292 0.539748,0.01058 0.423332,0.05292 0.275166,-0.105833 0.09525,-0.275166 0.423332,0.105833 0.02117,-0.02117 0.02117,0.03175 0.148166,0.179916 0.04233,0.01058 0.148167,-0.05292 0.306915,0.07408 q 0.455082,-0.08467 0.539749,-0.08467 0.126999,0 0.264582,0.05292 0.03175,0 0.127,0.01058 0.148166,-0.02117 0.190499,-0.02117 h 0.07408 l 0.359832,-0.04233 0.306916,0.05292 0.04233,0.02117 0.15875,-0.05292 0.222249,0.05292 0.529165,-0.02117 0.232833,0.03175 z" style="font-style:normal;font-variant:normal;font-weight:400;font-stretch:normal;font-size:10.5833px;font-family:'Bradley Hand';-inkscape-font-specification:'Bradley Hand Normal';font-variant-ligatures:normal;font-variant-caps:normal;font-variant-numeric:normal;font-variant-east-asian:normal;fill:#00bd00;fill-opacity:1;stroke:#00bd00;stroke-width:.81;stroke-miterlimit:4;stroke-dasharray:none;stroke-opacity:1"/><path id="path38" d="m 99.928436,92.24508 -0.264582,0.497415 -0.243416,0.03175 h -0.328082 l -0.179917,0.03175 -0.137582,-0.03175 -0.666748,0.05292 -0.1905,-0.04233 -0.04233,0.01058 q -0.105833,0.04233 -0.359832,0.08467 h -0.380999 l -0.08467,-0.03175 h -0.03175 q -0.105833,0 -0.306916,0.05292 -0.158749,0.04233 -0.391582,0.04233 l -0.169333,-0.04233 -0.03175,0.126999 h -0.126999 l -0.03175,0.497415 0.05292,0.08467 -0.02117,0.158749 v 0.275166 q 0,0.433915 -0.08467,0.582082 l 0.08467,0.116416 -0.0635,0.306916 0.0635,0.08467 -0.116416,0.169333 v 0.08467 l -0.0635,0.116416 0.04233,0.232833 -0.03175,0.444499 -0.0635,0.201082 q 0.01058,0.01058 0.01058,0.05292 0,-0.02117 -0.03175,0.137583 0,0.01058 0.01058,0.04233 0,0.03175 0,0.05292 0,0.116417 -0.07408,0.22225 l 0.03175,0.148166 q 0,0.07408 -0.01058,0.09525 l -0.01058,0.03175 q -0.02117,0.0635 -0.02117,0.127 0,0.201083 0.04233,0.338666 -0.232833,0.04233 -0.264583,0.04233 -0.09525,0 -0.158749,-0.02117 l -0.02117,-0.01058 q -0.275166,-0.0635 -0.275166,-0.507998 0.01058,-0.05292 0.01058,-0.148167 0,-0.08467 -0.02117,-0.232832 -0.02117,-0.15875 -0.02117,-0.232833 0,-0.105833 0.03175,-0.179916 l 0.04233,-0.433915 q -0.08467,-0.116417 -0.08467,-0.1905 0,-0.02117 0.02117,-0.08467 -0.04233,-0.08467 -0.04233,-0.127 0,-0.08467 0.05292,-0.137582 0,-0.09525 0.08467,-0.264583 -0.02117,-0.08467 -0.02117,-0.179916 0.07408,0 0.07408,-0.07408 0,-0.02117 -0.02117,-0.0635 -0.02117,-0.05292 -0.02117,-0.105833 l 0.03175,0.04233 -0.04233,-0.09525 q 0,-0.201083 0.05292,-0.349249 v -0.306916 l -0.05292,-0.222249 0.05292,-0.412749 -0.05292,-0.306916 0.02117,-0.105833 -0.158749,0.01058 -0.116417,0.0635 -0.08467,-0.01058 v 0.04233 q -0.222249,0 -0.433915,-0.03175 l -0.03175,0.08467 -0.412749,-0.137583 -0.550332,-0.01058 -0.349248,0.09525 q -0.423332,-0.359832 -0.423332,-0.518581 0,-0.09525 0.03175,-0.1905 v 0.03175 l 0.232833,-0.201083 0.201083,0.01058 0.709081,0.126999 0.179916,-0.05292 0.539748,0.01058 0.423332,0.05292 0.275166,-0.105833 0.09525,-0.275166 0.423332,0.105833 0.02117,-0.02117 0.02117,0.03175 0.148166,0.179916 0.04233,0.01058 0.148166,-0.05292 0.306916,0.07408 q 0.455082,-0.08467 0.539748,-0.08467 0.127,0 0.264583,0.05292 0.03175,0 0.126999,0.01058 0.148167,-0.02117 0.1905,-0.02117 h 0.07408 l 0.359832,-0.04233 0.306916,0.05292 0.04233,0.02117 0.15875,-0.05292 0.222249,0.05292 0.529165,-0.02117 0.232832,0.03175 z" style="font-style:normal;font-variant:normal;font-weight:400;font-stretch:normal;font-size:10.5833px;font-family:'Bradley Hand';-inkscape-font-specification:'Bradley Hand Normal';font-variant-ligatures:normal;font-variant-caps:normal;font-variant-numeric:normal;font-variant-east-asian:normal;fill:#00bd00;fill-opacity:1;stroke:#00bd00;stroke-width:.81;stroke-miterlimit:4;stroke-dasharray:none;stroke-opacity:1"/><path id="path40" d="m 106.29247,94.605156 -0.10583,0.222249 -0.0423,0.349249 -0.10584,0.09525 q -0.0635,0.423332 -0.32808,0.539748 l -0.0741,0.03175 -0.635,0.444499 -0.1905,0.105833 -0.30691,0.338665 -0.1905,-0.03175 -0.11642,0.08467 -0.21167,0.07408 -0.52916,0.275166 q -0.0635,-0.02117 -0.16933,-0.09525 -0.0741,0.105833 -0.23284,0.137583 h -0.0423 l -0.21167,0.169333 -0.0423,-0.02117 h -0.20108 l -0.0952,0.07408 -0.40217,-0.01058 -0.52916,0.08467 h -0.0635 q -0.0741,0 -0.17992,0.02117 l -0.29633,-0.04233 -0.0529,-0.05292 -0.42333,-0.0635 -0.17991,-0.08467 h -0.254 v -0.116416 l -0.201087,-0.211666 -0.264582,-0.116417 -0.116416,-0.328082 -0.01058,-0.243416 -0.0635,-0.07408 -0.01058,-0.476249 0.137583,-0.423331 -0.02117,-0.254 0.05292,-0.05292 v -0.201083 l 0.148166,-0.148166 v -0.105833 l 0.0635,-0.116416 v -0.105833 l 0.04233,-0.05292 -0.05292,-0.116416 0.169332,-0.116416 0.201084,-0.423332 0.43391,-0.624415 0.10584,-0.05292 q 0.0318,-0.05292 0.0952,-0.137583 l 0.10583,-0.08467 v -0.169333 l 0.15875,-0.03175 q 0.15875,-0.126999 0.34925,-0.190499 l 0.0529,-0.0635 q 0.0953,-0.04233 0.55034,-0.105833 l 0.28575,-0.04233 0.33866,0.04233 0.20108,-0.01058 h 0.28575 l 0.0635,0.01058 0.0317,0.01058 h 0.0529 l 0.0635,-0.02117 0.33866,0.01058 -0.0212,0.0635 0.15875,0.04233 q 0.0635,-0.02117 0.0635,-0.08467 0.0529,0.09525 0.23283,0.09525 l 0.0847,0.08467 h 0.3175 l 0.70908,0.306916 0.0847,0.232832 0.0635,0.09525 0.1905,0.07408 0.28575,0.465665 0.16933,0.211666 q 0.28575,0.666748 0.28575,0.793748 z m -0.79374,0.0635 -0.0529,-0.296333 0.0529,-0.08467 -0.0741,-0.179916 q 0.0106,-0.02117 0.0106,-0.0635 0,-0.03175 -0.0212,-0.05292 l -0.1905,-0.127 -0.0635,-0.169333 -0.0847,-0.03175 -0.0318,-0.148166 -0.26458,-0.243416 -0.15875,-0.126999 -0.0635,0.03175 q -0.24341,-0.222249 -0.89958,-0.370415 -0.0847,0 -0.10583,-0.01058 l -0.0529,0.03175 -0.1905,-0.05292 -0.10583,0.05292 q -0.15875,-0.05292 -0.1905,-0.05292 -0.0106,0 -0.0847,0.02117 -0.0635,0.02117 -0.11641,0.02117 -0.0529,0 -0.0847,-0.01058 -0.0741,0.137583 -0.34925,0.243416 l -0.13758,-0.02117 -0.14817,0.07408 -0.1905,-0.02117 q -0.1905,0.148166 -0.4445,0.306915 l -0.0529,0.07408 -0.0529,0.232832 -0.24341,0.105833 -0.0423,0.05292 q -0.0635,0.126999 -0.16933,0.232832 v 0.179916 l -0.14817,0.0635 -0.0318,0.02117 -0.0952,0.317499 -0.14816,0.08467 q -0.0318,0.539748 -0.17992,0.751414 -0.0847,0.116417 -0.0953,0.317499 l -0.0423,0.116417 0.0318,0.07408 0.0317,0.158749 0.127,0.137583 0.0212,0.137583 0.10583,0.105833 q 0.29633,0.169333 0.52916,0.179916 l 0.4445,-0.116416 0.0953,0.09525 h 0.127 l 0.0212,-0.02117 0.3175,-0.05292 0.33866,0.05292 q 0.0847,-0.08467 0.20108,-0.08467 0.24342,-0.148167 0.41275,-0.148167 l 0.22225,-0.126999 0.16934,-0.01058 0.13758,-0.105833 0.32808,-0.01058 q 0.0423,-0.01058 0.0953,-0.01058 l 0.0212,-0.03175 q 0.0741,-0.105833 0.22225,-0.137583 l 0.127,-0.296332 0.0847,0.05292 0.0847,-0.04233 0.14816,-0.137583 0.0529,0.02117 0.17992,-0.127 0.3175,-0.317499 0.13758,-0.04233 0.0635,-0.15875 0.0847,-0.05292 -0.0212,-0.09525 z" style="font-style:normal;font-variant:normal;font-weight:400;font-stretch:normal;font-size:10.5833px;font-family:'Bradley Hand';-inkscape-font-specification:'Bradley Hand Normal';font-variant-ligatures:normal;font-variant-caps:normal;font-variant-numeric:normal;font-variant-east-asian:normal;fill:#00bd00;fill-opacity:1;stroke:#00bd00;stroke-width:.81;stroke-miterlimit:4;stroke-dasharray:none;stroke-opacity:1"/></g><g id="g888" aria-label="MOTTO" transform="translate(-0.69099054,-4.4329419)" style="font-style:normal;font-variant:normal;font-weight:400;font-stretch:normal;font-size:10.5833px;line-height:1.25;font-family:Hack;-inkscape-font-specification:Hack;mix-blend-mode:normal;fill:#29ff29;fill-opacity:1;stroke:#29ff29;stroke-width:.54;stroke-miterlimit:4;stroke-dasharray:none;stroke-opacity:1;filter:url(#filter906)"><path style="font-style:normal;font-variant:normal;font-weight:400;font-stretch:normal;font-size:10.5833px;font-family:'Bradley Hand';-inkscape-font-specification:'Bradley Hand Normal';font-variant-ligatures:normal;font-variant-caps:normal;font-variant-numeric:normal;font-variant-east-asian:normal;fill:#29ff29;fill-opacity:1;stroke:#29ff29;stroke-width:.54;stroke-miterlimit:4;stroke-dasharray:none;stroke-opacity:1" id="path878" d="m 77.968751,97.37798 q -0.0635,0.179917 -0.402165,0.28575 l -0.338665,-0.211666 -0.328083,-0.370416 -0.105833,-0.243416 -0.03175,-0.201083 -0.04233,-0.105833 q -0.137583,-0.338665 -0.137583,-0.613831 0,-0.0635 0.03175,-0.158749 l 0.02117,-0.02117 0.02117,-0.201083 -0.126999,-0.232832 0.04233,-0.127 -0.02117,-0.169333 0.01058,-0.148166 q -0.03175,-0.126999 -0.03175,-0.222249 v -0.05292 q 0,-0.190499 -0.05292,-0.380998 v -0.296333 l -0.07408,-0.190499 -0.02117,-0.148166 -0.105833,0.05292 -0.338666,0.423332 -0.296332,0.328082 -0.116417,0.211666 -0.328082,0.359833 -0.359832,0.243415 -0.04233,0.201083 -0.211666,0.07408 -0.04233,0.116416 -0.253999,0.116417 -0.08467,0.201082 -0.1905,0.0635 -0.211666,0.338666 -0.126999,0.07408 q -0.01058,0.05292 -0.04233,0.201083 -0.15875,0.08467 -0.338666,0.08467 h -0.0635 l -0.105833,-0.201083 -0.158749,-0.211666 0.02117,-0.116416 -0.105833,-0.148166 0.05292,-0.07408 -0.01058,-0.01058 -0.05292,-0.169332 -0.08467,-0.0635 Q 72.581852,95.462403 72.465436,95.29307 l -0.0635,-0.201082 -0.105833,-0.116417 -0.201083,-0.370415 -0.211666,-0.232833 -0.07408,-0.126999 -0.201083,-0.211666 -0.222249,-0.306916 q -0.02117,-0.08467 -0.105833,-0.169333 -0.03175,0.380999 -0.137583,0.560915 l -0.190499,0.317499 0.05292,0.232833 -0.09525,0.232832 -0.211666,0.656165 -0.08467,0.211666 -0.02117,0.137583 -0.169333,0.349249 -0.148166,0.232832 0.02117,0.211666 q -0.0635,0.169333 -0.179916,0.370416 l 0.0635,0.253999 q -0.306916,0.306916 -0.465665,0.306916 -0.169333,0 -0.253999,-0.15875 -0.07408,-0.08467 -0.09525,-0.190499 v -0.04233 q 0.190499,-0.783165 0.253999,-0.783165 0.01058,0 0.01058,0.01058 V 96.2879 q 0,-0.275166 0.211666,-0.412749 v -0.0635 l 0.0635,-0.211666 -0.01058,-0.07408 q 0,-0.05292 0.09525,-0.296332 l 0.04233,-0.04233 0.01058,-0.285749 0.105833,-0.179916 0.15875,-0.529165 -0.05292,-0.328082 0.137583,-0.116416 v -0.03175 l 0.02117,-0.412749 0.03175,-0.179916 q 0.03175,-0.08467 0.03175,-0.148166 v -0.04233 l -0.179916,-0.338666 0.05292,-0.201083 0.08467,-0.02117 0.07408,-0.105833 -0.01058,-0.08467 0.137583,-0.126999 0.09525,0.04233 0.126999,-0.105833 0.148166,0.02117 0.264583,0.179916 v 0.07408 l 0.09525,0.0635 0.04233,0.243415 0.07408,0.0635 0.0635,0.201083 -0.02117,0.04233 0.09525,0.07408 q 0.0635,-0.03175 0.116416,-0.03175 0.0635,0.03175 0.169333,0.137583 l 0.02117,0.148166 0.09525,0.105833 0.07408,0.22225 0.486832,0.465665 0.08467,0.264582 0.15875,0.105833 0.169333,0.423332 0.328082,0.571499 q 0.01058,0.01058 0.0635,0.07408 l 0.02117,0.03175 h 0.105833 l 0.08467,-0.179916 0.253999,-0.158749 q 0.243416,-0.264583 0.243416,-0.285749 0,-0.01058 -0.02117,-0.01058 h -0.01058 q 0.05292,-0.04233 0.137583,-0.07408 0.02117,-0.03175 0.148166,-0.09525 0.07408,-0.15875 0.253999,-0.243416 l 0.04233,-0.0635 v -0.09525 q 0.254,-0.317499 0.412749,-0.370415 0,-0.169333 0.328082,-0.306916 l 0.1905,-0.264582 0.0635,-0.179916 h 0.116416 q 0.126999,-0.211666 0.179916,-0.317499 l 0.148166,-0.0635 0.07408,0.01058 -0.02117,-0.211666 -0.09525,-0.211666 0.148166,-0.222249 0.08467,-0.264583 q 0.09525,0 0.179916,-0.01058 0.08467,-0.01058 0.07408,-0.01058 0.0635,0 0.296332,0.105833 l 0.02117,0.08467 0.116416,0.09525 0.01058,0.08467 0.105833,0.08467 -0.05292,0.05292 q 0.158749,0.0635 0.158749,0.179916 0,0.04233 -0.02117,0.105833 v 0.169333 q 0.02117,0.03175 0.126999,0.190499 l -0.0635,0.05292 -0.01058,0.05292 0.02117,0.01058 0.03175,0.169332 0.148166,0.116417 -0.116416,0.148166 -0.05292,0.232833 0.07408,0.169332 -0.02117,0.243416 0.09525,0.317499 q 0.0635,0.211666 0.0635,0.338666 0,0.07408 -0.09525,0.201083 0.07408,0.04233 0.07408,0.126999 0,0.07408 -0.0635,0.1905 l 0.04233,0.04233 -0.03175,0.592664 0.116416,0.328083 v 0.349249 q 0.0635,0.09525 0.105833,0.211666 0.02117,0.03175 0.232833,0.253999 0.116416,0.126999 0.126999,0.232832 z"/><path style="font-style:normal;font-variant:normal;font-weight:400;font-stretch:normal;font-size:10.5833px;font-family:'Bradley Hand';-inkscape-font-specification:'Bradley Hand Normal';font-variant-ligatures:normal;font-variant-caps:normal;font-variant-numeric:normal;font-variant-east-asian:normal;fill:#29ff29;fill-opacity:1;stroke:#29ff29;stroke-width:.54;stroke-miterlimit:4;stroke-dasharray:none;stroke-opacity:1" id="path880" d="m 85.725318,94.605156 -0.105833,0.222249 -0.04233,0.349249 -0.105833,0.09525 q -0.0635,0.423332 -0.328082,0.539748 l -0.07408,0.03175 -0.634998,0.444499 -0.190499,0.105833 -0.306916,0.338665 -0.190499,-0.03175 -0.116416,0.08467 -0.211666,0.07408 -0.529165,0.275166 q -0.0635,-0.02117 -0.169333,-0.09525 -0.07408,0.105833 -0.232833,0.137583 h -0.04233 l -0.211666,0.169333 -0.04233,-0.02117 h -0.201083 l -0.09525,0.07408 -0.402166,-0.01058 -0.529165,0.08467 h -0.0635 q -0.07408,0 -0.179916,0.02117 l -0.296332,-0.04233 -0.05292,-0.05292 -0.423332,-0.0635 -0.179916,-0.08467 H 79.512921 V 97.134565 L 79.311838,96.922899 79.047256,96.806482 78.93084,96.4784 l -0.01058,-0.243416 -0.0635,-0.07408 -0.01058,-0.476249 0.137583,-0.423331 -0.02117,-0.254 0.05292,-0.05292 v -0.201083 l 0.148166,-0.148166 v -0.105833 l 0.0635,-0.116416 v -0.105833 l 0.04233,-0.05292 -0.05292,-0.116416 0.169333,-0.116416 0.201082,-0.423332 0.433915,-0.624415 0.105833,-0.05292 q 0.03175,-0.05292 0.09525,-0.137583 l 0.105833,-0.08467 v -0.169333 l 0.15875,-0.03175 q 0.158749,-0.126999 0.349249,-0.190499 l 0.05292,-0.0635 q 0.09525,-0.04233 0.550332,-0.105833 l 0.285749,-0.04233 0.338665,0.04233 0.201083,-0.01058 h 0.285749 l 0.0635,0.01058 0.03175,0.01058 h 0.05292 l 0.0635,-0.02117 0.338666,0.01058 -0.02117,0.0635 0.15875,0.04233 q 0.0635,-0.02117 0.0635,-0.08467 0.05292,0.09525 0.232833,0.09525 l 0.08467,0.08467 h 0.317499 l 0.709081,0.306916 0.08467,0.232832 0.0635,0.09525 0.190499,0.07408 0.285749,0.465665 0.169333,0.211666 q 0.285749,0.666748 0.285749,0.793748 z m -0.793747,0.0635 -0.05292,-0.296333 0.05292,-0.08467 -0.07408,-0.179916 q 0.01058,-0.02117 0.01058,-0.0635 0,-0.03175 -0.02117,-0.05292 l -0.190499,-0.127 -0.0635,-0.169333 -0.08467,-0.03175 -0.03175,-0.148166 -0.264583,-0.243416 -0.158749,-0.126999 -0.0635,0.03175 q -0.243416,-0.222249 -0.899581,-0.370415 -0.08467,0 -0.105833,-0.01058 l -0.05292,0.03175 -0.1905,-0.05292 -0.105832,0.05292 q -0.15875,-0.05292 -0.1905,-0.05292 -0.01058,0 -0.08467,0.02117 -0.0635,0.02117 -0.116417,0.02117 -0.05292,0 -0.08467,-0.01058 -0.07408,0.137583 -0.349249,0.243416 l -0.137583,-0.02117 -0.148166,0.07408 -0.190499,-0.02117 q -0.1905,0.148166 -0.444499,0.306915 l -0.05292,0.07408 -0.05292,0.232832 -0.243416,0.105833 -0.04233,0.05292 q -0.0635,0.126999 -0.169333,0.232832 v 0.179916 l -0.148166,0.0635 -0.03175,0.02117 -0.09525,0.317499 -0.148166,0.08467 q -0.03175,0.539748 -0.179916,0.751414 -0.08467,0.116417 -0.09525,0.317499 l -0.04233,0.116417 0.03175,0.07408 0.03175,0.158749 0.127,0.137583 0.02117,0.137583 0.105833,0.105833 q 0.296333,0.169333 0.529165,0.179916 l 0.444499,-0.116416 0.09525,0.09525 h 0.127 l 0.02117,-0.02117 0.317499,-0.05292 0.338665,0.05292 q 0.08467,-0.08467 0.201083,-0.08467 0.243416,-0.148167 0.412749,-0.148167 l 0.222249,-0.126999 0.169333,-0.01058 0.137583,-0.105833 0.328082,-0.01058 q 0.04233,-0.01058 0.09525,-0.01058 l 0.02117,-0.03175 q 0.07408,-0.105833 0.222249,-0.137583 l 0.127,-0.296332 0.08467,0.05292 0.08467,-0.04233 0.148166,-0.137583 0.05292,0.02117 0.179916,-0.127 0.317499,-0.317499 0.137583,-0.04233 0.0635,-0.15875 0.08467,-0.05292 -0.02117,-0.09525 z"/><path style="font-style:normal;font-variant:normal;font-weight:400;font-stretch:normal;font-size:10.5833px;font-family:'Bradley Hand';-inkscape-font-specification:'Bradley Hand Normal';font-variant-ligatures:normal;font-variant-caps:normal;font-variant-numeric:normal;font-variant-east-asian:normal;fill:#29ff29;fill-opacity:1;stroke:#29ff29;stroke-width:.54;stroke-miterlimit:4;stroke-dasharray:none;stroke-opacity:1" id="path882" d="m 93.458569,92.24508 -0.264583,0.497415 -0.243416,0.03175 h -0.328082 l -0.179916,0.03175 -0.137583,-0.03175 -0.666748,0.05292 -0.190499,-0.04233 -0.04233,0.01058 q -0.105833,0.04233 -0.359832,0.08467 h -0.380999 l -0.08467,-0.03175 h -0.03175 q -0.105833,0 -0.306916,0.05292 -0.158749,0.04233 -0.391582,0.04233 l -0.169332,-0.04233 -0.03175,0.126999 h -0.127 l -0.03175,0.497415 0.05292,0.08467 -0.02117,0.158749 v 0.275166 q 0,0.433915 -0.08467,0.582082 l 0.08467,0.116416 -0.0635,0.306916 0.0635,0.08467 -0.116416,0.169333 v 0.08467 l -0.0635,0.116416 0.04233,0.232833 -0.03175,0.444499 -0.0635,0.201082 q 0.01058,0.01058 0.01058,0.05292 0,-0.02117 -0.03175,0.137583 0,0.01058 0.01058,0.04233 0,0.03175 0,0.05292 0,0.116417 -0.07408,0.22225 l 0.03175,0.148166 q 0,0.07408 -0.01058,0.09525 l -0.01058,0.03175 q -0.02117,0.0635 -0.02117,0.127 0,0.201083 0.04233,0.338666 -0.232833,0.04233 -0.264582,0.04233 -0.09525,0 -0.15875,-0.02117 l -0.02117,-0.01058 q -0.275165,-0.0635 -0.275165,-0.507998 0.01058,-0.05292 0.01058,-0.148167 0,-0.08467 -0.02117,-0.232832 -0.02117,-0.15875 -0.02117,-0.232833 0,-0.105833 0.03175,-0.179916 l 0.04233,-0.433915 q -0.08467,-0.116417 -0.08467,-0.1905 0,-0.02117 0.02117,-0.08467 -0.04233,-0.08467 -0.04233,-0.127 0,-0.08467 0.05292,-0.137582 0,-0.09525 0.08467,-0.264583 -0.02117,-0.08467 -0.02117,-0.179916 0.07408,0 0.07408,-0.07408 0,-0.02117 -0.02117,-0.0635 -0.02117,-0.05292 -0.02117,-0.105833 l 0.03175,0.04233 -0.04233,-0.09525 q 0,-0.201083 0.05292,-0.349249 v -0.306916 l -0.05292,-0.222249 0.05292,-0.412749 -0.05292,-0.306916 0.02117,-0.105833 -0.158749,0.01058 -0.116416,0.0635 -0.08467,-0.01058 v 0.04233 q -0.222249,0 -0.433915,-0.03175 l -0.03175,0.08467 -0.412749,-0.137583 -0.550331,-0.01058 -0.349249,0.09525 q -0.423332,-0.359832 -0.423332,-0.518581 0,-0.09525 0.03175,-0.1905 v 0.03175 l 0.232832,-0.201083 0.201083,0.01058 0.709081,0.126999 0.179916,-0.05292 0.539748,0.01058 0.423332,0.05292 0.275166,-0.105833 0.09525,-0.275166 0.423332,0.105833 0.02117,-0.02117 0.02117,0.03175 0.148166,0.179916 0.04233,0.01058 0.148167,-0.05292 0.306915,0.07408 q 0.455082,-0.08467 0.539749,-0.08467 0.126999,0 0.264582,0.05292 0.03175,0 0.127,0.01058 0.148166,-0.02117 0.190499,-0.02117 h 0.07408 l 0.359832,-0.04233 0.306916,0.05292 0.04233,0.02117 0.15875,-0.05292 0.222249,0.05292 0.529165,-0.02117 0.232833,0.03175 z"/><path style="font-style:normal;font-variant:normal;font-weight:400;font-stretch:normal;font-size:10.5833px;font-family:'Bradley Hand';-inkscape-font-specification:'Bradley Hand Normal';font-variant-ligatures:normal;font-variant-caps:normal;font-variant-numeric:normal;font-variant-east-asian:normal;fill:#29ff29;fill-opacity:1;stroke:#29ff29;stroke-width:.54;stroke-miterlimit:4;stroke-dasharray:none;stroke-opacity:1" id="path884" d="m 99.928436,92.24508 -0.264582,0.497415 -0.243416,0.03175 h -0.328082 l -0.179917,0.03175 -0.137582,-0.03175 -0.666748,0.05292 -0.1905,-0.04233 -0.04233,0.01058 q -0.105833,0.04233 -0.359832,0.08467 h -0.380999 l -0.08467,-0.03175 h -0.03175 q -0.105833,0 -0.306916,0.05292 -0.158749,0.04233 -0.391582,0.04233 l -0.169333,-0.04233 -0.03175,0.126999 h -0.126999 l -0.03175,0.497415 0.05292,0.08467 -0.02117,0.158749 v 0.275166 q 0,0.433915 -0.08467,0.582082 l 0.08467,0.116416 -0.0635,0.306916 0.0635,0.08467 -0.116416,0.169333 v 0.08467 l -0.0635,0.116416 0.04233,0.232833 -0.03175,0.444499 -0.0635,0.201082 q 0.01058,0.01058 0.01058,0.05292 0,-0.02117 -0.03175,0.137583 0,0.01058 0.01058,0.04233 0,0.03175 0,0.05292 0,0.116417 -0.07408,0.22225 l 0.03175,0.148166 q 0,0.07408 -0.01058,0.09525 l -0.01058,0.03175 q -0.02117,0.0635 -0.02117,0.127 0,0.201083 0.04233,0.338666 -0.232833,0.04233 -0.264583,0.04233 -0.09525,0 -0.158749,-0.02117 l -0.02117,-0.01058 q -0.275166,-0.0635 -0.275166,-0.507998 0.01058,-0.05292 0.01058,-0.148167 0,-0.08467 -0.02117,-0.232832 -0.02117,-0.15875 -0.02117,-0.232833 0,-0.105833 0.03175,-0.179916 l 0.04233,-0.433915 q -0.08467,-0.116417 -0.08467,-0.1905 0,-0.02117 0.02117,-0.08467 -0.04233,-0.08467 -0.04233,-0.127 0,-0.08467 0.05292,-0.137582 0,-0.09525 0.08467,-0.264583 -0.02117,-0.08467 -0.02117,-0.179916 0.07408,0 0.07408,-0.07408 0,-0.02117 -0.02117,-0.0635 -0.02117,-0.05292 -0.02117,-0.105833 l 0.03175,0.04233 -0.04233,-0.09525 q 0,-0.201083 0.05292,-0.349249 v -0.306916 l -0.05292,-0.222249 0.05292,-0.412749 -0.05292,-0.306916 0.02117,-0.105833 -0.158749,0.01058 -0.116417,0.0635 -0.08467,-0.01058 v 0.04233 q -0.222249,0 -0.433915,-0.03175 l -0.03175,0.08467 -0.412749,-0.137583 -0.550332,-0.01058 -0.349248,0.09525 q -0.423332,-0.359832 -0.423332,-0.518581 0,-0.09525 0.03175,-0.1905 v 0.03175 l 0.232833,-0.201083 0.201083,0.01058 0.709081,0.126999 0.179916,-0.05292 0.539748,0.01058 0.423332,0.05292 0.275166,-0.105833 0.09525,-0.275166 0.423332,0.105833 0.02117,-0.02117 0.02117,0.03175 0.148166,0.179916 0.04233,0.01058 0.148166,-0.05292 0.306916,0.07408 q 0.455082,-0.08467 0.539748,-0.08467 0.127,0 0.264583,0.05292 0.03175,0 0.126999,0.01058 0.148167,-0.02117 0.1905,-0.02117 h 0.07408 l 0.359832,-0.04233 0.306916,0.05292 0.04233,0.02117 0.15875,-0.05292 0.222249,0.05292 0.529165,-0.02117 0.232832,0.03175 z"/><path style="font-style:normal;font-variant:normal;font-weight:400;font-stretch:normal;font-size:10.5833px;font-family:'Bradley Hand';-inkscape-font-specification:'Bradley Hand Normal';font-variant-ligatures:normal;font-variant-caps:normal;font-variant-numeric:normal;font-variant-east-asian:normal;fill:#29ff29;fill-opacity:1;stroke:#29ff29;stroke-width:.54;stroke-miterlimit:4;stroke-dasharray:none;stroke-opacity:1" id="path886" d="m 106.29247,94.605156 -0.10583,0.222249 -0.0423,0.349249 -0.10584,0.09525 q -0.0635,0.423332 -0.32808,0.539748 l -0.0741,0.03175 -0.635,0.444499 -0.1905,0.105833 -0.30691,0.338665 -0.1905,-0.03175 -0.11642,0.08467 -0.21167,0.07408 -0.52916,0.275166 q -0.0635,-0.02117 -0.16933,-0.09525 -0.0741,0.105833 -0.23284,0.137583 h -0.0423 l -0.21167,0.169333 -0.0423,-0.02117 h -0.20108 l -0.0952,0.07408 -0.40217,-0.01058 -0.52916,0.08467 h -0.0635 q -0.0741,0 -0.17992,0.02117 l -0.29633,-0.04233 -0.0529,-0.05292 -0.42333,-0.0635 -0.17991,-0.08467 h -0.254 v -0.116416 l -0.201087,-0.211666 -0.264582,-0.116417 -0.116416,-0.328082 -0.01058,-0.243416 -0.0635,-0.07408 -0.01058,-0.476249 0.137583,-0.423331 -0.02117,-0.254 0.05292,-0.05292 v -0.201083 l 0.148166,-0.148166 v -0.105833 l 0.0635,-0.116416 v -0.105833 l 0.04233,-0.05292 -0.05292,-0.116416 0.169332,-0.116416 0.201084,-0.423332 0.43391,-0.624415 0.10584,-0.05292 q 0.0318,-0.05292 0.0952,-0.137583 l 0.10583,-0.08467 v -0.169333 l 0.15875,-0.03175 q 0.15875,-0.126999 0.34925,-0.190499 l 0.0529,-0.0635 q 0.0953,-0.04233 0.55034,-0.105833 l 0.28575,-0.04233 0.33866,0.04233 0.20108,-0.01058 h 0.28575 l 0.0635,0.01058 0.0317,0.01058 h 0.0529 l 0.0635,-0.02117 0.33866,0.01058 -0.0212,0.0635 0.15875,0.04233 q 0.0635,-0.02117 0.0635,-0.08467 0.0529,0.09525 0.23283,0.09525 l 0.0847,0.08467 h 0.3175 l 0.70908,0.306916 0.0847,0.232832 0.0635,0.09525 0.1905,0.07408 0.28575,0.465665 0.16933,0.211666 q 0.28575,0.666748 0.28575,0.793748 z m -0.79374,0.0635 -0.0529,-0.296333 0.0529,-0.08467 -0.0741,-0.179916 q 0.0106,-0.02117 0.0106,-0.0635 0,-0.03175 -0.0212,-0.05292 l -0.1905,-0.127 -0.0635,-0.169333 -0.0847,-0.03175 -0.0318,-0.148166 -0.26458,-0.243416 -0.15875,-0.126999 -0.0635,0.03175 q -0.24341,-0.222249 -0.89958,-0.370415 -0.0847,0 -0.10583,-0.01058 l -0.0529,0.03175 -0.1905,-0.05292 -0.10583,0.05292 q -0.15875,-0.05292 -0.1905,-0.05292 -0.0106,0 -0.0847,0.02117 -0.0635,0.02117 -0.11641,0.02117 -0.0529,0 -0.0847,-0.01058 -0.0741,0.137583 -0.34925,0.243416 l -0.13758,-0.02117 -0.14817,0.07408 -0.1905,-0.02117 q -0.1905,0.148166 -0.4445,0.306915 l -0.0529,0.07408 -0.0529,0.232832 -0.24341,0.105833 -0.0423,0.05292 q -0.0635,0.126999 -0.16933,0.232832 v 0.179916 l -0.14817,0.0635 -0.0318,0.02117 -0.0952,0.317499 -0.14816,0.08467 q -0.0318,0.539748 -0.17992,0.751414 -0.0847,0.116417 -0.0953,0.317499 l -0.0423,0.116417 0.0318,0.07408 0.0317,0.158749 0.127,0.137583 0.0212,0.137583 0.10583,0.105833 q 0.29633,0.169333 0.52916,0.179916 l 0.4445,-0.116416 0.0953,0.09525 h 0.127 l 0.0212,-0.02117 0.3175,-0.05292 0.33866,0.05292 q 0.0847,-0.08467 0.20108,-0.08467 0.24342,-0.148167 0.41275,-0.148167 l 0.22225,-0.126999 0.16934,-0.01058 0.13758,-0.105833 0.32808,-0.01058 q 0.0423,-0.01058 0.0953,-0.01058 l 0.0212,-0.03175 q 0.0741,-0.105833 0.22225,-0.137583 l 0.127,-0.296332 0.0847,0.05292 0.0847,-0.04233 0.14816,-0.137583 0.0529,0.02117 0.17992,-0.127 0.3175,-0.317499 0.13758,-0.04233 0.0635,-0.15875 0.0847,-0.05292 -0.0212,-0.09525 z"/></g><g style="font-style:normal;font-variant:normal;font-weight:400;font-stretch:normal;font-size:10.5833px;line-height:1.25;font-family:Hack;-inkscape-font-specification:Hack;opacity:.784566;fill:#000;fill-opacity:1;stroke:none;stroke-width:0;stroke-miterlimit:4;stroke-dasharray:none" id="g924" aria-label="MOTTO" transform="translate(-0.190532,-3.932915)"><path id="path914" d="m 77.968751,97.37798 q -0.0635,0.179917 -0.402165,0.28575 l -0.338665,-0.211666 -0.328083,-0.370416 -0.105833,-0.243416 -0.03175,-0.201083 -0.04233,-0.105833 q -0.137583,-0.338665 -0.137583,-0.613831 0,-0.0635 0.03175,-0.158749 l 0.02117,-0.02117 0.02117,-0.201083 -0.126999,-0.232832 0.04233,-0.127 -0.02117,-0.169333 0.01058,-0.148166 q -0.03175,-0.126999 -0.03175,-0.222249 v -0.05292 q 0,-0.190499 -0.05292,-0.380998 v -0.296333 l -0.07408,-0.190499 -0.02117,-0.148166 -0.105833,0.05292 -0.338666,0.423332 -0.296332,0.328082 -0.116417,0.211666 -0.328082,0.359833 -0.359832,0.243415 -0.04233,0.201083 -0.211666,0.07408 -0.04233,0.116416 -0.253999,0.116417 -0.08467,0.201082 -0.1905,0.0635 -0.211666,0.338666 -0.126999,0.07408 q -0.01058,0.05292 -0.04233,0.201083 -0.15875,0.08467 -0.338666,0.08467 h -0.0635 l -0.105833,-0.201083 -0.158749,-0.211666 0.02117,-0.116416 -0.105833,-0.148166 0.05292,-0.07408 -0.01058,-0.01058 -0.05292,-0.169332 -0.08467,-0.0635 Q 72.581852,95.462403 72.465436,95.29307 l -0.0635,-0.201082 -0.105833,-0.116417 -0.201083,-0.370415 -0.211666,-0.232833 -0.07408,-0.126999 -0.201083,-0.211666 -0.222249,-0.306916 q -0.02117,-0.08467 -0.105833,-0.169333 -0.03175,0.380999 -0.137583,0.560915 l -0.190499,0.317499 0.05292,0.232833 -0.09525,0.232832 -0.211666,0.656165 -0.08467,0.211666 -0.02117,0.137583 -0.169333,0.349249 -0.148166,0.232832 0.02117,0.211666 q -0.0635,0.169333 -0.179916,0.370416 l 0.0635,0.253999 q -0.306916,0.306916 -0.465665,0.306916 -0.169333,0 -0.253999,-0.15875 -0.07408,-0.08467 -0.09525,-0.190499 v -0.04233 q 0.190499,-0.783165 0.253999,-0.783165 0.01058,0 0.01058,0.01058 V 96.2879 q 0,-0.275166 0.211666,-0.412749 v -0.0635 l 0.0635,-0.211666 -0.01058,-0.07408 q 0,-0.05292 0.09525,-0.296332 l 0.04233,-0.04233 0.01058,-0.285749 0.105833,-0.179916 0.15875,-0.529165 -0.05292,-0.328082 0.137583,-0.116416 v -0.03175 l 0.02117,-0.412749 0.03175,-0.179916 q 0.03175,-0.08467 0.03175,-0.148166 v -0.04233 l -0.179916,-0.338666 0.05292,-0.201083 0.08467,-0.02117 0.07408,-0.105833 -0.01058,-0.08467 0.137583,-0.126999 0.09525,0.04233 0.126999,-0.105833 0.148166,0.02117 0.264583,0.179916 v 0.07408 l 0.09525,0.0635 0.04233,0.243415 0.07408,0.0635 0.0635,0.201083 -0.02117,0.04233 0.09525,0.07408 q 0.0635,-0.03175 0.116416,-0.03175 0.0635,0.03175 0.169333,0.137583 l 0.02117,0.148166 0.09525,0.105833 0.07408,0.22225 0.486832,0.465665 0.08467,0.264582 0.15875,0.105833 0.169333,0.423332 0.328082,0.571499 q 0.01058,0.01058 0.0635,0.07408 l 0.02117,0.03175 h 0.105833 l 0.08467,-0.179916 0.253999,-0.158749 q 0.243416,-0.264583 0.243416,-0.285749 0,-0.01058 -0.02117,-0.01058 h -0.01058 q 0.05292,-0.04233 0.137583,-0.07408 0.02117,-0.03175 0.148166,-0.09525 0.07408,-0.15875 0.253999,-0.243416 l 0.04233,-0.0635 v -0.09525 q 0.254,-0.317499 0.412749,-0.370415 0,-0.169333 0.328082,-0.306916 l 0.1905,-0.264582 0.0635,-0.179916 h 0.116416 q 0.126999,-0.211666 0.179916,-0.317499 l 0.148166,-0.0635 0.07408,0.01058 -0.02117,-0.211666 -0.09525,-0.211666 0.148166,-0.222249 0.08467,-0.264583 q 0.09525,0 0.179916,-0.01058 0.08467,-0.01058 0.07408,-0.01058 0.0635,0 0.296332,0.105833 l 0.02117,0.08467 0.116416,0.09525 0.01058,0.08467 0.105833,0.08467 -0.05292,0.05292 q 0.158749,0.0635 0.158749,0.179916 0,0.04233 -0.02117,0.105833 v 0.169333 q 0.02117,0.03175 0.126999,0.190499 l -0.0635,0.05292 -0.01058,0.05292 0.02117,0.01058 0.03175,0.169332 0.148166,0.116417 -0.116416,0.148166 -0.05292,0.232833 0.07408,0.169332 -0.02117,0.243416 0.09525,0.317499 q 0.0635,0.211666 0.0635,0.338666 0,0.07408 -0.09525,0.201083 0.07408,0.04233 0.07408,0.126999 0,0.07408 -0.0635,0.1905 l 0.04233,0.04233 -0.03175,0.592664 0.116416,0.328083 v 0.349249 q 0.0635,0.09525 0.105833,0.211666 0.02117,0.03175 0.232833,0.253999 0.116416,0.126999 0.126999,0.232832 z" style="font-style:normal;font-variant:normal;font-weight:400;font-stretch:normal;font-size:10.5833px;font-family:'Bradley Hand';-inkscape-font-specification:'Bradley Hand Normal';font-variant-ligatures:normal;font-variant-caps:normal;font-variant-numeric:normal;font-variant-east-asian:normal;fill:#000;fill-opacity:1;stroke-width:0;stroke-miterlimit:4;stroke-dasharray:none"/><path id="path916" d="m 85.725318,94.605156 -0.105833,0.222249 -0.04233,0.349249 -0.105833,0.09525 q -0.0635,0.423332 -0.328082,0.539748 l -0.07408,0.03175 -0.634998,0.444499 -0.190499,0.105833 -0.306916,0.338665 -0.190499,-0.03175 -0.116416,0.08467 -0.211666,0.07408 -0.529165,0.275166 q -0.0635,-0.02117 -0.169333,-0.09525 -0.07408,0.105833 -0.232833,0.137583 h -0.04233 l -0.211666,0.169333 -0.04233,-0.02117 h -0.201083 l -0.09525,0.07408 -0.402166,-0.01058 -0.529165,0.08467 h -0.0635 q -0.07408,0 -0.179916,0.02117 l -0.296332,-0.04233 -0.05292,-0.05292 -0.423332,-0.0635 -0.179916,-0.08467 H 79.512921 V 97.134565 L 79.311838,96.922899 79.047256,96.806482 78.93084,96.4784 l -0.01058,-0.243416 -0.0635,-0.07408 -0.01058,-0.476249 0.137583,-0.423331 -0.02117,-0.254 0.05292,-0.05292 v -0.201083 l 0.148166,-0.148166 v -0.105833 l 0.0635,-0.116416 v -0.105833 l 0.04233,-0.05292 -0.05292,-0.116416 0.169333,-0.116416 0.201082,-0.423332 0.433915,-0.624415 0.105833,-0.05292 q 0.03175,-0.05292 0.09525,-0.137583 l 0.105833,-0.08467 v -0.169333 l 0.15875,-0.03175 q 0.158749,-0.126999 0.349249,-0.190499 l 0.05292,-0.0635 q 0.09525,-0.04233 0.550332,-0.105833 l 0.285749,-0.04233 0.338665,0.04233 0.201083,-0.01058 h 0.285749 l 0.0635,0.01058 0.03175,0.01058 h 0.05292 l 0.0635,-0.02117 0.338666,0.01058 -0.02117,0.0635 0.15875,0.04233 q 0.0635,-0.02117 0.0635,-0.08467 0.05292,0.09525 0.232833,0.09525 l 0.08467,0.08467 h 0.317499 l 0.709081,0.306916 0.08467,0.232832 0.0635,0.09525 0.190499,0.07408 0.285749,0.465665 0.169333,0.211666 q 0.285749,0.666748 0.285749,0.793748 z m -0.793747,0.0635 -0.05292,-0.296333 0.05292,-0.08467 -0.07408,-0.179916 q 0.01058,-0.02117 0.01058,-0.0635 0,-0.03175 -0.02117,-0.05292 l -0.190499,-0.127 -0.0635,-0.169333 -0.08467,-0.03175 -0.03175,-0.148166 -0.264583,-0.243416 -0.158749,-0.126999 -0.0635,0.03175 q -0.243416,-0.222249 -0.899581,-0.370415 -0.08467,0 -0.105833,-0.01058 l -0.05292,0.03175 -0.1905,-0.05292 -0.105832,0.05292 q -0.15875,-0.05292 -0.1905,-0.05292 -0.01058,0 -0.08467,0.02117 -0.0635,0.02117 -0.116417,0.02117 -0.05292,0 -0.08467,-0.01058 -0.07408,0.137583 -0.349249,0.243416 l -0.137583,-0.02117 -0.148166,0.07408 -0.190499,-0.02117 q -0.1905,0.148166 -0.444499,0.306915 l -0.05292,0.07408 -0.05292,0.232832 -0.243416,0.105833 -0.04233,0.05292 q -0.0635,0.126999 -0.169333,0.232832 v 0.179916 l -0.148166,0.0635 -0.03175,0.02117 -0.09525,0.317499 -0.148166,0.08467 q -0.03175,0.539748 -0.179916,0.751414 -0.08467,0.116417 -0.09525,0.317499 l -0.04233,0.116417 0.03175,0.07408 0.03175,0.158749 0.127,0.137583 0.02117,0.137583 0.105833,0.105833 q 0.296333,0.169333 0.529165,0.179916 l 0.444499,-0.116416 0.09525,0.09525 h 0.127 l 0.02117,-0.02117 0.317499,-0.05292 0.338665,0.05292 q 0.08467,-0.08467 0.201083,-0.08467 0.243416,-0.148167 0.412749,-0.148167 l 0.222249,-0.126999 0.169333,-0.01058 0.137583,-0.105833 0.328082,-0.01058 q 0.04233,-0.01058 0.09525,-0.01058 l 0.02117,-0.03175 q 0.07408,-0.105833 0.222249,-0.137583 l 0.127,-0.296332 0.08467,0.05292 0.08467,-0.04233 0.148166,-0.137583 0.05292,0.02117 0.179916,-0.127 0.317499,-0.317499 0.137583,-0.04233 0.0635,-0.15875 0.08467,-0.05292 -0.02117,-0.09525 z" style="font-style:normal;font-variant:normal;font-weight:400;font-stretch:normal;font-size:10.5833px;font-family:'Bradley Hand';-inkscape-font-specification:'Bradley Hand Normal';font-variant-ligatures:normal;font-variant-caps:normal;font-variant-numeric:normal;font-variant-east-asian:normal;fill:#000;fill-opacity:1;stroke-width:0;stroke-miterlimit:4;stroke-dasharray:none"/><path id="path918" d="m 93.458569,92.24508 -0.264583,0.497415 -0.243416,0.03175 h -0.328082 l -0.179916,0.03175 -0.137583,-0.03175 -0.666748,0.05292 -0.190499,-0.04233 -0.04233,0.01058 q -0.105833,0.04233 -0.359832,0.08467 h -0.380999 l -0.08467,-0.03175 h -0.03175 q -0.105833,0 -0.306916,0.05292 -0.158749,0.04233 -0.391582,0.04233 l -0.169332,-0.04233 -0.03175,0.126999 h -0.127 l -0.03175,0.497415 0.05292,0.08467 -0.02117,0.158749 v 0.275166 q 0,0.433915 -0.08467,0.582082 l 0.08467,0.116416 -0.0635,0.306916 0.0635,0.08467 -0.116416,0.169333 v 0.08467 l -0.0635,0.116416 0.04233,0.232833 -0.03175,0.444499 -0.0635,0.201082 q 0.01058,0.01058 0.01058,0.05292 0,-0.02117 -0.03175,0.137583 0,0.01058 0.01058,0.04233 0,0.03175 0,0.05292 0,0.116417 -0.07408,0.22225 l 0.03175,0.148166 q 0,0.07408 -0.01058,0.09525 l -0.01058,0.03175 q -0.02117,0.0635 -0.02117,0.127 0,0.201083 0.04233,0.338666 -0.232833,0.04233 -0.264582,0.04233 -0.09525,0 -0.15875,-0.02117 l -0.02117,-0.01058 q -0.275165,-0.0635 -0.275165,-0.507998 0.01058,-0.05292 0.01058,-0.148167 0,-0.08467 -0.02117,-0.232832 -0.02117,-0.15875 -0.02117,-0.232833 0,-0.105833 0.03175,-0.179916 l 0.04233,-0.433915 q -0.08467,-0.116417 -0.08467,-0.1905 0,-0.02117 0.02117,-0.08467 -0.04233,-0.08467 -0.04233,-0.127 0,-0.08467 0.05292,-0.137582 0,-0.09525 0.08467,-0.264583 -0.02117,-0.08467 -0.02117,-0.179916 0.07408,0 0.07408,-0.07408 0,-0.02117 -0.02117,-0.0635 -0.02117,-0.05292 -0.02117,-0.105833 l 0.03175,0.04233 -0.04233,-0.09525 q 0,-0.201083 0.05292,-0.349249 v -0.306916 l -0.05292,-0.222249 0.05292,-0.412749 -0.05292,-0.306916 0.02117,-0.105833 -0.158749,0.01058 -0.116416,0.0635 -0.08467,-0.01058 v 0.04233 q -0.222249,0 -0.433915,-0.03175 l -0.03175,0.08467 -0.412749,-0.137583 -0.550331,-0.01058 -0.349249,0.09525 q -0.423332,-0.359832 -0.423332,-0.518581 0,-0.09525 0.03175,-0.1905 v 0.03175 l 0.232832,-0.201083 0.201083,0.01058 0.709081,0.126999 0.179916,-0.05292 0.539748,0.01058 0.423332,0.05292 0.275166,-0.105833 0.09525,-0.275166 0.423332,0.105833 0.02117,-0.02117 0.02117,0.03175 0.148166,0.179916 0.04233,0.01058 0.148167,-0.05292 0.306915,0.07408 q 0.455082,-0.08467 0.539749,-0.08467 0.126999,0 0.264582,0.05292 0.03175,0 0.127,0.01058 0.148166,-0.02117 0.190499,-0.02117 h 0.07408 l 0.359832,-0.04233 0.306916,0.05292 0.04233,0.02117 0.15875,-0.05292 0.222249,0.05292 0.529165,-0.02117 0.232833,0.03175 z" style="font-style:normal;font-variant:normal;font-weight:400;font-stretch:normal;font-size:10.5833px;font-family:'Bradley Hand';-inkscape-font-specification:'Bradley Hand Normal';font-variant-ligatures:normal;font-variant-caps:normal;font-variant-numeric:normal;font-variant-east-asian:normal;fill:#000;fill-opacity:1;stroke-width:0;stroke-miterlimit:4;stroke-dasharray:none"/><path id="path920" d="m 99.928436,92.24508 -0.264582,0.497415 -0.243416,0.03175 h -0.328082 l -0.179917,0.03175 -0.137582,-0.03175 -0.666748,0.05292 -0.1905,-0.04233 -0.04233,0.01058 q -0.105833,0.04233 -0.359832,0.08467 h -0.380999 l -0.08467,-0.03175 h -0.03175 q -0.105833,0 -0.306916,0.05292 -0.158749,0.04233 -0.391582,0.04233 l -0.169333,-0.04233 -0.03175,0.126999 h -0.126999 l -0.03175,0.497415 0.05292,0.08467 -0.02117,0.158749 v 0.275166 q 0,0.433915 -0.08467,0.582082 l 0.08467,0.116416 -0.0635,0.306916 0.0635,0.08467 -0.116416,0.169333 v 0.08467 l -0.0635,0.116416 0.04233,0.232833 -0.03175,0.444499 -0.0635,0.201082 q 0.01058,0.01058 0.01058,0.05292 0,-0.02117 -0.03175,0.137583 0,0.01058 0.01058,0.04233 0,0.03175 0,0.05292 0,0.116417 -0.07408,0.22225 l 0.03175,0.148166 q 0,0.07408 -0.01058,0.09525 l -0.01058,0.03175 q -0.02117,0.0635 -0.02117,0.127 0,0.201083 0.04233,0.338666 -0.232833,0.04233 -0.264583,0.04233 -0.09525,0 -0.158749,-0.02117 l -0.02117,-0.01058 q -0.275166,-0.0635 -0.275166,-0.507998 0.01058,-0.05292 0.01058,-0.148167 0,-0.08467 -0.02117,-0.232832 -0.02117,-0.15875 -0.02117,-0.232833 0,-0.105833 0.03175,-0.179916 l 0.04233,-0.433915 q -0.08467,-0.116417 -0.08467,-0.1905 0,-0.02117 0.02117,-0.08467 -0.04233,-0.08467 -0.04233,-0.127 0,-0.08467 0.05292,-0.137582 0,-0.09525 0.08467,-0.264583 -0.02117,-0.08467 -0.02117,-0.179916 0.07408,0 0.07408,-0.07408 0,-0.02117 -0.02117,-0.0635 -0.02117,-0.05292 -0.02117,-0.105833 l 0.03175,0.04233 -0.04233,-0.09525 q 0,-0.201083 0.05292,-0.349249 v -0.306916 l -0.05292,-0.222249 0.05292,-0.412749 -0.05292,-0.306916 0.02117,-0.105833 -0.158749,0.01058 -0.116417,0.0635 -0.08467,-0.01058 v 0.04233 q -0.222249,0 -0.433915,-0.03175 l -0.03175,0.08467 -0.412749,-0.137583 -0.550332,-0.01058 -0.349248,0.09525 q -0.423332,-0.359832 -0.423332,-0.518581 0,-0.09525 0.03175,-0.1905 v 0.03175 l 0.232833,-0.201083 0.201083,0.01058 0.709081,0.126999 0.179916,-0.05292 0.539748,0.01058 0.423332,0.05292 0.275166,-0.105833 0.09525,-0.275166 0.423332,0.105833 0.02117,-0.02117 0.02117,0.03175 0.148166,0.179916 0.04233,0.01058 0.148166,-0.05292 0.306916,0.07408 q 0.455082,-0.08467 0.539748,-0.08467 0.127,0 0.264583,0.05292 0.03175,0 0.126999,0.01058 0.148167,-0.02117 0.1905,-0.02117 h 0.07408 l 0.359832,-0.04233 0.306916,0.05292 0.04233,0.02117 0.15875,-0.05292 0.222249,0.05292 0.529165,-0.02117 0.232832,0.03175 z" style="font-style:normal;font-variant:normal;font-weight:400;font-stretch:normal;font-size:10.5833px;font-family:'Bradley Hand';-inkscape-font-specification:'Bradley Hand Normal';font-variant-ligatures:normal;font-variant-caps:normal;font-variant-numeric:normal;font-variant-east-asian:normal;fill:#000;fill-opacity:1;stroke-width:0;stroke-miterlimit:4;stroke-dasharray:none"/><path id="path922" d="m 106.29247,94.605156 -0.10583,0.222249 -0.0423,0.349249 -0.10584,0.09525 q -0.0635,0.423332 -0.32808,0.539748 l -0.0741,0.03175 -0.635,0.444499 -0.1905,0.105833 -0.30691,0.338665 -0.1905,-0.03175 -0.11642,0.08467 -0.21167,0.07408 -0.52916,0.275166 q -0.0635,-0.02117 -0.16933,-0.09525 -0.0741,0.105833 -0.23284,0.137583 h -0.0423 l -0.21167,0.169333 -0.0423,-0.02117 h -0.20108 l -0.0952,0.07408 -0.40217,-0.01058 -0.52916,0.08467 h -0.0635 q -0.0741,0 -0.17992,0.02117 l -0.29633,-0.04233 -0.0529,-0.05292 -0.42333,-0.0635 -0.17991,-0.08467 h -0.254 v -0.116416 l -0.201087,-0.211666 -0.264582,-0.116417 -0.116416,-0.328082 -0.01058,-0.243416 -0.0635,-0.07408 -0.01058,-0.476249 0.137583,-0.423331 -0.02117,-0.254 0.05292,-0.05292 v -0.201083 l 0.148166,-0.148166 v -0.105833 l 0.0635,-0.116416 v -0.105833 l 0.04233,-0.05292 -0.05292,-0.116416 0.169332,-0.116416 0.201084,-0.423332 0.43391,-0.624415 0.10584,-0.05292 q 0.0318,-0.05292 0.0952,-0.137583 l 0.10583,-0.08467 v -0.169333 l 0.15875,-0.03175 q 0.15875,-0.126999 0.34925,-0.190499 l 0.0529,-0.0635 q 0.0953,-0.04233 0.55034,-0.105833 l 0.28575,-0.04233 0.33866,0.04233 0.20108,-0.01058 h 0.28575 l 0.0635,0.01058 0.0317,0.01058 h 0.0529 l 0.0635,-0.02117 0.33866,0.01058 -0.0212,0.0635 0.15875,0.04233 q 0.0635,-0.02117 0.0635,-0.08467 0.0529,0.09525 0.23283,0.09525 l 0.0847,0.08467 h 0.3175 l 0.70908,0.306916 0.0847,0.232832 0.0635,0.09525 0.1905,0.07408 0.28575,0.465665 0.16933,0.211666 q 0.28575,0.666748 0.28575,0.793748 z m -0.79374,0.0635 -0.0529,-0.296333 0.0529,-0.08467 -0.0741,-0.179916 q 0.0106,-0.02117 0.0106,-0.0635 0,-0.03175 -0.0212,-0.05292 l -0.1905,-0.127 -0.0635,-0.169333 -0.0847,-0.03175 -0.0318,-0.148166 -0.26458,-0.243416 -0.15875,-0.126999 -0.0635,0.03175 q -0.24341,-0.222249 -0.89958,-0.370415 -0.0847,0 -0.10583,-0.01058 l -0.0529,0.03175 -0.1905,-0.05292 -0.10583,0.05292 q -0.15875,-0.05292 -0.1905,-0.05292 -0.0106,0 -0.0847,0.02117 -0.0635,0.02117 -0.11641,0.02117 -0.0529,0 -0.0847,-0.01058 -0.0741,0.137583 -0.34925,0.243416 l -0.13758,-0.02117 -0.14817,0.07408 -0.1905,-0.02117 q -0.1905,0.148166 -0.4445,0.306915 l -0.0529,0.07408 -0.0529,0.232832 -0.24341,0.105833 -0.0423,0.05292 q -0.0635,0.126999 -0.16933,0.232832 v 0.179916 l -0.14817,0.0635 -0.0318,0.02117 -0.0952,0.317499 -0.14816,0.08467 q -0.0318,0.539748 -0.17992,0.751414 -0.0847,0.116417 -0.0953,0.317499 l -0.0423,0.116417 0.0318,0.07408 0.0317,0.158749 0.127,0.137583 0.0212,0.137583 0.10583,0.105833 q 0.29633,0.169333 0.52916,0.179916 l 0.4445,-0.116416 0.0953,0.09525 h 0.127 l 0.0212,-0.02117 0.3175,-0.05292 0.33866,0.05292 q 0.0847,-0.08467 0.20108,-0.08467 0.24342,-0.148167 0.41275,-0.148167 l 0.22225,-0.126999 0.16934,-0.01058 0.13758,-0.105833 0.32808,-0.01058 q 0.0423,-0.01058 0.0953,-0.01058 l 0.0212,-0.03175 q 0.0741,-0.105833 0.22225,-0.137583 l 0.127,-0.296332 0.0847,0.05292 0.0847,-0.04233 0.14816,-0.137583 0.0529,0.02117 0.17992,-0.127 0.3175,-0.317499 0.13758,-0.04233 0.0635,-0.15875 0.0847,-0.05292 -0.0212,-0.09525 z" style="font-style:normal;font-variant:normal;font-weight:400;font-stretch:normal;font-size:10.5833px;font-family:'Bradley Hand';-inkscape-font-specification:'Bradley Hand Normal';font-variant-ligatures:normal;font-variant-caps:normal;font-variant-numeric:normal;font-variant-east-asian:normal;fill:#000;fill-opacity:1;stroke-width:0;stroke-miterlimit:4;stroke-dasharray:none"/></g><g style="font-style:normal;font-variant:normal;font-weight:400;font-stretch:normal;font-size:10.5833px;line-height:1.25;font-family:Hack;-inkscape-font-specification:Hack;mix-blend-mode:normal;fill:#94ff94;fill-opacity:1;stroke:#94ff94;stroke-width:.27;stroke-miterlimit:4;stroke-dasharray:none;stroke-opacity:1;filter:url(#filter910)" id="g900" aria-label="MOTTO" transform="translate(-0.69099027,-4.4329421)"><path id="path890" d="m 77.968751,97.37798 q -0.0635,0.179917 -0.402165,0.28575 l -0.338665,-0.211666 -0.328083,-0.370416 -0.105833,-0.243416 -0.03175,-0.201083 -0.04233,-0.105833 q -0.137583,-0.338665 -0.137583,-0.613831 0,-0.0635 0.03175,-0.158749 l 0.02117,-0.02117 0.02117,-0.201083 -0.126999,-0.232832 0.04233,-0.127 -0.02117,-0.169333 0.01058,-0.148166 q -0.03175,-0.126999 -0.03175,-0.222249 v -0.05292 q 0,-0.190499 -0.05292,-0.380998 v -0.296333 l -0.07408,-0.190499 -0.02117,-0.148166 -0.105833,0.05292 -0.338666,0.423332 -0.296332,0.328082 -0.116417,0.211666 -0.328082,0.359833 -0.359832,0.243415 -0.04233,0.201083 -0.211666,0.07408 -0.04233,0.116416 -0.253999,0.116417 -0.08467,0.201082 -0.1905,0.0635 -0.211666,0.338666 -0.126999,0.07408 q -0.01058,0.05292 -0.04233,0.201083 -0.15875,0.08467 -0.338666,0.08467 h -0.0635 l -0.105833,-0.201083 -0.158749,-0.211666 0.02117,-0.116416 -0.105833,-0.148166 0.05292,-0.07408 -0.01058,-0.01058 -0.05292,-0.169332 -0.08467,-0.0635 Q 72.581852,95.462403 72.465436,95.29307 l -0.0635,-0.201082 -0.105833,-0.116417 -0.201083,-0.370415 -0.211666,-0.232833 -0.07408,-0.126999 -0.201083,-0.211666 -0.222249,-0.306916 q -0.02117,-0.08467 -0.105833,-0.169333 -0.03175,0.380999 -0.137583,0.560915 l -0.190499,0.317499 0.05292,0.232833 -0.09525,0.232832 -0.211666,0.656165 -0.08467,0.211666 -0.02117,0.137583 -0.169333,0.349249 -0.148166,0.232832 0.02117,0.211666 q -0.0635,0.169333 -0.179916,0.370416 l 0.0635,0.253999 q -0.306916,0.306916 -0.465665,0.306916 -0.169333,0 -0.253999,-0.15875 -0.07408,-0.08467 -0.09525,-0.190499 v -0.04233 q 0.190499,-0.783165 0.253999,-0.783165 0.01058,0 0.01058,0.01058 V 96.2879 q 0,-0.275166 0.211666,-0.412749 v -0.0635 l 0.0635,-0.211666 -0.01058,-0.07408 q 0,-0.05292 0.09525,-0.296332 l 0.04233,-0.04233 0.01058,-0.285749 0.105833,-0.179916 0.15875,-0.529165 -0.05292,-0.328082 0.137583,-0.116416 v -0.03175 l 0.02117,-0.412749 0.03175,-0.179916 q 0.03175,-0.08467 0.03175,-0.148166 v -0.04233 l -0.179916,-0.338666 0.05292,-0.201083 0.08467,-0.02117 0.07408,-0.105833 -0.01058,-0.08467 0.137583,-0.126999 0.09525,0.04233 0.126999,-0.105833 0.148166,0.02117 0.264583,0.179916 v 0.07408 l 0.09525,0.0635 0.04233,0.243415 0.07408,0.0635 0.0635,0.201083 -0.02117,0.04233 0.09525,0.07408 q 0.0635,-0.03175 0.116416,-0.03175 0.0635,0.03175 0.169333,0.137583 l 0.02117,0.148166 0.09525,0.105833 0.07408,0.22225 0.486832,0.465665 0.08467,0.264582 0.15875,0.105833 0.169333,0.423332 0.328082,0.571499 q 0.01058,0.01058 0.0635,0.07408 l 0.02117,0.03175 h 0.105833 l 0.08467,-0.179916 0.253999,-0.158749 q 0.243416,-0.264583 0.243416,-0.285749 0,-0.01058 -0.02117,-0.01058 h -0.01058 q 0.05292,-0.04233 0.137583,-0.07408 0.02117,-0.03175 0.148166,-0.09525 0.07408,-0.15875 0.253999,-0.243416 l 0.04233,-0.0635 v -0.09525 q 0.254,-0.317499 0.412749,-0.370415 0,-0.169333 0.328082,-0.306916 l 0.1905,-0.264582 0.0635,-0.179916 h 0.116416 q 0.126999,-0.211666 0.179916,-0.317499 l 0.148166,-0.0635 0.07408,0.01058 -0.02117,-0.211666 -0.09525,-0.211666 0.148166,-0.222249 0.08467,-0.264583 q 0.09525,0 0.179916,-0.01058 0.08467,-0.01058 0.07408,-0.01058 0.0635,0 0.296332,0.105833 l 0.02117,0.08467 0.116416,0.09525 0.01058,0.08467 0.105833,0.08467 -0.05292,0.05292 q 0.158749,0.0635 0.158749,0.179916 0,0.04233 -0.02117,0.105833 v 0.169333 q 0.02117,0.03175 0.126999,0.190499 l -0.0635,0.05292 -0.01058,0.05292 0.02117,0.01058 0.03175,0.169332 0.148166,0.116417 -0.116416,0.148166 -0.05292,0.232833 0.07408,0.169332 -0.02117,0.243416 0.09525,0.317499 q 0.0635,0.211666 0.0635,0.338666 0,0.07408 -0.09525,0.201083 0.07408,0.04233 0.07408,0.126999 0,0.07408 -0.0635,0.1905 l 0.04233,0.04233 -0.03175,0.592664 0.116416,0.328083 v 0.349249 q 0.0635,0.09525 0.105833,0.211666 0.02117,0.03175 0.232833,0.253999 0.116416,0.126999 0.126999,0.232832 z" style="font-style:normal;font-variant:normal;font-weight:400;font-stretch:normal;font-size:10.5833px;font-family:'Bradley Hand';-inkscape-font-specification:'Bradley Hand Normal';font-variant-ligatures:normal;font-variant-caps:normal;font-variant-numeric:normal;font-variant-east-asian:normal;fill:#94ff94;fill-opacity:1;stroke:#94ff94;stroke-width:.27;stroke-miterlimit:4;stroke-dasharray:none;stroke-opacity:1"/><path id="path892" d="m 85.725318,94.605156 -0.105833,0.222249 -0.04233,0.349249 -0.105833,0.09525 q -0.0635,0.423332 -0.328082,0.539748 l -0.07408,0.03175 -0.634998,0.444499 -0.190499,0.105833 -0.306916,0.338665 -0.190499,-0.03175 -0.116416,0.08467 -0.211666,0.07408 -0.529165,0.275166 q -0.0635,-0.02117 -0.169333,-0.09525 -0.07408,0.105833 -0.232833,0.137583 h -0.04233 l -0.211666,0.169333 -0.04233,-0.02117 h -0.201083 l -0.09525,0.07408 -0.402166,-0.01058 -0.529165,0.08467 h -0.0635 q -0.07408,0 -0.179916,0.02117 l -0.296332,-0.04233 -0.05292,-0.05292 -0.423332,-0.0635 -0.179916,-0.08467 H 79.512921 V 97.134565 L 79.311838,96.922899 79.047256,96.806482 78.93084,96.4784 l -0.01058,-0.243416 -0.0635,-0.07408 -0.01058,-0.476249 0.137583,-0.423331 -0.02117,-0.254 0.05292,-0.05292 v -0.201083 l 0.148166,-0.148166 v -0.105833 l 0.0635,-0.116416 v -0.105833 l 0.04233,-0.05292 -0.05292,-0.116416 0.169333,-0.116416 0.201082,-0.423332 0.433915,-0.624415 0.105833,-0.05292 q 0.03175,-0.05292 0.09525,-0.137583 l 0.105833,-0.08467 v -0.169333 l 0.15875,-0.03175 q 0.158749,-0.126999 0.349249,-0.190499 l 0.05292,-0.0635 q 0.09525,-0.04233 0.550332,-0.105833 l 0.285749,-0.04233 0.338665,0.04233 0.201083,-0.01058 h 0.285749 l 0.0635,0.01058 0.03175,0.01058 h 0.05292 l 0.0635,-0.02117 0.338666,0.01058 -0.02117,0.0635 0.15875,0.04233 q 0.0635,-0.02117 0.0635,-0.08467 0.05292,0.09525 0.232833,0.09525 l 0.08467,0.08467 h 0.317499 l 0.709081,0.306916 0.08467,0.232832 0.0635,0.09525 0.190499,0.07408 0.285749,0.465665 0.169333,0.211666 q 0.285749,0.666748 0.285749,0.793748 z m -0.793747,0.0635 -0.05292,-0.296333 0.05292,-0.08467 -0.07408,-0.179916 q 0.01058,-0.02117 0.01058,-0.0635 0,-0.03175 -0.02117,-0.05292 l -0.190499,-0.127 -0.0635,-0.169333 -0.08467,-0.03175 -0.03175,-0.148166 -0.264583,-0.243416 -0.158749,-0.126999 -0.0635,0.03175 q -0.243416,-0.222249 -0.899581,-0.370415 -0.08467,0 -0.105833,-0.01058 l -0.05292,0.03175 -0.1905,-0.05292 -0.105832,0.05292 q -0.15875,-0.05292 -0.1905,-0.05292 -0.01058,0 -0.08467,0.02117 -0.0635,0.02117 -0.116417,0.02117 -0.05292,0 -0.08467,-0.01058 -0.07408,0.137583 -0.349249,0.243416 l -0.137583,-0.02117 -0.148166,0.07408 -0.190499,-0.02117 q -0.1905,0.148166 -0.444499,0.306915 l -0.05292,0.07408 -0.05292,0.232832 -0.243416,0.105833 -0.04233,0.05292 q -0.0635,0.126999 -0.169333,0.232832 v 0.179916 l -0.148166,0.0635 -0.03175,0.02117 -0.09525,0.317499 -0.148166,0.08467 q -0.03175,0.539748 -0.179916,0.751414 -0.08467,0.116417 -0.09525,0.317499 l -0.04233,0.116417 0.03175,0.07408 0.03175,0.158749 0.127,0.137583 0.02117,0.137583 0.105833,0.105833 q 0.296333,0.169333 0.529165,0.179916 l 0.444499,-0.116416 0.09525,0.09525 h 0.127 l 0.02117,-0.02117 0.317499,-0.05292 0.338665,0.05292 q 0.08467,-0.08467 0.201083,-0.08467 0.243416,-0.148167 0.412749,-0.148167 l 0.222249,-0.126999 0.169333,-0.01058 0.137583,-0.105833 0.328082,-0.01058 q 0.04233,-0.01058 0.09525,-0.01058 l 0.02117,-0.03175 q 0.07408,-0.105833 0.222249,-0.137583 l 0.127,-0.296332 0.08467,0.05292 0.08467,-0.04233 0.148166,-0.137583 0.05292,0.02117 0.179916,-0.127 0.317499,-0.317499 0.137583,-0.04233 0.0635,-0.15875 0.08467,-0.05292 -0.02117,-0.09525 z" style="font-style:normal;font-variant:normal;font-weight:400;font-stretch:normal;font-size:10.5833px;font-family:'Bradley Hand';-inkscape-font-specification:'Bradley Hand Normal';font-variant-ligatures:normal;font-variant-caps:normal;font-variant-numeric:normal;font-variant-east-asian:normal;fill:#94ff94;fill-opacity:1;stroke:#94ff94;stroke-width:.27;stroke-miterlimit:4;stroke-dasharray:none;stroke-opacity:1"/><path id="path894" d="m 93.458569,92.24508 -0.264583,0.497415 -0.243416,0.03175 h -0.328082 l -0.179916,0.03175 -0.137583,-0.03175 -0.666748,0.05292 -0.190499,-0.04233 -0.04233,0.01058 q -0.105833,0.04233 -0.359832,0.08467 h -0.380999 l -0.08467,-0.03175 h -0.03175 q -0.105833,0 -0.306916,0.05292 -0.158749,0.04233 -0.391582,0.04233 l -0.169332,-0.04233 -0.03175,0.126999 h -0.127 l -0.03175,0.497415 0.05292,0.08467 -0.02117,0.158749 v 0.275166 q 0,0.433915 -0.08467,0.582082 l 0.08467,0.116416 -0.0635,0.306916 0.0635,0.08467 -0.116416,0.169333 v 0.08467 l -0.0635,0.116416 0.04233,0.232833 -0.03175,0.444499 -0.0635,0.201082 q 0.01058,0.01058 0.01058,0.05292 0,-0.02117 -0.03175,0.137583 0,0.01058 0.01058,0.04233 0,0.03175 0,0.05292 0,0.116417 -0.07408,0.22225 l 0.03175,0.148166 q 0,0.07408 -0.01058,0.09525 l -0.01058,0.03175 q -0.02117,0.0635 -0.02117,0.127 0,0.201083 0.04233,0.338666 -0.232833,0.04233 -0.264582,0.04233 -0.09525,0 -0.15875,-0.02117 l -0.02117,-0.01058 q -0.275165,-0.0635 -0.275165,-0.507998 0.01058,-0.05292 0.01058,-0.148167 0,-0.08467 -0.02117,-0.232832 -0.02117,-0.15875 -0.02117,-0.232833 0,-0.105833 0.03175,-0.179916 l 0.04233,-0.433915 q -0.08467,-0.116417 -0.08467,-0.1905 0,-0.02117 0.02117,-0.08467 -0.04233,-0.08467 -0.04233,-0.127 0,-0.08467 0.05292,-0.137582 0,-0.09525 0.08467,-0.264583 -0.02117,-0.08467 -0.02117,-0.179916 0.07408,0 0.07408,-0.07408 0,-0.02117 -0.02117,-0.0635 -0.02117,-0.05292 -0.02117,-0.105833 l 0.03175,0.04233 -0.04233,-0.09525 q 0,-0.201083 0.05292,-0.349249 v -0.306916 l -0.05292,-0.222249 0.05292,-0.412749 -0.05292,-0.306916 0.02117,-0.105833 -0.158749,0.01058 -0.116416,0.0635 -0.08467,-0.01058 v 0.04233 q -0.222249,0 -0.433915,-0.03175 l -0.03175,0.08467 -0.412749,-0.137583 -0.550331,-0.01058 -0.349249,0.09525 q -0.423332,-0.359832 -0.423332,-0.518581 0,-0.09525 0.03175,-0.1905 v 0.03175 l 0.232832,-0.201083 0.201083,0.01058 0.709081,0.126999 0.179916,-0.05292 0.539748,0.01058 0.423332,0.05292 0.275166,-0.105833 0.09525,-0.275166 0.423332,0.105833 0.02117,-0.02117 0.02117,0.03175 0.148166,0.179916 0.04233,0.01058 0.148167,-0.05292 0.306915,0.07408 q 0.455082,-0.08467 0.539749,-0.08467 0.126999,0 0.264582,0.05292 0.03175,0 0.127,0.01058 0.148166,-0.02117 0.190499,-0.02117 h 0.07408 l 0.359832,-0.04233 0.306916,0.05292 0.04233,0.02117 0.15875,-0.05292 0.222249,0.05292 0.529165,-0.02117 0.232833,0.03175 z" style="font-style:normal;font-variant:normal;font-weight:400;font-stretch:normal;font-size:10.5833px;font-family:'Bradley Hand';-inkscape-font-specification:'Bradley Hand Normal';font-variant-ligatures:normal;font-variant-caps:normal;font-variant-numeric:normal;font-variant-east-asian:normal;fill:#94ff94;fill-opacity:1;stroke:#94ff94;stroke-width:.27;stroke-miterlimit:4;stroke-dasharray:none;stroke-opacity:1"/><path id="path896" d="m 99.928436,92.24508 -0.264582,0.497415 -0.243416,0.03175 h -0.328082 l -0.179917,0.03175 -0.137582,-0.03175 -0.666748,0.05292 -0.1905,-0.04233 -0.04233,0.01058 q -0.105833,0.04233 -0.359832,0.08467 h -0.380999 l -0.08467,-0.03175 h -0.03175 q -0.105833,0 -0.306916,0.05292 -0.158749,0.04233 -0.391582,0.04233 l -0.169333,-0.04233 -0.03175,0.126999 h -0.126999 l -0.03175,0.497415 0.05292,0.08467 -0.02117,0.158749 v 0.275166 q 0,0.433915 -0.08467,0.582082 l 0.08467,0.116416 -0.0635,0.306916 0.0635,0.08467 -0.116416,0.169333 v 0.08467 l -0.0635,0.116416 0.04233,0.232833 -0.03175,0.444499 -0.0635,0.201082 q 0.01058,0.01058 0.01058,0.05292 0,-0.02117 -0.03175,0.137583 0,0.01058 0.01058,0.04233 0,0.03175 0,0.05292 0,0.116417 -0.07408,0.22225 l 0.03175,0.148166 q 0,0.07408 -0.01058,0.09525 l -0.01058,0.03175 q -0.02117,0.0635 -0.02117,0.127 0,0.201083 0.04233,0.338666 -0.232833,0.04233 -0.264583,0.04233 -0.09525,0 -0.158749,-0.02117 l -0.02117,-0.01058 q -0.275166,-0.0635 -0.275166,-0.507998 0.01058,-0.05292 0.01058,-0.148167 0,-0.08467 -0.02117,-0.232832 -0.02117,-0.15875 -0.02117,-0.232833 0,-0.105833 0.03175,-0.179916 l 0.04233,-0.433915 q -0.08467,-0.116417 -0.08467,-0.1905 0,-0.02117 0.02117,-0.08467 -0.04233,-0.08467 -0.04233,-0.127 0,-0.08467 0.05292,-0.137582 0,-0.09525 0.08467,-0.264583 -0.02117,-0.08467 -0.02117,-0.179916 0.07408,0 0.07408,-0.07408 0,-0.02117 -0.02117,-0.0635 -0.02117,-0.05292 -0.02117,-0.105833 l 0.03175,0.04233 -0.04233,-0.09525 q 0,-0.201083 0.05292,-0.349249 v -0.306916 l -0.05292,-0.222249 0.05292,-0.412749 -0.05292,-0.306916 0.02117,-0.105833 -0.158749,0.01058 -0.116417,0.0635 -0.08467,-0.01058 v 0.04233 q -0.222249,0 -0.433915,-0.03175 l -0.03175,0.08467 -0.412749,-0.137583 -0.550332,-0.01058 -0.349248,0.09525 q -0.423332,-0.359832 -0.423332,-0.518581 0,-0.09525 0.03175,-0.1905 v 0.03175 l 0.232833,-0.201083 0.201083,0.01058 0.709081,0.126999 0.179916,-0.05292 0.539748,0.01058 0.423332,0.05292 0.275166,-0.105833 0.09525,-0.275166 0.423332,0.105833 0.02117,-0.02117 0.02117,0.03175 0.148166,0.179916 0.04233,0.01058 0.148166,-0.05292 0.306916,0.07408 q 0.455082,-0.08467 0.539748,-0.08467 0.127,0 0.264583,0.05292 0.03175,0 0.126999,0.01058 0.148167,-0.02117 0.1905,-0.02117 h 0.07408 l 0.359832,-0.04233 0.306916,0.05292 0.04233,0.02117 0.15875,-0.05292 0.222249,0.05292 0.529165,-0.02117 0.232832,0.03175 z" style="font-style:normal;font-variant:normal;font-weight:400;font-stretch:normal;font-size:10.5833px;font-family:'Bradley Hand';-inkscape-font-specification:'Bradley Hand Normal';font-variant-ligatures:normal;font-variant-caps:normal;font-variant-numeric:normal;font-variant-east-asian:normal;fill:#94ff94;fill-opacity:1;stroke:#94ff94;stroke-width:.27;stroke-miterlimit:4;stroke-dasharray:none;stroke-opacity:1"/><path id="path898" d="m 106.29247,94.605156 -0.10583,0.222249 -0.0423,0.349249 -0.10584,0.09525 q -0.0635,0.423332 -0.32808,0.539748 l -0.0741,0.03175 -0.635,0.444499 -0.1905,0.105833 -0.30691,0.338665 -0.1905,-0.03175 -0.11642,0.08467 -0.21167,0.07408 -0.52916,0.275166 q -0.0635,-0.02117 -0.16933,-0.09525 -0.0741,0.105833 -0.23284,0.137583 h -0.0423 l -0.21167,0.169333 -0.0423,-0.02117 h -0.20108 l -0.0952,0.07408 -0.40217,-0.01058 -0.52916,0.08467 h -0.0635 q -0.0741,0 -0.17992,0.02117 l -0.29633,-0.04233 -0.0529,-0.05292 -0.42333,-0.0635 -0.17991,-0.08467 h -0.254 v -0.116416 l -0.201087,-0.211666 -0.264582,-0.116417 -0.116416,-0.328082 -0.01058,-0.243416 -0.0635,-0.07408 -0.01058,-0.476249 0.137583,-0.423331 -0.02117,-0.254 0.05292,-0.05292 v -0.201083 l 0.148166,-0.148166 v -0.105833 l 0.0635,-0.116416 v -0.105833 l 0.04233,-0.05292 -0.05292,-0.116416 0.169332,-0.116416 0.201084,-0.423332 0.43391,-0.624415 0.10584,-0.05292 q 0.0318,-0.05292 0.0952,-0.137583 l 0.10583,-0.08467 v -0.169333 l 0.15875,-0.03175 q 0.15875,-0.126999 0.34925,-0.190499 l 0.0529,-0.0635 q 0.0953,-0.04233 0.55034,-0.105833 l 0.28575,-0.04233 0.33866,0.04233 0.20108,-0.01058 h 0.28575 l 0.0635,0.01058 0.0317,0.01058 h 0.0529 l 0.0635,-0.02117 0.33866,0.01058 -0.0212,0.0635 0.15875,0.04233 q 0.0635,-0.02117 0.0635,-0.08467 0.0529,0.09525 0.23283,0.09525 l 0.0847,0.08467 h 0.3175 l 0.70908,0.306916 0.0847,0.232832 0.0635,0.09525 0.1905,0.07408 0.28575,0.465665 0.16933,0.211666 q 0.28575,0.666748 0.28575,0.793748 z m -0.79374,0.0635 -0.0529,-0.296333 0.0529,-0.08467 -0.0741,-0.179916 q 0.0106,-0.02117 0.0106,-0.0635 0,-0.03175 -0.0212,-0.05292 l -0.1905,-0.127 -0.0635,-0.169333 -0.0847,-0.03175 -0.0318,-0.148166 -0.26458,-0.243416 -0.15875,-0.126999 -0.0635,0.03175 q -0.24341,-0.222249 -0.89958,-0.370415 -0.0847,0 -0.10583,-0.01058 l -0.0529,0.03175 -0.1905,-0.05292 -0.10583,0.05292 q -0.15875,-0.05292 -0.1905,-0.05292 -0.0106,0 -0.0847,0.02117 -0.0635,0.02117 -0.11641,0.02117 -0.0529,0 -0.0847,-0.01058 -0.0741,0.137583 -0.34925,0.243416 l -0.13758,-0.02117 -0.14817,0.07408 -0.1905,-0.02117 q -0.1905,0.148166 -0.4445,0.306915 l -0.0529,0.07408 -0.0529,0.232832 -0.24341,0.105833 -0.0423,0.05292 q -0.0635,0.126999 -0.16933,0.232832 v 0.179916 l -0.14817,0.0635 -0.0318,0.02117 -0.0952,0.317499 -0.14816,0.08467 q -0.0318,0.539748 -0.17992,0.751414 -0.0847,0.116417 -0.0953,0.317499 l -0.0423,0.116417 0.0318,0.07408 0.0317,0.158749 0.127,0.137583 0.0212,0.137583 0.10583,0.105833 q 0.29633,0.169333 0.52916,0.179916 l 0.4445,-0.116416 0.0953,0.09525 h 0.127 l 0.0212,-0.02117 0.3175,-0.05292 0.33866,0.05292 q 0.0847,-0.08467 0.20108,-0.08467 0.24342,-0.148167 0.41275,-0.148167 l 0.22225,-0.126999 0.16934,-0.01058 0.13758,-0.105833 0.32808,-0.01058 q 0.0423,-0.01058 0.0953,-0.01058 l 0.0212,-0.03175 q 0.0741,-0.105833 0.22225,-0.137583 l 0.127,-0.296332 0.0847,0.05292 0.0847,-0.04233 0.14816,-0.137583 0.0529,0.02117 0.17992,-0.127 0.3175,-0.317499 0.13758,-0.04233 0.0635,-0.15875 0.0847,-0.05292 -0.0212,-0.09525 z" style="font-style:normal;font-variant:normal;font-weight:400;font-stretch:normal;font-size:10.5833px;font-family:'Bradley Hand';-inkscape-font-specification:'Bradley Hand Normal';font-variant-ligatures:normal;font-variant-caps:normal;font-variant-numeric:normal;font-variant-east-asian:normal;fill:#94ff94;fill-opacity:1;stroke:#94ff94;stroke-width:.27;stroke-miterlimit:4;stroke-dasharray:none;stroke-opacity:1"/></g><g id="g876" aria-label="MOTTO" transform="translate(-0.69098999,-4.432942)" style="font-style:normal;font-variant:normal;font-weight:400;font-stretch:normal;font-size:10.5833px;line-height:1.25;font-family:Hack;-inkscape-font-specification:Hack;fill:#fff;fill-opacity:1;stroke:none;stroke-width:0;stroke-miterlimit:4;stroke-dasharray:none"><path style="font-style:normal;font-variant:normal;font-weight:400;font-stretch:normal;font-size:10.5833px;font-family:'Bradley Hand';-inkscape-font-specification:'Bradley Hand Normal';font-variant-ligatures:normal;font-variant-caps:normal;font-variant-numeric:normal;font-variant-east-asian:normal;fill:#fff;fill-opacity:1;stroke-width:0;stroke-miterlimit:4;stroke-dasharray:none" id="path866" d="m 77.968751,97.37798 q -0.0635,0.179917 -0.402165,0.28575 l -0.338665,-0.211666 -0.328083,-0.370416 -0.105833,-0.243416 -0.03175,-0.201083 -0.04233,-0.105833 q -0.137583,-0.338665 -0.137583,-0.613831 0,-0.0635 0.03175,-0.158749 l 0.02117,-0.02117 0.02117,-0.201083 -0.126999,-0.232832 0.04233,-0.127 -0.02117,-0.169333 0.01058,-0.148166 q -0.03175,-0.126999 -0.03175,-0.222249 v -0.05292 q 0,-0.190499 -0.05292,-0.380998 v -0.296333 l -0.07408,-0.190499 -0.02117,-0.148166 -0.105833,0.05292 -0.338666,0.423332 -0.296332,0.328082 -0.116417,0.211666 -0.328082,0.359833 -0.359832,0.243415 -0.04233,0.201083 -0.211666,0.07408 -0.04233,0.116416 -0.253999,0.116417 -0.08467,0.201082 -0.1905,0.0635 -0.211666,0.338666 -0.126999,0.07408 q -0.01058,0.05292 -0.04233,0.201083 -0.15875,0.08467 -0.338666,0.08467 h -0.0635 l -0.105833,-0.201083 -0.158749,-0.211666 0.02117,-0.116416 -0.105833,-0.148166 0.05292,-0.07408 -0.01058,-0.01058 -0.05292,-0.169332 -0.08467,-0.0635 Q 72.581852,95.462403 72.465436,95.29307 l -0.0635,-0.201082 -0.105833,-0.116417 -0.201083,-0.370415 -0.211666,-0.232833 -0.07408,-0.126999 -0.201083,-0.211666 -0.222249,-0.306916 q -0.02117,-0.08467 -0.105833,-0.169333 -0.03175,0.380999 -0.137583,0.560915 l -0.190499,0.317499 0.05292,0.232833 -0.09525,0.232832 -0.211666,0.656165 -0.08467,0.211666 -0.02117,0.137583 -0.169333,0.349249 -0.148166,0.232832 0.02117,0.211666 q -0.0635,0.169333 -0.179916,0.370416 l 0.0635,0.253999 q -0.306916,0.306916 -0.465665,0.306916 -0.169333,0 -0.253999,-0.15875 -0.07408,-0.08467 -0.09525,-0.190499 v -0.04233 q 0.190499,-0.783165 0.253999,-0.783165 0.01058,0 0.01058,0.01058 V 96.2879 q 0,-0.275166 0.211666,-0.412749 v -0.0635 l 0.0635,-0.211666 -0.01058,-0.07408 q 0,-0.05292 0.09525,-0.296332 l 0.04233,-0.04233 0.01058,-0.285749 0.105833,-0.179916 0.15875,-0.529165 -0.05292,-0.328082 0.137583,-0.116416 v -0.03175 l 0.02117,-0.412749 0.03175,-0.179916 q 0.03175,-0.08467 0.03175,-0.148166 v -0.04233 l -0.179916,-0.338666 0.05292,-0.201083 0.08467,-0.02117 0.07408,-0.105833 -0.01058,-0.08467 0.137583,-0.126999 0.09525,0.04233 0.126999,-0.105833 0.148166,0.02117 0.264583,0.179916 v 0.07408 l 0.09525,0.0635 0.04233,0.243415 0.07408,0.0635 0.0635,0.201083 -0.02117,0.04233 0.09525,0.07408 q 0.0635,-0.03175 0.116416,-0.03175 0.0635,0.03175 0.169333,0.137583 l 0.02117,0.148166 0.09525,0.105833 0.07408,0.22225 0.486832,0.465665 0.08467,0.264582 0.15875,0.105833 0.169333,0.423332 0.328082,0.571499 q 0.01058,0.01058 0.0635,0.07408 l 0.02117,0.03175 h 0.105833 l 0.08467,-0.179916 0.253999,-0.158749 q 0.243416,-0.264583 0.243416,-0.285749 0,-0.01058 -0.02117,-0.01058 h -0.01058 q 0.05292,-0.04233 0.137583,-0.07408 0.02117,-0.03175 0.148166,-0.09525 0.07408,-0.15875 0.253999,-0.243416 l 0.04233,-0.0635 v -0.09525 q 0.254,-0.317499 0.412749,-0.370415 0,-0.169333 0.328082,-0.306916 l 0.1905,-0.264582 0.0635,-0.179916 h 0.116416 q 0.126999,-0.211666 0.179916,-0.317499 l 0.148166,-0.0635 0.07408,0.01058 -0.02117,-0.211666 -0.09525,-0.211666 0.148166,-0.222249 0.08467,-0.264583 q 0.09525,0 0.179916,-0.01058 0.08467,-0.01058 0.07408,-0.01058 0.0635,0 0.296332,0.105833 l 0.02117,0.08467 0.116416,0.09525 0.01058,0.08467 0.105833,0.08467 -0.05292,0.05292 q 0.158749,0.0635 0.158749,0.179916 0,0.04233 -0.02117,0.105833 v 0.169333 q 0.02117,0.03175 0.126999,0.190499 l -0.0635,0.05292 -0.01058,0.05292 0.02117,0.01058 0.03175,0.169332 0.148166,0.116417 -0.116416,0.148166 -0.05292,0.232833 0.07408,0.169332 -0.02117,0.243416 0.09525,0.317499 q 0.0635,0.211666 0.0635,0.338666 0,0.07408 -0.09525,0.201083 0.07408,0.04233 0.07408,0.126999 0,0.07408 -0.0635,0.1905 l 0.04233,0.04233 -0.03175,0.592664 0.116416,0.328083 v 0.349249 q 0.0635,0.09525 0.105833,0.211666 0.02117,0.03175 0.232833,0.253999 0.116416,0.126999 0.126999,0.232832 z"/><path style="font-style:normal;font-variant:normal;font-weight:400;font-stretch:normal;font-size:10.5833px;font-family:'Bradley Hand';-inkscape-font-specification:'Bradley Hand Normal';font-variant-ligatures:normal;font-variant-caps:normal;font-variant-numeric:normal;font-variant-east-asian:normal;fill:#fff;fill-opacity:1;stroke-width:0;stroke-miterlimit:4;stroke-dasharray:none" id="path868" d="m 85.725318,94.605156 -0.105833,0.222249 -0.04233,0.349249 -0.105833,0.09525 q -0.0635,0.423332 -0.328082,0.539748 l -0.07408,0.03175 -0.634998,0.444499 -0.190499,0.105833 -0.306916,0.338665 -0.190499,-0.03175 -0.116416,0.08467 -0.211666,0.07408 -0.529165,0.275166 q -0.0635,-0.02117 -0.169333,-0.09525 -0.07408,0.105833 -0.232833,0.137583 h -0.04233 l -0.211666,0.169333 -0.04233,-0.02117 h -0.201083 l -0.09525,0.07408 -0.402166,-0.01058 -0.529165,0.08467 h -0.0635 q -0.07408,0 -0.179916,0.02117 l -0.296332,-0.04233 -0.05292,-0.05292 -0.423332,-0.0635 -0.179916,-0.08467 H 79.512921 V 97.134565 L 79.311838,96.922899 79.047256,96.806482 78.93084,96.4784 l -0.01058,-0.243416 -0.0635,-0.07408 -0.01058,-0.476249 0.137583,-0.423331 -0.02117,-0.254 0.05292,-0.05292 v -0.201083 l 0.148166,-0.148166 v -0.105833 l 0.0635,-0.116416 v -0.105833 l 0.04233,-0.05292 -0.05292,-0.116416 0.169333,-0.116416 0.201082,-0.423332 0.433915,-0.624415 0.105833,-0.05292 q 0.03175,-0.05292 0.09525,-0.137583 l 0.105833,-0.08467 v -0.169333 l 0.15875,-0.03175 q 0.158749,-0.126999 0.349249,-0.190499 l 0.05292,-0.0635 q 0.09525,-0.04233 0.550332,-0.105833 l 0.285749,-0.04233 0.338665,0.04233 0.201083,-0.01058 h 0.285749 l 0.0635,0.01058 0.03175,0.01058 h 0.05292 l 0.0635,-0.02117 0.338666,0.01058 -0.02117,0.0635 0.15875,0.04233 q 0.0635,-0.02117 0.0635,-0.08467 0.05292,0.09525 0.232833,0.09525 l 0.08467,0.08467 h 0.317499 l 0.709081,0.306916 0.08467,0.232832 0.0635,0.09525 0.190499,0.07408 0.285749,0.465665 0.169333,0.211666 q 0.285749,0.666748 0.285749,0.793748 z m -0.793747,0.0635 -0.05292,-0.296333 0.05292,-0.08467 -0.07408,-0.179916 q 0.01058,-0.02117 0.01058,-0.0635 0,-0.03175 -0.02117,-0.05292 l -0.190499,-0.127 -0.0635,-0.169333 -0.08467,-0.03175 -0.03175,-0.148166 -0.264583,-0.243416 -0.158749,-0.126999 -0.0635,0.03175 q -0.243416,-0.222249 -0.899581,-0.370415 -0.08467,0 -0.105833,-0.01058 l -0.05292,0.03175 -0.1905,-0.05292 -0.105832,0.05292 q -0.15875,-0.05292 -0.1905,-0.05292 -0.01058,0 -0.08467,0.02117 -0.0635,0.02117 -0.116417,0.02117 -0.05292,0 -0.08467,-0.01058 -0.07408,0.137583 -0.349249,0.243416 l -0.137583,-0.02117 -0.148166,0.07408 -0.190499,-0.02117 q -0.1905,0.148166 -0.444499,0.306915 l -0.05292,0.07408 -0.05292,0.232832 -0.243416,0.105833 -0.04233,0.05292 q -0.0635,0.126999 -0.169333,0.232832 v 0.179916 l -0.148166,0.0635 -0.03175,0.02117 -0.09525,0.317499 -0.148166,0.08467 q -0.03175,0.539748 -0.179916,0.751414 -0.08467,0.116417 -0.09525,0.317499 l -0.04233,0.116417 0.03175,0.07408 0.03175,0.158749 0.127,0.137583 0.02117,0.137583 0.105833,0.105833 q 0.296333,0.169333 0.529165,0.179916 l 0.444499,-0.116416 0.09525,0.09525 h 0.127 l 0.02117,-0.02117 0.317499,-0.05292 0.338665,0.05292 q 0.08467,-0.08467 0.201083,-0.08467 0.243416,-0.148167 0.412749,-0.148167 l 0.222249,-0.126999 0.169333,-0.01058 0.137583,-0.105833 0.328082,-0.01058 q 0.04233,-0.01058 0.09525,-0.01058 l 0.02117,-0.03175 q 0.07408,-0.105833 0.222249,-0.137583 l 0.127,-0.296332 0.08467,0.05292 0.08467,-0.04233 0.148166,-0.137583 0.05292,0.02117 0.179916,-0.127 0.317499,-0.317499 0.137583,-0.04233 0.0635,-0.15875 0.08467,-0.05292 -0.02117,-0.09525 z"/><path style="font-style:normal;font-variant:normal;font-weight:400;font-stretch:normal;font-size:10.5833px;font-family:'Bradley Hand';-inkscape-font-specification:'Bradley Hand Normal';font-variant-ligatures:normal;font-variant-caps:normal;font-variant-numeric:normal;font-variant-east-asian:normal;fill:#fff;fill-opacity:1;stroke-width:0;stroke-miterlimit:4;stroke-dasharray:none" id="path870" d="m 93.458569,92.24508 -0.264583,0.497415 -0.243416,0.03175 h -0.328082 l -0.179916,0.03175 -0.137583,-0.03175 -0.666748,0.05292 -0.190499,-0.04233 -0.04233,0.01058 q -0.105833,0.04233 -0.359832,0.08467 h -0.380999 l -0.08467,-0.03175 h -0.03175 q -0.105833,0 -0.306916,0.05292 -0.158749,0.04233 -0.391582,0.04233 l -0.169332,-0.04233 -0.03175,0.126999 h -0.127 l -0.03175,0.497415 0.05292,0.08467 -0.02117,0.158749 v 0.275166 q 0,0.433915 -0.08467,0.582082 l 0.08467,0.116416 -0.0635,0.306916 0.0635,0.08467 -0.116416,0.169333 v 0.08467 l -0.0635,0.116416 0.04233,0.232833 -0.03175,0.444499 -0.0635,0.201082 q 0.01058,0.01058 0.01058,0.05292 0,-0.02117 -0.03175,0.137583 0,0.01058 0.01058,0.04233 0,0.03175 0,0.05292 0,0.116417 -0.07408,0.22225 l 0.03175,0.148166 q 0,0.07408 -0.01058,0.09525 l -0.01058,0.03175 q -0.02117,0.0635 -0.02117,0.127 0,0.201083 0.04233,0.338666 -0.232833,0.04233 -0.264582,0.04233 -0.09525,0 -0.15875,-0.02117 l -0.02117,-0.01058 q -0.275165,-0.0635 -0.275165,-0.507998 0.01058,-0.05292 0.01058,-0.148167 0,-0.08467 -0.02117,-0.232832 -0.02117,-0.15875 -0.02117,-0.232833 0,-0.105833 0.03175,-0.179916 l 0.04233,-0.433915 q -0.08467,-0.116417 -0.08467,-0.1905 0,-0.02117 0.02117,-0.08467 -0.04233,-0.08467 -0.04233,-0.127 0,-0.08467 0.05292,-0.137582 0,-0.09525 0.08467,-0.264583 -0.02117,-0.08467 -0.02117,-0.179916 0.07408,0 0.07408,-0.07408 0,-0.02117 -0.02117,-0.0635 -0.02117,-0.05292 -0.02117,-0.105833 l 0.03175,0.04233 -0.04233,-0.09525 q 0,-0.201083 0.05292,-0.349249 v -0.306916 l -0.05292,-0.222249 0.05292,-0.412749 -0.05292,-0.306916 0.02117,-0.105833 -0.158749,0.01058 -0.116416,0.0635 -0.08467,-0.01058 v 0.04233 q -0.222249,0 -0.433915,-0.03175 l -0.03175,0.08467 -0.412749,-0.137583 -0.550331,-0.01058 -0.349249,0.09525 q -0.423332,-0.359832 -0.423332,-0.518581 0,-0.09525 0.03175,-0.1905 v 0.03175 l 0.232832,-0.201083 0.201083,0.01058 0.709081,0.126999 0.179916,-0.05292 0.539748,0.01058 0.423332,0.05292 0.275166,-0.105833 0.09525,-0.275166 0.423332,0.105833 0.02117,-0.02117 0.02117,0.03175 0.148166,0.179916 0.04233,0.01058 0.148167,-0.05292 0.306915,0.07408 q 0.455082,-0.08467 0.539749,-0.08467 0.126999,0 0.264582,0.05292 0.03175,0 0.127,0.01058 0.148166,-0.02117 0.190499,-0.02117 h 0.07408 l 0.359832,-0.04233 0.306916,0.05292 0.04233,0.02117 0.15875,-0.05292 0.222249,0.05292 0.529165,-0.02117 0.232833,0.03175 z"/><path style="font-style:normal;font-variant:normal;font-weight:400;font-stretch:normal;font-size:10.5833px;font-family:'Bradley Hand';-inkscape-font-specification:'Bradley Hand Normal';font-variant-ligatures:normal;font-variant-caps:normal;font-variant-numeric:normal;font-variant-east-asian:normal;fill:#fff;fill-opacity:1;stroke-width:0;stroke-miterlimit:4;stroke-dasharray:none" id="path872" d="m 99.928436,92.24508 -0.264582,0.497415 -0.243416,0.03175 h -0.328082 l -0.179917,0.03175 -0.137582,-0.03175 -0.666748,0.05292 -0.1905,-0.04233 -0.04233,0.01058 q -0.105833,0.04233 -0.359832,0.08467 h -0.380999 l -0.08467,-0.03175 h -0.03175 q -0.105833,0 -0.306916,0.05292 -0.158749,0.04233 -0.391582,0.04233 l -0.169333,-0.04233 -0.03175,0.126999 h -0.126999 l -0.03175,0.497415 0.05292,0.08467 -0.02117,0.158749 v 0.275166 q 0,0.433915 -0.08467,0.582082 l 0.08467,0.116416 -0.0635,0.306916 0.0635,0.08467 -0.116416,0.169333 v 0.08467 l -0.0635,0.116416 0.04233,0.232833 -0.03175,0.444499 -0.0635,0.201082 q 0.01058,0.01058 0.01058,0.05292 0,-0.02117 -0.03175,0.137583 0,0.01058 0.01058,0.04233 0,0.03175 0,0.05292 0,0.116417 -0.07408,0.22225 l 0.03175,0.148166 q 0,0.07408 -0.01058,0.09525 l -0.01058,0.03175 q -0.02117,0.0635 -0.02117,0.127 0,0.201083 0.04233,0.338666 -0.232833,0.04233 -0.264583,0.04233 -0.09525,0 -0.158749,-0.02117 l -0.02117,-0.01058 q -0.275166,-0.0635 -0.275166,-0.507998 0.01058,-0.05292 0.01058,-0.148167 0,-0.08467 -0.02117,-0.232832 -0.02117,-0.15875 -0.02117,-0.232833 0,-0.105833 0.03175,-0.179916 l 0.04233,-0.433915 q -0.08467,-0.116417 -0.08467,-0.1905 0,-0.02117 0.02117,-0.08467 -0.04233,-0.08467 -0.04233,-0.127 0,-0.08467 0.05292,-0.137582 0,-0.09525 0.08467,-0.264583 -0.02117,-0.08467 -0.02117,-0.179916 0.07408,0 0.07408,-0.07408 0,-0.02117 -0.02117,-0.0635 -0.02117,-0.05292 -0.02117,-0.105833 l 0.03175,0.04233 -0.04233,-0.09525 q 0,-0.201083 0.05292,-0.349249 v -0.306916 l -0.05292,-0.222249 0.05292,-0.412749 -0.05292,-0.306916 0.02117,-0.105833 -0.158749,0.01058 -0.116417,0.0635 -0.08467,-0.01058 v 0.04233 q -0.222249,0 -0.433915,-0.03175 l -0.03175,0.08467 -0.412749,-0.137583 -0.550332,-0.01058 -0.349248,0.09525 q -0.423332,-0.359832 -0.423332,-0.518581 0,-0.09525 0.03175,-0.1905 v 0.03175 l 0.232833,-0.201083 0.201083,0.01058 0.709081,0.126999 0.179916,-0.05292 0.539748,0.01058 0.423332,0.05292 0.275166,-0.105833 0.09525,-0.275166 0.423332,0.105833 0.02117,-0.02117 0.02117,0.03175 0.148166,0.179916 0.04233,0.01058 0.148166,-0.05292 0.306916,0.07408 q 0.455082,-0.08467 0.539748,-0.08467 0.127,0 0.264583,0.05292 0.03175,0 0.126999,0.01058 0.148167,-0.02117 0.1905,-0.02117 h 0.07408 l 0.359832,-0.04233 0.306916,0.05292 0.04233,0.02117 0.15875,-0.05292 0.222249,0.05292 0.529165,-0.02117 0.232832,0.03175 z"/><path style="font-style:normal;font-variant:normal;font-weight:400;font-stretch:normal;font-size:10.5833px;font-family:'Bradley Hand';-inkscape-font-specification:'Bradley Hand Normal';font-variant-ligatures:normal;font-variant-caps:normal;font-variant-numeric:normal;font-variant-east-asian:normal;fill:#fff;fill-opacity:1;stroke-width:0;stroke-miterlimit:4;stroke-dasharray:none" id="path874" d="m 106.29247,94.605156 -0.10583,0.222249 -0.0423,0.349249 -0.10584,0.09525 q -0.0635,0.423332 -0.32808,0.539748 l -0.0741,0.03175 -0.635,0.444499 -0.1905,0.105833 -0.30691,0.338665 -0.1905,-0.03175 -0.11642,0.08467 -0.21167,0.07408 -0.52916,0.275166 q -0.0635,-0.02117 -0.16933,-0.09525 -0.0741,0.105833 -0.23284,0.137583 h -0.0423 l -0.21167,0.169333 -0.0423,-0.02117 h -0.20108 l -0.0952,0.07408 -0.40217,-0.01058 -0.52916,0.08467 h -0.0635 q -0.0741,0 -0.17992,0.02117 l -0.29633,-0.04233 -0.0529,-0.05292 -0.42333,-0.0635 -0.17991,-0.08467 h -0.254 v -0.116416 l -0.201087,-0.211666 -0.264582,-0.116417 -0.116416,-0.328082 -0.01058,-0.243416 -0.0635,-0.07408 -0.01058,-0.476249 0.137583,-0.423331 -0.02117,-0.254 0.05292,-0.05292 v -0.201083 l 0.148166,-0.148166 v -0.105833 l 0.0635,-0.116416 v -0.105833 l 0.04233,-0.05292 -0.05292,-0.116416 0.169332,-0.116416 0.201084,-0.423332 0.43391,-0.624415 0.10584,-0.05292 q 0.0318,-0.05292 0.0952,-0.137583 l 0.10583,-0.08467 v -0.169333 l 0.15875,-0.03175 q 0.15875,-0.126999 0.34925,-0.190499 l 0.0529,-0.0635 q 0.0953,-0.04233 0.55034,-0.105833 l 0.28575,-0.04233 0.33866,0.04233 0.20108,-0.01058 h 0.28575 l 0.0635,0.01058 0.0317,0.01058 h 0.0529 l 0.0635,-0.02117 0.33866,0.01058 -0.0212,0.0635 0.15875,0.04233 q 0.0635,-0.02117 0.0635,-0.08467 0.0529,0.09525 0.23283,0.09525 l 0.0847,0.08467 h 0.3175 l 0.70908,0.306916 0.0847,0.232832 0.0635,0.09525 0.1905,0.07408 0.28575,0.465665 0.16933,0.211666 q 0.28575,0.666748 0.28575,0.793748 z m -0.79374,0.0635 -0.0529,-0.296333 0.0529,-0.08467 -0.0741,-0.179916 q 0.0106,-0.02117 0.0106,-0.0635 0,-0.03175 -0.0212,-0.05292 l -0.1905,-0.127 -0.0635,-0.169333 -0.0847,-0.03175 -0.0318,-0.148166 -0.26458,-0.243416 -0.15875,-0.126999 -0.0635,0.03175 q -0.24341,-0.222249 -0.89958,-0.370415 -0.0847,0 -0.10583,-0.01058 l -0.0529,0.03175 -0.1905,-0.05292 -0.10583,0.05292 q -0.15875,-0.05292 -0.1905,-0.05292 -0.0106,0 -0.0847,0.02117 -0.0635,0.02117 -0.11641,0.02117 -0.0529,0 -0.0847,-0.01058 -0.0741,0.137583 -0.34925,0.243416 l -0.13758,-0.02117 -0.14817,0.07408 -0.1905,-0.02117 q -0.1905,0.148166 -0.4445,0.306915 l -0.0529,0.07408 -0.0529,0.232832 -0.24341,0.105833 -0.0423,0.05292 q -0.0635,0.126999 -0.16933,0.232832 v 0.179916 l -0.14817,0.0635 -0.0318,0.02117 -0.0952,0.317499 -0.14816,0.08467 q -0.0318,0.539748 -0.17992,0.751414 -0.0847,0.116417 -0.0953,0.317499 l -0.0423,0.116417 0.0318,0.07408 0.0317,0.158749 0.127,0.137583 0.0212,0.137583 0.10583,0.105833 q 0.29633,0.169333 0.52916,0.179916 l 0.4445,-0.116416 0.0953,0.09525 h 0.127 l 0.0212,-0.02117 0.3175,-0.05292 0.33866,0.05292 q 0.0847,-0.08467 0.20108,-0.08467 0.24342,-0.148167 0.41275,-0.148167 l 0.22225,-0.126999 0.16934,-0.01058 0.13758,-0.105833 0.32808,-0.01058 q 0.0423,-0.01058 0.0953,-0.01058 l 0.0212,-0.03175 q 0.0741,-0.105833 0.22225,-0.137583 l 0.127,-0.296332 0.0847,0.05292 0.0847,-0.04233 0.14816,-0.137583 0.0529,0.02117 0.17992,-0.127 0.3175,-0.317499 0.13758,-0.04233 0.0635,-0.15875 0.0847,-0.05292 -0.0212,-0.09525 z"/></g></g></svg>